<?xml version="1.0" encoding="UTF-8"?>
<svg width="598px" height="657px" viewBox="0 0 598 657" xmlns="http://www.w3.org/2000/svg" xmlns:xlink="http://www.w3.org/1999/xlink" version="1.1">
 <!-- Generated by Pixelmator Pro 2.0.6 -->
 <g id="rose">
  <g id="group">
   <path id="leaf" d="M300 300 C265.927 308.618 232.963 331.021 207.395 366.214 181.826 401.406 170.706 439.679 173.038 474.748 207.111 466.129 240.075 443.726 265.644 408.534 291.212 373.342 302.333 335.069 300 300 Z" fill="#007700" fill-opacity="1" stroke="none"/>
   <g id="petals">
    <g id="g1">
     <path id="Pfad" d="M401.393 160.445 C337.076 113.716 303.473 142.792 303.023 163.138 L300 300 429.229 254.833 C448.44 248.117 465.71 207.173 401.393 160.445 Z" fill="#ffdd00" fill-opacity="1" stroke="#000000" stroke-width="0.2" stroke-opacity="1" stroke-linejoin="round" stroke-linecap="round"/>
     <path id="Pfad-1" d="M388.168 178.647 C405.157 190.991 420.819 194.954 428.764 204.434 445.867 224.277 438.264 237.294 432.092 245.788 439.146 236.08 446.749 223.063 429.646 203.221 421.701 193.74 406.921 188.564 389.931 176.22 372.942 163.877 363.452 151.42 351.98 146.793 327.823 136.659 317.793 147.912 310.74 157.621 316.911 149.126 326.942 137.872 351.098 148.007 362.57 152.633 371.178 166.304 388.168 178.647 Z" fill="#333300" fill-opacity="1" stroke="none"/>
     <path id="Pfad-2" d="M387.286 179.861 C404.275 192.204 419.937 196.167 427.882 205.648 444.986 225.49 436.501 239.721 430.329 248.215 435.619 240.934 442.34 229.131 425.237 209.288 417.292 199.808 398.104 200.699 381.114 188.356 364.125 176.012 359.043 157.487 347.572 152.861 323.415 142.726 314.266 152.766 308.976 160.048 315.148 151.553 326.06 139.086 350.217 149.22 361.688 153.847 370.297 167.517 387.286 179.861 Z" fill="#aa5500" fill-opacity="1" stroke="none"/>
     <path id="Pfad-3" d="M374.061 198.064 L352.673 212.19 C363.481 212.626 363.481 212.626 367.235 222.77 Z" fill="#333300" fill-opacity="1" stroke="none"/>
     <path id="Pfad-4" d="M349.478 219.14 C351.241 216.712 355.432 216.049 359.072 218.694 362.713 221.339 363.377 225.529 361.613 227.956 358.968 231.597 351.801 233.806 346.729 235.683 346.947 230.279 346.833 222.78 349.478 219.14 Z" fill="#aa5500" fill-opacity="1" stroke="none"/>
    </g>
   </g>
   <path id="Pfad-5" d="M324.271 317.634 C314.532 331.038 295.771 334.009 282.366 324.271 268.962 314.532 265.991 295.771 275.729 282.366 285.468 268.962 304.229 265.991 317.634 275.729 331.038 285.468 334.009 304.229 324.271 317.634 Z" fill="#ffff55" fill-opacity="1" stroke="#333300" stroke-width="1.5" stroke-opacity="1" stroke-linejoin="round" stroke-linecap="round"/>
   <path id="Pfad-6" d="M312.135 308.817 C307.266 315.519 297.885 317.005 291.183 312.135 284.481 307.266 282.995 297.885 287.865 291.183 292.734 284.481 302.115 282.995 308.817 287.865 315.519 292.734 317.005 302.115 312.135 308.817 Z" fill="#ffff99" fill-opacity="1" stroke="#333300" stroke-width="1.5" stroke-opacity="1" stroke-linejoin="round" stroke-linecap="round"/>
   <g id="g2">
    <path id="Pfad-7" d="M282.812 333.865 C280.864 336.546 277.112 337.14 274.431 335.192 271.75 333.244 271.156 329.492 273.104 326.811 275.052 324.131 278.804 323.536 281.485 325.484 284.166 327.432 284.76 331.184 282.812 333.865 Z" fill="#ffff99" fill-opacity="1" stroke="#333300" stroke-width="1.25" stroke-opacity="1" stroke-linejoin="round" stroke-linecap="round"/>
    <path id="Pfad-8" d="M326.896 273.189 C324.948 275.869 321.196 276.464 318.515 274.516 315.834 272.568 315.24 268.816 317.188 266.135 319.136 263.454 322.888 262.86 325.569 264.808 328.25 266.756 328.844 270.508 326.896 273.189 Z" fill="#ffff99" fill-opacity="1" stroke="#333300" stroke-width="1.25" stroke-opacity="1" stroke-linejoin="round" stroke-linecap="round"/>
   </g>
  </g>
 </g>
</svg>
