<?xml version="1.0" encoding="UTF-8"?>
<svg width="598px" height="657px" viewBox="0 0 598 657" xmlns="http://www.w3.org/2000/svg" xmlns:xlink="http://www.w3.org/1999/xlink" version="1.1">
 <!-- Generated by Pixelmator Pro 2.0.6 -->
 <g id="group">
  <path id="Pfad" d="M423.488 202.462 C449.436 205.025 464.831 200.024 485.516 205.791 487.839 208.4 487.068 210.722 489.089 213.34 491.109 215.957 495.92 218.871 497.633 221.486 499.346 224.101 498.55 227.596 499.951 230.198 501.353 232.801 504.952 234.512 506.038 237.092 507.124 239.672 505.549 242.532 506.314 245.078 507.08 247.625 510.187 249.858 510.629 252.362 511.071 254.865 508.994 257.785 509.107 260.234 509.221 262.684 511.522 264.663 511.304 267.048 511.084 269.433 508.637 271.049 508.081 273.36 507.524 275.671 508.859 278.678 507.962 280.904 507.065 283.131 503.935 283.106 502.693 285.237 501.45 287.369 502.094 291.657 500.502 293.683 498.91 295.71 495.67 296.063 493.724 297.974 491.778 299.884 491.125 303.353 488.821 305.139 486.517 306.924 482.856 306.731 480.189 308.38 477.523 310.029 475.852 313.52 472.819 315.023 Z" fill="#cccccc" fill-opacity="1" stroke="none"/>
  <path id="Pfad-1" d="M466.575 283.813 C477.174 285.276 485.589 286.697 497.38 290.263 M465.326 273.827 C485.523 276.358 487.38 274.205 502.168 279.236 M463.036 262.591 C485.561 265.585 486.659 261.795 504.249 265.92 M459.081 251.98 C478.518 253.496 486.493 248.769 502.376 251.772 M452.004 240.329 C469.185 240.995 479.548 234.532 499.046 238.456 M445.136 227.845 C461.994 226.348 475.365 221.335 492.801 224.932 M435.977 214.945 C455.372 217.547 463.863 209.742 483.226 213.073 M484.892 300.25 C480.755 297.237 476.163 294.769 469.281 295.049" fill="none" stroke="none"/>
  <path id="Pfad-2" d="M279.591 264.703 C267.025 256.895 256.376 259.665 241.302 345.651 241.646 347.202 242.577 347.988 243.951 348.123 245.326 348.259 246.417 346.465 248.538 345.414 250.659 344.364 252.621 345.241 255.205 343.235 256.497 342.232 257.448 340.156 258.803 338.957 260.158 337.759 263.105 336.254 264.487 334.888 265.869 333.522 266.528 330.801 267.902 329.297 269.276 327.793 271.364 327.506 272.694 325.893 274.024 324.279 274.485 321.74 275.736 320.046 276.987 318.352 279.027 317.502 280.163 315.756 281.3 314.01 281.332 311.312 282.318 309.542 283.304 307.772 286.725 306.26 287.526 304.496 289.128 300.968 289.127 298.194 289.49 294.818 293.199 277.828 291.346 272.007 279.591 264.703 Z" fill="#aaaaaa" fill-opacity="1" stroke="none"/>
  <path id="Pfad-3" d="M285.598 276.364 C283.587 283.953 281.843 293.367 279.452 305.748 M270.011 321.002 C273.091 299.542 277.353 282.802 280.308 272.56 M259.195 332.373 C263.521 303.991 270.899 281.032 274.895 268.362 M249.215 340.198 C254.011 314.601 260.458 288.601 268.767 268.061" fill="none" stroke="none"/>
  <path id="Pfad-4" d="M348.162 332.452 C335.931 324.129 325.176 326.454 306.543 411.741 306.823 413.305 307.719 414.128 309.087 414.321 310.455 414.513 311.62 412.766 313.783 411.804 315.945 410.843 317.869 411.8 320.534 409.904 321.867 408.955 322.903 406.921 324.307 405.779 325.71 404.638 328.718 403.256 330.155 401.949 331.593 400.642 332.364 397.951 333.799 396.505 335.234 395.059 337.332 394.859 338.728 393.302 340.124 391.746 340.691 389.228 342.011 387.587 343.331 385.946 345.405 385.182 346.613 383.484 347.821 381.787 347.965 379.092 349.023 377.365 350.082 375.638 353.563 374.269 354.437 372.539 356.184 369.081 356.298 366.31 356.801 362.951 361.213 346.131 359.603 340.238 348.162 332.452 Z" fill="#aaaaaa" fill-opacity="1" stroke="none"/>
  <path id="Pfad-5" d="M353.679 344.352 C351.355 351.851 349.221 361.184 346.317 373.456 M336.251 388.304 C340.22 366.991 345.174 350.442 348.552 340.332 M324.972 399.217 C330.474 371.039 338.799 348.406 343.318 335.913 M314.675 406.621 C320.531 381.245 328.053 355.535 337.207 335.357" fill="none" stroke="none"/>
  <path id="Pfad-6" d="M170.697 112.698 C167.751 112.825 164.668 113.046 161.438 113.2 136.89 114.369 127.314 121.457 143.949 132.767 178.288 156.114 166.742 177.514 193.904 193.103 161.79 180.12 133.566 184.241 114.805 163.134 108.253 155.764 99.426 177.979 133.543 198.085 185.389 228.638 167.475 222.977 191.509 241.57 209.486 255.477 222.114 267.074 241.284 277.808 273.126 295.637 324.017 332.386 354.768 364.392 377.562 388.117 369.334 449.738 341.336 453.925 282.249 462.76 244.391 408.537 237.794 401.338 235.052 398.346 235.713 404.699 235.025 408.406 234.595 410.72 233.114 411.753 232.99 414.52 232.866 417.287 234.649 418.7 235.128 421.961 235.608 425.221 234.691 428.302 235.617 431.242 236.544 434.183 238.897 436.565 240.086 439.288 241.275 442.011 241.303 445.073 242.572 447.681 243.84 450.289 245.928 452.244 247.092 454.839 248.256 457.434 248.495 460.664 249.372 463.348 250.248 466.032 251.967 469.625 252.372 472.501 252.777 475.376 251.862 477.532 251.612 480.701 251.314 484.48 251.962 488.664 251.149 491.707 250.335 494.751 248.058 496.661 246.899 499.212 245.74 501.763 245.283 505.587 243.95 507.889 242.617 510.19 240.419 510.961 239.082 513.257 237.745 515.553 238.102 518.743 236.931 521.277 235.76 523.811 233.052 525.689 232.218 528.705 231.384 531.72 232.634 533.795 232.308 537.535 232.144 539.406 230.187 542.622 230.183 544.719 230.178 546.816 232.133 550.076 232.308 552.43 232.611 556.513 231.399 557.827 232.436 558.828 238.584 564.756 257.699 523.07 290.827 511.081 312.353 503.292 328.582 507.331 346.23 503.229 431.275 487.772 480.184 395.133 472.606 306.438 466.717 237.515 423.241 190.234 367.853 161.268 339.316 146.344 308.302 136.315 270.325 128.403 232.347 120.49 231.934 117.45 179.146 112.775 176.456 112.537 173.644 112.57 170.697 112.698 Z" fill="#cccccc" fill-opacity="1" stroke="none"/>
  <path id="Pfad-7" d="M171.527 222.956 C180.343 229.273 207.69 236.981 233.971 230.446 268.068 221.967 275.496 178.951 244.274 158.977" fill="none" stroke="none"/>
  <path id="Pfad-8" d="M355.074 364.783 C387.151 396.715 389.052 441.931 357.978 491.425" fill="none" stroke="none"/>
  <path id="Pfad-9" d="M296.79 481.991 C275.363 489.778 274.502 482.597 253.42 495.041 M301.015 484.758 C272.512 498.052 270.459 496.333 246.135 512.663 M303.929 491.458 C265.01 510.474 255.911 512.977 237.684 531.888 M305.969 498.449 C273.311 515.104 256.346 519.387 236.373 549.074 M296.353 478.059 C274.101 472.875 274.377 478.477 256.948 470.09 M301.015 471.359 C282.419 463.57 269.846 467.551 248.86 448.63 M303.929 464.66 C279.52 451.015 257.982 451.017 242.79 432.404 M305.969 457.669 C282.434 445.772 259.027 445.177 239.052 415.489" fill="none" stroke="none"/>
  <path id="Pfad-10" d="M283.853 265.511 C277.312 252.244 266.807 248.971 208.554 314.01 208.027 315.509 208.401 316.668 209.496 317.509 210.592 318.35 212.467 317.403 214.823 317.632 217.179 317.86 218.38 319.641 221.635 319.303 223.262 319.134 225.167 317.874 226.951 317.571 228.735 317.269 232.033 317.549 233.928 317.119 235.823 316.69 237.821 314.728 239.782 314.176 241.744 313.625 243.668 314.484 245.65 313.817 247.632 313.15 249.366 311.238 251.324 310.46 253.281 309.682 255.463 310.039 257.35 309.156 259.238 308.274 260.692 306.001 262.464 305.019 264.237 304.037 267.941 304.56 269.554 303.485 272.778 301.336 274.244 298.981 276.337 296.306 288.468 283.842 289.971 277.921 283.853 265.511 Z" fill="#cccccc" fill-opacity="1" stroke="none"/>
  <path id="Pfad-11" d="M282.788 278.584 C277.069 283.965 270.612 291.036 262.037 300.284 M245.958 308.247 C259.918 291.656 272.386 279.694 280.308 272.56 M230.765 312.189 C249.441 290.378 267.841 274.783 277.932 266.137 M218.154 313.56 C235.758 294.362 254.976 275.694 272.888 262.644" fill="none" stroke="none"/>
  <path id="Pfad-12" d="M349.036 341.367 C334.848 337.17 325.315 342.665 333.604 429.568 334.347 430.972 335.453 431.483 336.814 431.249 338.175 431.015 338.751 428.996 340.518 427.421 342.284 425.845 344.408 426.171 346.367 423.551 347.347 422.242 347.713 419.988 348.701 418.473 349.689 416.958 352.131 414.725 353.101 413.042 354.071 411.359 353.985 408.56 354.91 406.746 355.835 404.931 357.772 404.101 358.626 402.193 359.48 400.284 359.251 397.714 360.008 395.749 360.764 393.783 362.506 392.423 363.138 390.438 363.77 388.453 363.085 385.843 363.566 383.876 364.047 381.908 366.944 379.542 367.248 377.629 367.856 373.803 367.119 371.128 366.573 367.777 365.64 350.413 362.309 345.292 349.036 341.367 Z" fill="#cccccc" fill-opacity="1" stroke="none"/>
  <path id="Pfad-13" d="M357.922 351.017 C357.998 358.867 358.815 368.406 359.796 380.978 M354.741 398.188 C352.016 376.681 351.682 359.41 351.812 348.752 M347.332 412.02 C343.97 383.509 344.989 359.416 345.479 346.14 M339.785 422.212 C337.616 396.26 336.932 369.482 339.491 347.474" fill="none" stroke="none"/>
  <path id="Pfad-14" d="M188.283 136.715 C191.758 131.673 200.309 132.476 205.422 135.847 210.679 139.312 212.841 146.362 209.251 151.533 205.57 156.835 197.771 155.207 192.542 151.422 187.742 147.945 184.919 141.594 188.283 136.715 Z" fill="#eeeeee" fill-opacity="1" stroke="none"/>
  <path id="Pfad-15" d="M198.794 143.112 C199.608 143.63 201.155 143.423 201.811 142.645 202.459 141.876 199.955 140.683 201.76 139.627 203.327 138.711 205.628 141.715 205.559 143.529 205.462 146.045 202.403 148.393 199.887 148.522 196.993 148.67 193.615 146.259 192.81 143.477 192.185 141.318 193.305 138.148 195.36 137.235 196.808 136.591 199.741 137.265 199.835 138.847 199.967 141.094 198.584 139.796 197.961 140.356 197.247 140.997 197.984 142.597 198.794 143.112 Z" fill="#000000" fill-opacity="1" stroke="none"/>
  <path id="Pfad-16" d="M444.04 268.285 C446.884 268.607 449.116 272.58 449.406 275.651 449.705 278.809 447.797 281.462 444.872 281.121 441.873 280.77 440.161 276.931 439.986 273.709 439.826 270.75 441.287 267.973 444.04 268.285 Z M441.147 244.146 C443.989 243.795 447.086 247.137 448.086 250.055 449.113 253.056 447.878 256.082 444.954 256.433 441.956 256.792 439.395 253.459 438.473 250.366 437.626 247.527 438.398 244.485 441.147 244.146 Z M416.946 233.442 C419.752 232.872 423.099 235.965 424.321 238.797 425.578 241.71 424.58 244.822 421.692 245.398 418.731 245.988 415.92 242.863 414.761 239.851 413.697 237.085 414.231 233.993 416.947 233.442 Z M417.929 211.709 C420.595 210.665 424.424 213.135 426.116 215.715 427.855 218.368 427.408 221.605 424.662 222.669 421.846 223.761 418.539 221.166 416.879 218.398 415.355 215.857 415.349 212.719 417.929 211.709 Z M389.275 207.016 C391.611 205.362 395.922 206.838 398.185 208.936 400.511 211.092 400.855 214.342 398.446 216.036 395.976 217.772 392.142 216.049 389.865 213.762 387.774 211.662 387.014 208.617 389.275 207.016 Z M381.975 185.158 C384.26 183.434 388.613 184.782 390.938 186.811 393.327 188.897 393.769 192.135 391.411 193.9 388.994 195.709 385.11 194.101 382.766 191.883 380.613 189.846 379.762 186.826 381.975 185.158 Z M352.704 190.535 C354.55 188.347 359.094 188.695 361.81 190.158 364.603 191.662 365.752 194.721 363.844 196.965 361.889 199.266 357.745 198.56 354.967 196.917 352.417 195.408 350.917 192.652 352.704 190.535 Z M346.524 170.018 C348.371 167.831 352.914 168.179 355.631 169.642 358.423 171.146 359.572 174.205 357.665 176.449 355.709 178.749 351.565 178.043 348.788 176.4 346.237 174.892 344.737 172.136 346.524 170.018 Z" fill="#aaaaaa" fill-opacity="1" stroke="none"/>
 </g>
</svg>
