<?xml version="1.0" encoding="UTF-8"?>
<svg width="598px" height="657px" viewBox="0 0 598 657" xmlns="http://www.w3.org/2000/svg" xmlns:xlink="http://www.w3.org/1999/xlink" version="1.1">
 <!-- Generated by Pixelmator Pro 2.0.6 -->
 <g id="moon">
  <path id="Pfad" d="M500 300 C500 410.457 410.457 500 300 500 189.543 500 100 410.457 100 300 100 189.543 189.543 100 300 100 410.457 100 500 189.543 500 300 Z" fill="#f2f2f2" fill-opacity="1" stroke="none"/>
  <path id="Pfad-1" d="M326.724 496.768 C365.173 490.308 388.879 481.348 415.027 463.394 429.29 453.601 461.57 419.945 470.363 405.7 485.022 381.952 489.452 370.811 498.188 335.72 501.959 320.572 502.681 285.771 499.583 268.468 496.065 248.823 486.217 219.697 479.9 210.26 476.543 205.247 473.797 200.751 473.797 200.271 473.797 196.543 457.604 175.068 445.014 162.097 425.481 141.974 416.432 134.719 398.62 124.902 350.574 98.421 286.943 92.506 236.437 109.825 196.562 123.498 164.601 147.124 136.416 183.761 122.297 202.113 112.976 220.882 106.495 244.009 98.85 271.287 97.835 279.582 98.765 307.196 99.518 329.53 100.399 335.745 105.167 352.34 110.932 372.404 127.415 405.881 138.525 420.094 149.262 433.827 165.35 449.438 168.765 449.438 170.697 449.438 173.004 451.285 174.094 453.702 178.129 462.657 220.6 485.806 245.4 492.566 257.689 495.916 266.745 497.141 281.279 497.42 291.972 497.625 301.25 498.328 301.899 498.983 303.513 500.615 304.167 500.557 326.723 496.767 Z M293.417 488.351 C288.172 487.173 289.885 482.679 295.579 482.679 298.863 482.679 300.77 483.575 300.77 485.116 300.77 487.965 297.702 489.314 293.417 488.351 Z M220.413 475.846 C219.769 474.793 217.089 473.931 214.456 473.931 211.638 473.931 208.061 472.202 205.762 469.727 202.278 465.977 202.159 465.349 204.665 463.931 206.313 462.999 207.039 461.191 206.421 459.561 205.022 455.876 199.154 454.423 197.996 457.475 196.791 460.651 192.456 458.865 185.085 452.156 166.481 435.222 165.203 430.955 178.82 431.263 183.559 431.37 190.658 432.338 194.595 433.415 200.453 435.016 202.742 434.873 207.195 432.627 211.996 430.206 212.58 429.127 212.149 423.478 211.769 418.492 212.236 417.229 214.256 417.777 215.684 418.164 218.02 418.358 219.447 418.209 236.046 416.474 237.518 416.743 244.228 422.747 248.68 426.73 251.507 428.134 252.879 427.041 254 426.149 258.291 424.985 262.414 424.454 266.537 423.924 270.147 423.228 270.437 422.906 270.727 422.585 271.53 418.07 272.223 412.873 273.364 404.306 273.198 403.534 270.444 404.602 268.741 405.263 265.614 404.594 263.325 403.076 258.179 399.667 257.768 396.033 262.839 398.776 266.868 400.957 271.355 399.888 271.355 396.748 271.355 395.612 274.257 391.848 277.803 388.383 283.123 383.185 284.357 382.619 284.851 385.145 285.181 386.829 286.659 388.206 288.136 388.206 291.939 388.206 289.735 377.591 285.29 374.5 282.678 372.684 282.27 371.27 283.452 368.127 284.287 365.906 284.569 362.538 284.079 360.643 283.523 358.491 284.215 356.799 285.923 356.137 290.286 354.444 294.042 356.792 293.489 360.867 293.075 363.916 293.999 364.687 298.607 365.136 302.361 365.502 304.241 364.921 304.262 363.386 304.299 360.592 318.271 351.136 327.172 347.882 334.671 345.14 335.484 341.742 329.321 338.902 326.077 337.407 323.375 337.416 318.507 338.937 309.78 341.664 299.905 339.454 299.905 334.774 299.905 332.442 301.287 331.158 304.23 330.756 306.609 330.431 310.113 328.726 312.016 326.966 316.047 323.24 331.434 323.355 333.74 327.129 334.853 328.949 335.626 328.941 337.839 327.084 339.339 325.825 340.566 323.711 340.566 322.385 340.566 319.275 343.988 319.396 348.25 322.655 350.097 324.068 353.251 325.224 355.258 325.224 357.265 325.224 359.823 326.15 360.942 327.282 362.502 328.86 363.778 328.607 366.409 326.2 368.727 324.079 371.243 323.415 374.16 324.156 378.888 325.355 379.489 327.456 381.056 348.257 381.93 359.86 381.905 359.942 376.073 364.44 369.313 369.654 367.039 369.933 360.273 366.384 356.08 364.185 354.848 364.16 351.856 366.217 349.644 367.737 348.472 370.301 348.678 373.167 349.046 378.298 348.095 378.753 344.163 375.332 340.072 371.773 330.991 369.125 328.409 370.738 326.705 371.803 326.549 373.615 327.786 377.995 329.051 382.472 330.826 384.29 335.407 385.802 339.969 387.308 341.626 388.995 342.426 392.953 343.983 400.647 345.434 402.201 351.061 402.201 354.345 402.201 357.501 400.644 359.922 397.828 364.467 392.542 371.711 391.879 371.711 396.749 371.711 398.561 373.104 400.412 374.808 400.863 376.511 401.313 379.147 404.879 380.665 408.788 L383.426 415.894 377.789 421.936 C374.689 425.259 371.825 428.97 371.426 430.183 371.026 431.396 366.839 433.003 362.121 433.754 350.641 435.583 343.538 431.768 342.295 423.104 341.532 417.781 340.719 416.963 335.374 416.141 331.656 415.569 326.765 416.327 322.705 418.104 313.044 422.332 311.98 423.961 316.25 427.983 319.206 430.768 319.594 432.268 318.268 435.795 316.937 439.332 317.314 440.755 320.251 443.298 L323.876 446.437 318.076 448.375 C310.697 450.84 309.637 454.065 315.34 456.692 323.003 460.223 319.876 463.626 306.824 465.962 303.018 466.643 294.064 469.169 286.926 471.576 275.904 475.292 273.037 475.659 267.893 474.011 262.095 472.153 238.588 473.643 226.137 476.657 223.527 477.289 221.081 476.942 220.411 475.846 Z M250.592 462.663 C250.592 459.242 247.238 457.378 245.055 459.585 244.079 460.572 243.804 462.236 244.443 463.282 246.139 466.057 250.592 465.609 250.592 462.663 Z M231.559 430.194 C231.559 429.231 230.437 428.444 229.066 428.444 227.695 428.444 226.091 429.231 225.503 430.194 224.915 431.156 226.037 431.943 227.997 431.943 229.956 431.943 231.559 431.156 231.559 430.194 Z M332.638 411.637 C336.505 410.137 336.04 407.45 331.915 407.45 329.992 407.45 328.454 408.616 328.454 410.074 328.454 413.019 328.771 413.137 332.638 411.637 Z M311.318 395.701 C318.095 391.653 317.644 388.948 309.491 384.742 300.385 380.045 297.605 380.284 296.215 385.884 295.268 389.701 295.978 391.307 300.076 394.623 306.079 399.479 305.142 399.39 311.318 395.701 Z M288.658 395.203 C288.658 394.241 287.88 393.454 286.928 393.454 285.976 393.454 285.198 394.241 285.198 395.203 285.198 396.166 285.976 396.953 286.928 396.953 287.88 396.953 288.658 396.166 288.658 395.203 Z M334.223 359.466 C335.206 356.876 330.85 351.96 329.121 353.708 327.785 355.059 330.066 361.963 331.848 361.963 332.633 361.963 333.702 360.839 334.224 359.466 Z M326.998 451.358 C325.196 450.231 325.345 449.676 327.693 448.765 331.256 447.382 333.214 448.825 330.921 451.143 330.025 452.049 328.259 452.146 326.998 451.358 Z M414.057 437.114 C412.494 434.557 416.475 430.193 420.371 430.193 424.333 430.193 424.538 432.514 420.901 436.191 417.737 439.39 415.622 439.676 414.057 437.114 Z M161.679 420.133 C160.312 417.487 156.788 413.01 153.848 410.183 150.908 407.357 148.503 404.322 148.503 403.437 148.503 402.553 146.556 400.281 144.177 398.389 141.798 396.497 139.852 393.431 139.852 391.577 139.852 387.933 142.404 387.053 144.243 390.062 144.868 391.083 147.25 392.639 149.536 393.518 152.382 394.611 153.694 396.483 153.694 399.449 153.694 402.598 155.765 405.222 161.272 409.054 169.302 414.64 171.514 418.045 169.892 422.32 168.327 426.444 164.399 425.399 161.679 420.133 Z M395.906 419.736 C398.382 415.059 404.579 411.667 404.579 414.989 404.579 417.867 399.115 423.195 396.163 423.195 394.62 423.195 394.553 422.293 395.906 419.736 Z M432.661 410.62 C433.73 407.376 437.455 406.838 437.455 409.928 437.455 411.451 436.222 412.698 434.715 412.698 433.209 412.698 432.284 411.763 432.661 410.62 Z M442.646 403.316 C442.646 400.266 452.669 392.508 454.379 394.236 455.012 394.877 454.358 397.522 452.923 400.113 450.031 405.34 442.646 407.642 442.646 403.316 Z M166.909 402.736 C165.234 401.042 165.585 390.297 167.352 389.193 169.226 388.021 170.994 392.23 170.994 397.867 170.994 402.135 168.847 404.695 166.909 402.736 Z M196.774 400.93 C193.234 398.706 191.812 395.754 190.111 387.098 188.921 381.046 186.896 375.211 185.61 374.132 181.72 370.868 177.101 372.911 176.502 378.161 176.201 380.799 174.556 383.714 172.847 384.639 170.304 386.015 168.123 384.552 160.85 376.596 155.961 371.248 151.961 365.778 151.961 364.44 151.961 363.103 149.236 360.857 145.905 359.45 139.931 356.927 137.494 351.465 142.342 351.465 146.438 351.465 147.528 347.605 144.14 345.099 142.402 343.815 140.826 340.982 140.637 338.804 140.448 336.626 139.725 332.38 139.031 329.368 137.809 324.064 138.068 323.753 147.238 319.508 152.686 316.986 158.522 315.475 160.982 315.951 163.606 316.458 166.392 315.629 168.196 313.804 170.916 311.054 170.927 310.509 168.338 306.514 165.232 301.72 166.039 297.23 170.007 297.23 171.427 297.23 174.115 295.574 175.98 293.55 L179.371 289.87 181.989 294.989 C183.429 297.805 185.827 301.132 187.317 302.383 190.411 304.979 190.901 311.392 188.213 314.109 185.592 316.759 189.79 325.222 193.725 325.222 195.454 325.222 198.146 323.25 199.708 320.84 202.045 317.233 202.154 315.977 200.325 313.749 198.444 311.458 199.078 310.082 204.446 304.811 207.935 301.384 210.79 297.489 210.79 296.156 210.79 292.356 215.635 293.316 218.419 297.667 219.804 299.832 221.485 303.855 222.155 306.606 223.337 311.466 223.218 311.574 217.946 310.404 213.784 309.479 212.52 309.798 212.52 311.772 212.52 313.188 210.574 314.84 208.195 315.444 203.21 316.709 202.297 321.723 207.052 321.723 208.802 321.723 211.1 323.644 212.158 325.993 213.963 329.996 213.738 330.296 208.543 330.804 204.008 331.247 203.075 332.042 203.399 335.185 203.642 337.55 202.092 340.378 199.361 342.55 196.922 344.49 195.451 346.933 196.092 347.981 196.918 349.333 197.976 349.281 199.739 347.802 201.105 346.656 202.781 346.283 203.464 346.973 204.147 347.664 203.349 348.996 201.692 349.934 197.606 352.246 197.878 357.971 202.139 359.338 206.894 360.864 206.479 364.494 201.273 366.892 196.385 369.144 195.7 372.734 199.543 375.958 200.971 377.156 202.139 379.464 202.139 381.087 202.139 382.709 203.282 385.565 204.679 387.433 206.901 390.404 207.226 390.459 207.274 387.871 207.305 386.244 208.147 384.401 209.147 383.777 211.321 382.418 221.535 387.056 224.606 390.797 227.572 394.411 230.301 394.133 232.882 389.954 235.55 385.635 236.519 385.654 241.842 390.134 245.348 393.084 245.645 393.98 243.573 395.342 242.196 396.247 239.226 396.548 236.973 396.01 234.624 395.45 231.672 396.089 230.052 397.508 228.499 398.869 223.334 400.487 218.576 401.103 213.818 401.719 207.978 402.568 205.599 402.991 203.22 403.413 199.248 402.486 196.774 400.931 Z M208.195 397.244 C208.195 391.837 204.846 392.435 204.169 397.963 203.773 401.19 204.295 402.349 205.899 401.808 207.162 401.383 208.195 399.329 208.195 397.244 Z M175.861 371.146 C175.544 369.462 173.479 367.825 171.274 367.508 167.701 366.994 167.473 367.327 169.189 370.569 171.553 375.035 176.678 375.478 175.861 371.146 Z M192.51 358.646 C193.036 357.784 192.368 356.653 191.025 356.132 189.682 355.611 188.153 356.316 187.629 357.698 186.592 360.429 190.908 361.266 192.51 358.646 Z M188.296 330.47 C188.296 329.508 187.128 328.72 185.701 328.72 184.273 328.72 183.106 329.508 183.106 330.47 183.106 331.432 184.273 332.219 185.701 332.219 187.128 332.219 188.296 331.432 188.296 330.47 Z M179.645 393.398 C179.645 389.118 184.266 386.916 187.115 389.839 188.694 391.459 188.394 392.511 185.803 394.445 181.223 397.863 179.645 397.595 179.645 393.398 Z M383.385 392.452 C380.768 391.017 378.627 388.686 378.627 387.274 378.627 382.678 370.775 383.447 365.305 388.577 363.178 390.572 360.316 391.687 358.816 391.105 355.092 389.66 355.353 381.343 359.161 380.139 360.826 379.613 364.256 378.063 366.782 376.695 374.493 372.519 378.627 373.417 378.627 379.269 378.627 384.961 382.371 387.361 387.186 384.755 389.499 383.503 391.028 383.878 393.116 386.211 396.666 390.178 396.691 392.783 393.192 394.14 389.501 395.573 388.878 395.465 383.385 392.452 Z M247.451 391.594 C247.867 390.331 249.23 388.953 250.479 388.532 251.777 388.095 252.426 388.751 251.993 390.063 251.577 391.326 250.214 392.704 248.965 393.125 247.667 393.562 247.018 392.906 247.451 391.594 Z M265.294 386.455 C264.032 384.391 265.668 381.206 267.991 381.206 268.887 381.206 269.619 382.781 269.619 384.705 269.619 388.395 267.102 389.413 265.294 386.455 Z M128.169 382.716 C126.98 381.501 126.006 378.133 126.006 375.233 126.006 370.428 126.249 370.205 128.739 372.723 130.277 374.278 131.223 377.55 130.902 380.206 130.444 383.996 129.906 384.491 128.169 382.716 Z M390.738 376.833 C390.738 375.389 391.517 374.208 392.469 374.208 393.42 374.208 394.199 375.389 394.199 376.833 394.199 378.276 393.42 379.457 392.469 379.457 391.517 379.457 390.738 378.276 390.738 376.833 Z M214.389 373.188 C214.472 371.15 214.882 370.735 215.434 372.131 215.934 373.394 215.873 374.903 215.298 375.484 214.723 376.065 214.314 375.032 214.389 373.188 Z M205.601 355.362 C205.601 353.123 217.275 347.486 219.296 348.749 222.585 350.804 221.318 353.215 216.95 353.215 214.627 353.215 212.245 354.002 211.657 354.964 210.402 357.017 205.601 357.333 205.601 355.362 Z M260.129 342.077 C257.251 339.95 257.143 339.086 259.143 334.205 260.747 330.289 262.536 328.721 265.403 328.721 267.61 328.721 269.905 329.522 270.503 330.499 271.101 331.477 272.433 331.751 273.463 331.107 275.832 329.626 270.186 325.222 265.918 325.222 264.246 325.222 260.804 323.279 258.27 320.905 255.735 318.53 252.264 316.138 250.554 315.589 248.845 315.041 247.01 313.441 246.476 312.034 245.304 308.947 238.248 308.657 235.361 311.576 233.746 313.209 233.285 312.626 233.285 308.952 233.285 306.354 234.063 304.228 235.015 304.228 235.967 304.228 236.75 302.457 236.756 300.292 236.762 298.127 237.93 294.1 239.351 291.344 242.527 285.188 242.531 284.983 239.464 284.983 234.008 284.983 231.19 279.544 232.404 271.357 233.954 260.911 234.909 258.741 237.961 258.741 242.263 258.741 250.321 251.918 250.917 247.771 251.464 243.97 251.605 244.005 256.396 249.118 260.758 253.773 261.196 255.247 260.264 262.141 259.686 266.416 257.759 271.534 255.982 273.513 248.829 281.477 248.295 284.584 252.347 294.678 255.972 303.709 256.329 304.034 261.571 303.08 270.97 301.37 279.77 296.575 280.336 292.856 280.704 290.434 282.198 289.357 285.193 289.357 290.977 289.357 291.362 296.091 285.626 296.914 282.958 297.297 281.724 298.675 281.706 301.288 281.692 303.386 280.981 306.219 280.127 307.584 278.495 310.19 281.145 315.718 287.526 323.016 290.91 326.887 290.912 327.006 287.639 333.306 282.562 343.078 267.834 347.774 260.129 342.077 Z M213.316 319.857 C211.454 316.81 213.575 316.165 215.948 319.056 217.313 320.719 217.444 321.723 216.297 321.723 215.285 321.723 213.944 320.883 213.316 319.857 Z M331.911 317.495 C331.911 315.971 333.144 314.725 334.65 314.725 337.706 314.725 337.174 318.491 333.965 319.572 332.835 319.953 331.911 319.018 331.911 317.495 Z M133.812 312.947 C134.409 311.969 135.623 311.622 136.509 312.175 138.909 313.675 138.462 314.725 135.422 314.725 133.939 314.725 133.214 313.925 133.812 312.947 Z M154.558 300.729 C155.146 299.766 155.97 298.979 156.39 298.979 156.81 298.979 157.153 299.766 157.153 300.729 157.153 301.691 156.328 302.478 155.321 302.478 154.313 302.478 153.97 301.691 154.558 300.729 Z M199.545 274.486 C200.133 273.524 200.958 272.737 201.377 272.737 201.797 272.737 202.14 273.524 202.14 274.486 202.14 275.448 201.316 276.236 200.308 276.236 199.3 276.236 198.957 275.448 199.545 274.486 Z M209.061 256.116 C206.682 254.741 202.069 253.588 198.811 253.554 L192.886 253.492 196.648 249.443 C200.307 245.504 201.637 241.245 199.207 241.245 198.545 241.245 196.007 243.179 193.567 245.543 L189.13 249.841 182.226 245.933 C174.269 241.43 172.718 236.379 177.851 231.683 181.611 228.243 185.181 229.351 181.694 232.877 179.232 235.367 178.99 239.496 181.307 239.496 182.856 239.496 185.076 232.945 187.387 221.563 188.592 215.628 189.993 215.608 204.915 221.32 221.481 227.662 226.061 228.337 227.462 224.644 228.775 221.185 225.571 218.568 219.975 218.528 215.645 218.498 203.871 211.956 203.871 209.581 203.871 208.714 201.146 208.004 197.815 208.004 190.589 208.004 189.712 204.455 196.085 201.006 198.464 199.719 200.411 198.031 200.411 197.256 200.411 194.858 210.798 190.275 213.946 191.286 215.586 191.812 219.54 191.485 222.732 190.559 226.564 189.448 229.663 189.485 231.85 190.668 234.571 192.141 236.692 191.166 243.741 185.199 248.459 181.205 252.319 176.886 252.319 175.602 252.319 174.319 250.346 171.699 247.935 169.781 243.023 165.875 243.519 165.227 252.701 163.552 256.241 162.906 261.598 160.285 264.605 157.726 L270.072 153.075 273.152 156.921 C276.355 160.921 284.156 162.132 286.111 158.933 286.83 157.757 287.953 157.696 289.241 158.765 290.346 159.682 293.189 160.705 295.558 161.037 300.901 161.788 302.121 166.852 298.055 171.395 294.067 175.85 292.709 175.645 291.405 170.39 290.329 166.054 283.464 163.885 283.464 167.88 283.464 171.438 287.06 176.513 289.581 176.513 292.54 176.513 292.701 177.387 290.506 181.534 288.053 186.167 290.833 189.599 294.939 187.006 297.679 185.276 299.448 185.739 305.553 189.78 309.582 192.447 312.879 195.318 312.879 196.159 312.879 197.001 310.584 198.498 307.778 199.487 304.009 200.816 301.913 203.31 299.746 209.046 297.336 215.428 295.453 217.417 289.153 220.235 284.938 222.12 277.457 224.115 272.528 224.668 267.599 225.221 261.084 226.055 258.051 226.52 253.119 227.277 252.234 226.722 249.673 221.265 243.642 208.414 241.146 209.336 235.842 226.374 234.044 232.148 231.078 238.603 229.25 240.719 225.401 245.176 226.483 251.774 230.509 248.396 232.335 246.863 233.128 247.052 233.949 249.216 235.887 254.321 235.065 256.991 231.556 256.991 229.633 256.991 228.095 255.824 228.095 254.366 228.095 251.643 226.051 250.894 224.073 252.893 223.447 253.526 223.802 255.101 224.862 256.392 226.418 258.289 225.501 258.728 220.088 258.678 216.403 258.644 211.441 257.491 209.062 256.116 Z M205.601 227.249 C205.601 226.287 204.822 225.5 203.871 225.5 202.919 225.5 202.14 226.287 202.14 227.249 202.14 228.211 202.919 228.999 203.871 228.999 204.822 228.999 205.601 228.211 205.601 227.249 Z M247.127 206.255 C247.127 205.293 246.349 204.506 245.397 204.506 244.445 204.506 243.667 205.293 243.667 206.255 243.667 207.217 244.445 208.005 245.397 208.005 246.349 208.005 247.127 207.217 247.127 206.255 Z M231.555 204.506 C231.555 203.543 230.73 202.756 229.723 202.756 228.715 202.756 228.371 203.543 228.96 204.506 229.548 205.468 230.372 206.255 230.792 206.255 231.212 206.255 231.555 205.468 231.555 204.506 Z M219.908 201.609 C218.737 201.129 216.401 201.1 214.718 201.544 213.034 201.987 213.993 202.379 216.848 202.415 219.703 202.451 221.08 202.088 219.908 201.609 Z M264.098 195.627 C263.757 194.592 262.738 193.746 261.834 193.746 260.93 193.746 259.912 194.592 259.57 195.627 259.229 196.661 260.248 197.508 261.834 197.508 263.42 197.508 264.439 196.661 264.098 195.627 Z M235.015 241.307 C235.015 238.964 241.635 235.602 243.703 236.894 247.467 239.246 245.318 242.994 240.206 242.994 237.351 242.994 235.015 242.235 235.015 241.306 Z M366.745 184.664 C365.138 182.707 365.253 181.955 367.282 181.168 370.411 179.953 372.754 183.152 370.445 185.487 369.394 186.549 368.046 186.249 366.745 184.664 Z M310.708 154.426 C305.944 151.902 304.305 148.521 307.846 148.521 310.623 148.521 318.417 155.095 316.822 156.092 316.073 156.56 313.321 155.81 310.708 154.426 Z M332.776 148.932 C331.824 148.225 330.159 146.072 329.076 144.147 327.08 140.602 324.738 140.159 319.5 142.339 317.665 143.102 315.299 142.222 313.037 139.935 310.044 136.908 308.784 136.641 305.227 138.28 301.003 140.226 295.547 139.368 295.606 136.767 295.623 136.015 298.775 132.765 302.609 129.545 311.225 122.311 316.812 122.996 320.963 131.796 323.42 137.006 324.407 137.627 329.132 136.938 335.597 135.994 342.893 139.511 343.745 143.982 344.691 148.951 337.295 152.289 332.776 148.932 Z M268.756 120.528 C268.168 119.566 268.9 118.779 270.384 118.779 271.868 118.779 273.081 119.566 273.081 120.528 273.081 121.491 272.349 122.278 271.453 122.278 270.558 122.278 269.344 121.491 268.756 120.528 Z" fill="#f9f9f9" fill-opacity="1" stroke="none"/>
  <path id="Pfad-2" d="M279.436 491.064 C282.833 489.822 285.182 487.764 285.182 486.03 285.182 479.162 296.882 477.475 304.065 483.307 305.908 484.804 306.688 484.754 307.237 483.105 308.247 480.069 312.765 480.362 313.972 483.543 315.466 487.479 319.788 486.701 319.788 482.495 319.788 480.475 322.124 476.617 324.979 473.92 335.011 464.445 328.9 460.188 315.846 467.558 308.484 471.714 298.311 474.892 288.283 476.168 286.657 476.375 284.255 478.029 282.944 479.842 280.643 483.028 280.253 483.037 271.506 480.099 266.525 478.426 260.362 477.485 257.811 478.007 237.15 482.237 232.752 486.193 244.954 489.574 258.889 493.434 271.467 493.978 279.436 491.064 Z M351.372 482.905 C351.909 480.829 354.438 479.222 358.325 478.484 362.441 477.703 365.902 475.381 368.93 471.366 374.091 464.525 374.472 462.454 370.83 461.041 367.249 459.652 367.563 456.425 371.279 456.425 372.954 456.425 375.296 454.851 376.485 452.926 377.673 451.002 379.613 449.402 380.794 449.372 387.498 449.2 392.98 430.08 386.699 428.779 381.355 427.672 375.443 430.01 374.289 433.687 372.821 438.365 366.541 441.82 364.77 438.924 363.947 437.576 361.599 437.223 358.311 437.953 351.97 439.362 340.659 433.263 340.334 428.26 340.215 426.431 339.923 424.147 339.685 423.184 339.447 422.222 339.155 420.884 339.036 420.21 338.917 419.537 337.922 419.893 336.824 421.003 335.486 422.356 333.814 422.471 331.747 421.353 329.742 420.268 326.962 420.348 323.793 421.581 L318.922 423.478 324.112 425.712 C326.967 426.941 329.939 427.583 330.716 427.14 332.816 425.941 336.971 432.231 337.034 436.703 337.089 440.57 344.866 447.396 346.887 445.352 348.584 443.636 354.392 447.582 354.392 450.45 354.392 451.908 353.168 455.494 351.672 458.419 349.52 462.626 348.135 463.532 345.051 462.749 341.85 461.937 340.612 462.901 338.147 468.128 335.161 474.459 335.169 474.52 339.577 478.653 342.015 480.939 344.01 483.565 344.01 484.488 344.01 487.599 350.52 486.199 351.371 482.905 Z M398.832 431.604 C398.28 430.208 397.869 430.623 397.786 432.661 397.712 434.505 398.12 435.539 398.695 434.957 399.27 434.376 399.332 432.867 398.832 431.604 Z M200.404 423.534 C200.404 417.093 197.525 414.437 190.541 414.437 183.302 414.437 183.275 417.209 190.455 423.423 197.668 429.667 200.404 429.698 200.404 423.534 Z M257.365 414.145 L263.281 408.708 257.365 403.778 C252.346 399.597 250.397 399.003 244.527 399.868 237.897 400.845 231.805 403.94 236.511 403.94 237.853 403.94 238.312 405.189 237.693 407.161 236.989 409.405 238.366 411.792 242.236 415.034 245.29 417.592 248.612 419.662 249.619 419.634 250.625 419.606 254.11 417.136 257.365 414.145 Z M408.976 405.57 C409.605 404.542 411.264 404.146 412.664 404.689 416.656 406.238 421.474 402.711 424.671 395.898 426.283 392.464 429.429 388.951 431.663 388.092 436.267 386.322 436.929 382.637 433.203 379.51 429.855 376.7 426.664 378.89 427.983 383.093 428.701 385.379 428.209 386.445 426.439 386.445 424.64 386.445 423.877 384.698 423.954 380.759 424.082 374.23 426.192 370.951 431.598 368.872 433.887 367.992 435.865 365.277 436.565 362.056 437.912 355.857 442.642 354.755 442.648 360.639 442.648 364.262 443.479 364.591 453.029 364.769 458.737 364.876 463.407 364.433 463.407 363.786 463.407 363.139 461.071 360.863 458.216 358.729 451.788 353.923 451.166 349.166 457.165 350.689 459.524 351.287 463.575 350.552 466.583 348.979 469.895 347.247 472.259 346.868 472.928 347.962 474.882 351.158 476.88 349.771 482.353 341.417 485.652 336.38 487.582 331.405 487.274 328.733 486.821 324.817 485.869 324.279 478.556 323.804 469.686 323.228 469.423 322.862 468.209 309.415 467.761 304.449 468.569 302.473 472.338 299.317 L477.024 295.393 484.058 302.159 C489.105 307.014 491.099 310.36 491.118 314.007 491.135 316.802 491.879 320.263 492.776 321.698 496.097 327.01 498.858 320.275 499.474 305.357 499.967 293.41 499.562 290.498 497.124 288.452 494.577 286.315 493.91 286.336 492.202 288.602 491.116 290.044 488.827 290.933 487.115 290.578 485.404 290.223 482.893 290.865 481.535 292.005 479.529 293.688 478.699 293.141 477.108 289.088 473.854 280.797 472.619 278.827 471.005 279.35 470.157 279.626 469.707 282.475 470.005 285.682 470.402 289.95 469.738 291.826 467.528 292.684 463.405 294.283 456.629 285.704 456.548 278.781 456.493 274.115 457.069 273.472 461.244 273.532 465.388 273.592 466.003 272.927 466.003 268.377 466.003 261.167 460.689 260.206 457.913 266.913 455.964 271.621 455.837 271.667 455.192 267.915 454.82 265.75 453.886 263.979 453.117 263.979 451.434 263.979 447.773 268.28 445.307 273.154 442.72 278.268 440.071 276.341 439.909 269.227 439.833 265.86 439.165 261.726 438.426 260.043 437.39 257.681 437.893 256.981 440.626 256.981 446.589 256.981 446.495 253.931 440.32 246.992 436.429 242.621 433.984 237.744 433.147 232.684 431.887 225.064 431.912 225.014 436.52 225.905 440.307 226.637 441.471 225.984 442.833 222.362 444.11 218.966 444.98 218.404 446.532 219.973 448.084 221.543 447.845 223.249 445.519 227.231 443.354 230.937 442.807 234.209 443.619 238.586 445.197 247.091 449.77 246.705 453.683 237.736 458.059 227.707 461.677 228.499 461.677 239.486 461.677 248.039 461.793 248.233 466.868 248.233 472.603 248.233 473.479 246.355 469.356 242.895 467.65 241.464 466.84 238.455 467.157 234.732 467.556 230.049 466.833 228.401 463.645 226.725 461.157 225.417 458.515 221.289 456.694 215.867 455.079 211.056 450.462 202.79 446.433 197.497 438.339 186.864 436.017 180.755 438.945 177.794 440.366 176.358 439.281 174.365 434.839 170.251 430.892 166.596 428.802 163.076 428.802 160.085 428.802 157.568 428.038 155.51 427.104 155.51 426.171 155.51 424.918 153.541 424.321 151.136 423.724 148.73 422.65 146.762 421.934 146.762 421.219 146.762 417.643 144.71 413.988 142.202 408.129 138.182 406.639 137.862 401.379 139.494 396.779 140.921 394.042 140.764 389.404 138.805 381.297 135.38 378.624 135.607 378.624 139.724 378.624 143.875 386.117 149.22 392.322 149.493 398.748 149.776 398.941 154.641 392.638 157.462 388.755 159.2 387.307 161.132 386.923 165.085 386.52 169.249 385.671 170.273 382.949 169.877 379.617 169.392 379.626 169.489 383.198 172.501 385.238 174.221 387.402 177.306 388.007 179.357 388.704 181.716 391.049 183.477 394.396 184.154 400.416 185.372 400.408 189.305 394.38 190.198 391.91 190.565 388.975 189.094 386.257 186.129 383.917 183.576 381.046 181.805 379.878 182.194 377.063 183.131 376.1 190.401 378.473 192.801 379.505 193.844 380.35 195.919 380.35 197.41 380.35 199.606 377.615 200.207 365.975 200.569 351.88 201.007 351.527 200.916 347.864 195.906 345.133 192.172 343.147 191.056 340.482 191.761 337.71 192.494 337.07 193.669 337.813 196.661 338.542 199.596 337.92 200.827 335.367 201.502 333.484 202 331.178 204.445 330.241 206.935 328.174 212.433 320.98 212.716 315.186 207.527 313.13 205.686 310.099 204.447 308.451 204.775 305.24 205.413 304.73 206.177 298.995 218.929 295.599 226.48 294.718 227.239 289.356 227.239 284.655 227.239 283.454 227.935 283.454 230.656 283.454 233.726 282.58 233.968 274.834 233.04 269.113 232.355 265.337 232.743 263.607 234.194 261.483 235.977 260.804 235.86 259.931 233.56 259.292 231.864 256.868 230.738 253.86 230.738 248.076 230.738 247.197 233.73 252.408 235.679 254.363 236.411 256.913 238.944 258.075 241.309 259.237 243.674 261.92 245.861 264.037 246.168 266.841 246.575 267.887 247.914 267.887 251.094 267.887 253.496 268.649 256.9 269.579 258.658 270.843 261.047 270.405 262.969 267.849 266.255 265.967 268.674 264.426 271.781 264.426 273.159 264.426 274.537 262.425 276.586 259.978 277.714 253.777 280.57 254.995 285.848 261.855 285.848 266.303 285.848 266.941 285.27 266.444 281.692 265.875 277.604 266.034 277.556 275.96 278.807 281.512 279.507 287.366 280.786 288.969 281.651 290.572 282.516 293.589 283.224 295.674 283.224 298.953 283.224 299.326 283.924 298.439 288.41 297.874 291.263 294.606 297.635 291.175 302.57 285.107 311.3 284.221 315.659 289.398 311.315 293.136 308.177 296.074 310.864 294.975 316.417 294.456 319.043 294.483 322.943 295.036 325.082 296.378 330.268 302.97 328.688 309.506 321.613 312.759 318.092 315.93 316.464 319.538 316.464 322.44 316.464 325.437 315.411 326.198 314.122 329.139 309.143 333.852 308.084 340.794 310.841 344.471 312.301 347.479 314.461 347.479 315.641 347.479 316.821 348.656 318.773 350.094 319.98 352.211 321.756 354.204 321.596 360.56 319.142 367.3 316.539 369.194 316.433 373.95 318.393 380.541 321.108 383.685 324.749 383.76 329.752 383.79 331.768 385.373 334.842 387.276 336.584 389.179 338.325 390.736 340.782 390.736 342.042 390.736 346.349 385.142 361.068 381.57 366.161 L378.003 371.246 384.802 370.147 C394.546 368.572 399.388 370.246 399.388 375.189 399.388 377.435 400.724 380.028 402.358 380.953 404.975 382.434 405.047 383.164 402.962 387.103 400.97 390.867 400.967 392.025 402.942 394.431 404.232 396.003 405.116 399.573 404.905 402.364 404.526 407.393 406.778 409.166 408.976 405.569 Z M406.308 388.978 C406.308 384.315 413.102 370.736 415.446 370.713 417.86 370.689 418.935 376.128 416.92 378.165 415.842 379.255 414.96 381.894 414.96 384.028 414.96 390.209 413.113 393.444 409.584 393.444 407.226 393.444 406.308 392.193 406.308 388.979 Z M316.358 302.031 C316.418 296.481 318.701 292.211 322.088 291.316 327.625 289.852 329.08 292.656 325.954 298.768 323.188 304.177 316.31 306.516 316.358 302.031 Z M358.655 298.853 C358.027 297.827 357.93 296.567 358.437 296.054 359.677 294.8 363.052 297.009 363.052 299.073 363.052 301.309 360.064 301.159 358.655 298.853 Z M327.581 281.474 C326.89 280.344 327.104 278.633 328.055 277.67 329.209 276.504 330.204 276.606 331.041 277.975 331.732 279.105 331.518 280.817 330.567 281.779 329.413 282.945 328.418 282.844 327.581 281.474 Z M359.591 271.852 C357.253 269.003 357.812 268.647 362.045 270.29 363.55 270.874 364.782 272.055 364.782 272.914 364.782 275.334 361.978 274.76 359.591 271.852 Z M419.465 229.706 C418.197 226.364 419.753 223.285 422.001 224.69 424.059 225.977 424.114 232.488 422.066 232.488 421.217 232.488 420.046 231.236 419.465 229.706 Z M416.709 214.141 C414.481 211.427 415.43 206.246 418.154 206.246 420.958 206.246 423.7 210.974 422.591 213.897 421.249 217.434 419.472 217.508 416.709 214.141 Z M428.029 212.806 C426.613 208.146 425.542 192.008 426.484 189.526 427.929 185.718 432.263 189.804 432.263 194.974 432.263 197.199 433.042 201.091 433.993 203.622 435.161 206.728 435.142 209.324 433.933 211.608 431.894 215.46 429.013 216.044 428.029 212.806 Z M414.095 187.001 C414.683 186.039 415.897 185.252 416.792 185.252 417.688 185.252 418.421 186.039 418.421 187.001 418.421 187.963 417.207 188.751 415.723 188.751 414.239 188.751 413.507 187.963 414.095 187.001 Z M383.815 396.943 C383.815 395.98 382.601 395.193 381.118 395.193 379.634 395.193 378.901 395.98 379.489 396.943 380.078 397.905 381.292 398.692 382.187 398.692 383.083 398.692 383.815 397.905 383.815 396.943 Z M307.583 390.941 C309.223 388.943 308.938 388.061 306.169 386.563 302.242 384.438 299.809 386.66 301.419 390.903 302.643 394.127 304.956 394.142 307.583 390.941 Z M153.689 385.921 C153.689 383.707 154.533 381.043 155.565 380 156.913 378.637 156.495 377.43 154.083 375.713 152.236 374.399 150.189 371.61 149.535 369.515 148.88 367.42 145.849 364.215 142.798 362.393 135.922 358.287 131.486 344.99 135.062 339.202 136.856 336.296 136.517 334.485 132.935 327.854 130.59 323.514 128.222 319.964 127.671 319.964 127.121 319.964 125.242 323.237 123.496 327.238 121.099 332.732 120.779 335.252 122.19 337.536 123.217 339.199 124.61 345.5 125.286 351.537 125.962 357.575 127.762 363.968 129.287 365.746 130.812 367.523 132.905 371.923 133.936 375.524 135.398 380.625 136.791 382.19 140.245 382.608 142.683 382.902 146.047 384.674 147.721 386.544 151.747 391.042 153.689 390.839 153.689 385.92 Z M119.23 370.235 C117.262 364.236 115.149 355.392 114.533 350.581 113.917 345.77 112.692 340.413 111.811 338.678 108.942 333.022 109.663 299.128 112.973 284.1 114.668 276.402 116.983 268.923 118.118 267.479 119.322 265.947 120.096 259.762 119.977 252.609 119.827 243.483 120.513 239.471 122.675 236.863 124.27 234.939 126.516 229.28 127.667 224.287 131.29 208.564 142.093 194.766 145.902 200.998 146.49 201.96 148.288 202.752 149.897 202.758 151.506 202.764 155.053 203.945 157.779 205.382 165.054 209.218 167.494 208.62 168.662 202.711 169.237 199.804 170.312 197.048 171.051 196.586 172.597 195.62 169.052 187.036 167.098 187.015 166.384 187.009 165.8 188.454 165.8 190.23 165.8 194.085 159.668 200.205 158.205 197.811 157.645 196.895 158.346 195.173 159.763 193.984 161.18 192.795 162.339 190.774 162.339 189.494 162.339 186.049 166.132 178.254 167.808 178.254 168.607 178.254 169.261 179.829 169.261 181.753 169.261 185.878 170.643 186.068 175.215 182.572 177.062 181.16 179.737 180.004 181.159 180.004 182.581 180.004 185.439 178.394 187.511 176.427 L191.276 172.85 192.332 179.428 C193.181 184.718 192.644 186.806 189.588 190.095 186.364 193.566 186.175 194.431 188.339 195.815 192.207 198.288 193.414 197.924 199.624 192.411 204.41 188.162 207.442 187.127 218.02 186.132 224.986 185.477 231.464 185.104 232.416 185.304 239.969 186.887 240.421 181.973 233.281 175.898 226.841 170.42 226.736 168.163 232.848 166.633 235.465 165.978 238.624 163.995 239.867 162.226 241.487 159.922 244.329 159.01 249.885 159.01 256.65 159.01 258.509 158.115 264.426 152.012 268.157 148.163 272.42 145.014 273.898 145.014 275.377 145.014 280.687 141.636 285.699 137.509 290.711 133.381 296.503 128.806 298.57 127.342 301.737 125.099 305.952 117.519 305.952 114.066 305.952 113.529 301.725 113.443 296.559 113.877 288.236 114.574 287.061 114.261 286.25 111.123 285.746 109.175 286.274 106.433 287.424 105.029 289.241 102.811 287.54 102.639 274.439 103.712 234.772 106.961 187.77 130.717 156.284 163.433 147.914 172.129 133.968 189.331 126.537 200.126 119.36 210.55 107.213 244.152 102.68 266.121 99.59 281.096 99.252 311.461 101.977 329.254 105.361 351.355 120.416 392.383 122.15 384.234 122.512 382.535 121.197 376.237 119.23 370.238 Z M158.879 168.516 C158.879 167.139 166.248 160.891 167.963 160.814 171.181 160.669 168.775 164.419 164.07 166.879 161.215 168.372 158.879 169.108 158.879 168.516 Z M226.36 153.654 C226.36 152.635 227.139 152.288 228.09 152.883 229.042 153.477 229.821 154.311 229.821 154.736 229.821 155.16 229.042 155.507 228.09 155.507 227.139 155.507 226.36 154.673 226.36 153.654 Z M233.481 134.188 C227.072 127.273 226.73 124.451 232.055 122.404 234.235 121.566 237.062 119.61 238.337 118.056 239.612 116.503 244.969 113.964 250.242 112.414 258.274 110.053 261.323 109.935 269.046 111.682 276.724 113.419 278.452 114.523 279.386 118.288 280.003 120.773 279.742 124.035 278.806 125.536 276.05 129.954 262.957 135.743 253.398 136.77 248.52 137.294 243.252 138.232 241.692 138.855 239.794 139.612 237.078 138.068 233.481 134.188 Z M245.393 377.702 C247.426 374.815 250.498 372.454 252.22 372.454 256.515 372.454 259.534 376.575 258.146 380.542 257.514 382.348 259.058 380.838 261.577 377.187 264.095 373.536 266.156 369.403 266.156 368.002 266.156 366.5 267.813 365.455 270.194 365.455 275.111 365.455 276.598 364.15 275.368 360.91 273.937 357.138 269.428 357.985 264.251 363.001 260.905 366.242 258.52 367.211 255.935 366.382 252.836 365.387 252.46 364.272 253.344 358.685 254.619 350.624 250.281 338.769 246.581 340.203 243.62 341.353 241.211 333.992 243.719 331.457 246.635 328.508 245.546 326.965 240.548 326.965 237.883 326.965 234.795 326.046 233.684 324.923 231.167 322.379 230.172 324.705 229.07 335.713 228.016 346.242 225.421 356.259 222.975 359.239 221.846 360.615 221.208 365.718 221.506 370.989 222.003 379.764 222.336 380.371 227.225 381.421 238.316 383.803 241.564 383.138 245.393 377.701 Z M484.171 373.775 C484.171 372.799 483.023 372.988 481.576 374.203 480.148 375.401 478.98 377.168 478.98 378.131 478.98 379.106 480.128 378.917 481.576 377.702 483.003 376.504 484.171 374.737 484.171 373.775 Z M337.098 375.953 C337.098 374.99 335.494 374.203 333.535 374.203 331.576 374.203 330.454 374.99 331.042 375.953 331.63 376.915 333.233 377.702 334.604 377.702 335.976 377.702 337.098 376.915 337.098 375.953 Z M279.871 354.239 C281.256 352.552 281.323 351.412 280.082 350.637 277.666 349.127 274.808 351.051 274.808 354.187 274.808 357.399 277.256 357.425 279.871 354.239 Z M314.172 347.523 C313.775 346.32 312.412 345.336 311.144 345.336 309.875 345.336 308.512 346.32 308.116 347.523 307.687 348.824 308.913 349.71 311.144 349.71 313.374 349.71 314.6 348.824 314.172 347.523 Z M130.416 300.127 C125.817 296.726 127.543 289.578 133.227 288.489 135.77 288.002 139.599 285.342 141.736 282.58 143.873 279.817 148.03 276.539 150.973 275.296 153.916 274.053 158.652 270.822 161.497 268.116 164.342 265.41 167.351 263.406 168.184 263.663 169.017 263.92 171.132 262.818 172.885 261.214 174.637 259.611 178.044 258.299 180.454 258.299 186.789 258.299 185.855 254.597 177.916 248.239 169.633 241.605 169.374 238.635 175.902 225.114 178.558 219.612 179.903 215.708 178.891 216.439 174.377 219.696 163.36 222.454 162.712 220.488 162.351 219.393 159.868 218.497 157.194 218.497 154.469 218.497 151.895 217.343 151.336 215.872 149.483 210.99 146.771 213.21 146.771 219.608 146.771 224.145 145.531 227.13 142.445 230.022 137.222 234.916 136.929 239.608 141.58 243.864 146.623 248.479 145.94 254.351 139.85 258.735 136.995 260.791 134.659 263.746 134.659 265.302 134.659 266.859 133.234 269.757 131.493 271.744 129.751 273.73 127.415 278.596 126.302 282.557 124.13 290.284 123.514 315.115 125.447 317.068 126.09 317.718 128.147 314.672 130.019 310.299 133.238 302.78 133.26 302.228 130.416 300.126 Z M480.71 314.72 C480.71 313.758 479.543 312.971 478.115 312.971 476.688 312.971 475.52 313.758 475.52 314.72 475.52 315.683 476.688 316.47 478.115 316.47 479.543 316.47 480.71 315.683 480.71 314.72 Z M474.971 303.895 C474.419 302.5 474.009 302.914 473.926 304.952 473.852 306.797 474.26 307.83 474.835 307.248 475.41 306.667 475.471 305.158 474.972 303.895 Z M201.553 301.64 C203.56 300.219 205.68 297.127 206.265 294.77 207.573 289.502 211.838 288.329 218.199 291.486 221.314 293.032 223.382 295.728 224.052 299.118 225.259 305.216 228.9 304.996 229.074 298.814 229.139 296.497 229.792 293.262 230.524 291.625 231.425 289.612 230.406 286.727 227.378 282.712 224.915 279.447 222.877 276.063 222.849 275.191 222.821 274.32 220.385 270.923 217.436 267.643 213.115 262.836 210.474 261.523 203.826 260.877 196.58 260.173 195.435 260.526 194.414 263.78 193.775 265.817 191.903 267.484 190.254 267.484 188.605 267.484 186.305 268.445 185.143 269.62 183.981 270.795 181.308 271.779 179.204 271.807 176.861 271.838 175.133 273.134 174.744 275.152 174.212 277.914 174.839 278.261 178.626 277.301 182.315 276.365 183.497 276.939 185.073 280.437 L187.003 284.72 190.852 280.038 C192.969 277.463 195.623 273.585 196.749 271.42 200.858 263.523 205.597 267.53 205.597 278.903 205.597 283.585 204.633 285.255 200.879 287.074 195.785 289.543 192.301 296.831 194.033 301.394 195.361 304.894 196.888 304.944 201.554 301.64 Z M269.058 294.424 C270.243 291.304 266.689 288.238 262.696 288.935 261.268 289.184 259.852 291.152 259.547 293.307 259.096 296.504 259.823 297.225 263.495 297.225 266.025 297.225 268.461 295.999 269.058 294.425 Z M274.808 284.001 C274.808 281.114 272.073 280.626 270.482 283.229 269.071 285.538 271.14 288.814 273.197 287.528 274.083 286.975 274.808 285.387 274.808 284.001 Z M497.235 283.077 C497.874 282.031 497.498 280.266 496.399 279.155 494.889 277.628 494.003 277.772 492.77 279.745 491.873 281.18 491.126 282.945 491.112 283.667 491.07 285.687 495.925 285.22 497.235 283.077 Z M492.071 250.725 C490.767 245.471 489.149 245.369 486.075 250.346 484.293 253.232 484.212 254.378 485.755 254.898 486.89 255.281 488.748 256.617 489.884 257.867 491.57 259.723 492.058 259.664 492.536 257.551 492.859 256.126 492.649 253.054 492.071 250.725 Z M242.79 251.155 C242.79 246.594 239.397 246.881 238.751 251.495 238.355 254.328 238.899 255.382 240.482 254.849 241.751 254.421 242.79 252.759 242.79 251.155 Z M245.386 226.098 C245.386 222.484 240.548 223.308 238.445 227.28 235.726 232.418 238.091 235.126 242.097 231.461 243.905 229.806 245.385 227.392 245.385 226.098 Z M338.116 185.359 C342.019 175.497 347.877 172.006 355.985 174.712 367.886 178.683 379.406 173.939 369.237 169.254 363.951 166.818 363.311 162.511 368.236 162.511 372.3 162.511 372.715 160.296 369.204 157.349 367.833 156.199 366.47 153.15 366.176 150.574 365.396 143.757 359.891 144.457 355.957 151.874 351.963 159.404 349.649 160.847 344.65 158.925 342.222 157.992 340.267 158.062 339.629 159.106 338.555 160.864 327.477 166.011 324.768 166.011 323.932 166.011 323.249 165.026 323.248 163.824 323.248 162.427 320.47 161.577 315.561 161.471 308.721 161.324 307.654 161.841 305.886 166.156 304.794 168.824 302.413 172.366 300.597 174.028 295.874 178.35 296.495 181.225 302.918 184.769 312.707 190.17 318.687 191.983 327.156 192.12 335.166 192.25 335.462 192.067 338.117 185.359 Z M354.845 127.982 C356.671 126.311 359.458 124.933 361.037 124.92 364.993 124.888 365.131 113.841 361.202 111.715 358.424 110.212 342.441 106.935 329.737 105.264 323.011 104.379 321.817 105.968 324.299 112.507 325.594 115.92 331.9 116.194 331.9 112.838 331.9 109.272 337.321 107.759 340.084 110.553 341.986 112.476 342.052 113.87 340.415 117.504 337.887 123.113 339.25 127.108 344.406 129.202 350.058 131.497 351.143 131.37 354.846 127.982 Z M382.078 119.82 C375.623 116.37 366.84 114.481 369.373 117.088 370.475 118.222 373.979 119.771 377.16 120.532 385.704 122.574 386.905 122.401 382.078 119.82 Z M312.867 103.903 C305.716 101.118 299.025 100.625 299.025 102.882 299.025 105.286 302.488 106.25 311.137 106.256 L318.923 106.262 Z" fill="#ffffff" fill-opacity="1" stroke="none"/>
 </g>
 <g id="falcon">
  <path id="body" d="M278.832 154.037 C282.806 151.037 289.78 151.338 295.833 151.304 299.464 151.284 307.823 152.251 313.344 154.266 328.066 159.639 333.359 170.845 332.719 181.885 332.26 189.793 330.807 193.641 331.293 203.631 346.779 198.455 348.579 186.624 358.506 178.682 373.203 166.924 399.833 194.271 414.906 215.428 419.059 221.257 421.188 228.213 413.482 221.693 422.827 252.892 484.387 344.717 483.721 356.648 483.511 360.406 479.831 356.909 477.334 354.004 477.217 358.345 482.419 362.461 480.566 364.264 476.711 368.013 467.746 354.15 467.746 354.15 467.552 356.408 470.293 360.814 468.816 361.012 464.327 361.619 461.711 353.622 459.059 349.166 458.854 351.301 460.462 354.215 459.059 355.434 454.031 359.866 449.225 345.344 445.244 339.195 445.028 342.948 446.066 345.5 443.523 347.113 438.039 350.905 434.302 338.882 430.574 333.072 430.367 334.729 430.62 337.564 429.008 337.771 422.06 338.666 417.043 324.383 417.043 324.383 416.314 326.022 415.55 326.972 413.91 326.662 407.264 325.404 402.354 311.558 398.527 304.904 397.877 306.64 396.37 306.672 394.436 306.418 389.103 305.717 380.239 289.162 378.018 284.219 361.582 275.186 355.56 278.494 339.953 295.836 313.757 353.603 376.033 417.673 358.617 414.377 346.099 412.008 344.784 407.485 339.664 400.648 338.093 411.525 354.867 431.41 343.504 429.285 332.536 427.234 326.834 419.774 322.77 412.057 318.992 424.343 334.102 443.012 322.803 439.719 316.383 437.848 309.764 431.276 307.066 422.297 306.818 438.073 306.405 445.779 300 445.779 293.595 445.779 293.182 438.073 292.934 422.297 290.236 431.276 283.617 437.848 277.197 439.719 265.898 443.012 281.008 424.343 277.23 412.057 273.166 419.774 267.464 427.234 256.496 429.285 245.133 431.41 261.907 411.525 260.336 400.648 255.216 407.485 253.901 412.008 241.383 414.377 223.967 417.673 286.243 353.603 260.047 295.836 244.44 278.494 238.418 275.186 221.982 284.219 219.761 289.162 210.897 305.717 205.564 306.418 203.63 306.672 202.123 306.64 201.473 304.904 197.646 311.558 192.736 325.404 186.09 326.662 184.45 326.972 183.686 326.022 182.957 324.383 182.957 324.383 177.94 338.666 170.992 337.771 169.38 337.564 169.633 334.729 169.426 333.072 165.698 338.882 161.961 350.905 156.477 347.113 153.934 345.5 154.972 342.948 154.756 339.195 150.775 345.344 145.969 359.866 140.941 355.434 139.538 354.215 141.146 351.301 140.941 349.166 138.289 353.622 135.673 361.619 131.184 361.012 129.707 360.814 132.448 356.408 132.254 354.15 132.254 354.15 123.289 368.013 119.434 364.264 117.581 362.461 122.783 358.345 122.666 354.004 120.169 356.909 116.489 360.406 116.279 356.648 115.613 344.717 177.173 252.892 186.518 221.693 178.812 228.213 180.941 221.257 185.094 215.428 200.167 194.271 226.797 166.924 241.494 178.682 252.364 187.378 253.498 200.734 273.518 204.912 274.911 201.257 276.871 195.911 277.596 192.596 279.726 182.848 275.247 176.781 274.527 175.916 273.829 175.079 272.764 172.353 266.137 169.887" fill="#0088ee" fill-opacity="1" stroke="#0052af" stroke-width="1" stroke-opacity="1" stroke-linejoin="round" stroke-linecap="round"/>
  <path id="feathers" d="M292.934 422.297 C296.081 397.645 296.103 367.432 294.75 346.375 M277.23 412.057 C285.198 395.203 285.118 363.186 286.125 341.875 M260.336 400.648 C267.542 389.522 276.774 356.37 278.275 336.396 M221.982 284.219 C227.085 275.869 230.95 259.122 240.206 242.994 M186.518 221.693 C196.887 211.796 207.256 201.898 217.625 192 M201.473 304.904 C209.205 293.242 218.379 266.724 235.015 241.307 M182.957 324.383 C197.888 297.922 210.348 265.326 229.871 235.454 M169.426 333.072 C172.971 326.486 201.874 262.925 225.925 230.572 M154.756 339.195 C158.4 331.964 202.59 247.916 223.849 224.544 M140.941 349.166 C143.349 344.607 200.381 244.059 221.968 216.254 M132.254 354.15 C136.441 348.11 181.538 259.706 221.039 207.831 M122.666 354.004 C126.033 350.279 194.742 216.515 219.908 201.608" fill="none" stroke="#0052af" stroke-width="1" stroke-opacity="1" stroke-linejoin="round" stroke-linecap="round"/>
  <g id="beak">
   <path id="Pfad-3" d="M285.65 175.314 C284.306 174.884 283.966 174.52 283.294 174.018 281.825 172.922 280.323 171.862 278.687 171.036 277.121 170.245 274.813 171.007 273.065 170.86 270.273 170.624 268.783 170.812 266.137 169.887 263.757 169.054 262.642 167.93 260.971 166.04 260.463 165.466 260.118 164.554 260.164 163.399 264.845 162.536 272.616 164.078 278.158 166.793 281.72 168.538 286.214 173.181 285.65 175.314 Z" fill="#007ade" fill-opacity="1" stroke="#0052af" stroke-width="1" stroke-opacity="1" stroke-linejoin="round" stroke-linecap="round"/>
   <path id="Pfad-4" d="M257.5 172.563 C257.308 169.335 256.245 166.3 258.188 162.25 259.236 160.063 261.176 158.105 264.188 156.313 266.54 154.912 269.443 154.744 271.875 154.5 273.569 153.658 276.888 153.41 278.832 154.037 280.43 157.025 280.371 160.575 279.5 163.188 282.519 164.667 285.194 170.116 285.65 175.314 284.079 173.563 282.253 170.665 280.375 169.25 276.579 166.39 273.16 165.465 269.969 164.75 268.392 164.397 264.391 164.328 262.938 165.375 261.779 165.105 260.196 165.042 259.531 166.313 258.448 168.385 257.896 170.302 257.5 172.563 Z" fill="#007ade" fill-opacity="1" stroke="#0052af" stroke-width="1" stroke-opacity="1" stroke-linejoin="round" stroke-linecap="round"/>
   <path id="Pfad-5" d="M275.009 159.057 C274.977 159.602 274.724 160.163 274.913 160.686 275.068 161.112 275.779 161.151 276.167 161.002 276.804 160.758 276.81 159.93 276.851 159.345 276.897 158.689 276.995 158.02 276.889 157.367 276.778 156.677 276.321 155.993 275.659 155.707 275.113 155.471 274.256 155.682 274.439 156.472 274.623 157.263 275.064 158.109 275.009 159.057 Z" fill="#0052af" fill-opacity="1" stroke="none"/>
  </g>
  <g id="eye">
   <path id="Pfad-6" d="M287.036 159.076 C287.06 161.09 289.859 164.422 293.282 164.462 296.713 164.43 299.512 160.982 299.562 158.975 299.471 156.88 296.669 157.348 293.238 157.381 289.801 157.488 287.019 156.989 287.036 159.076 Z" fill="#ffffff" fill-opacity="1" stroke="#0052af" stroke-width="1" stroke-opacity="1" stroke-linejoin="round" stroke-linecap="round"/>
   <path id="Pfad-7" d="M290.246 160.512 C290.09 162.049 291.153 163.419 292.625 163.578 294.1 163.711 295.41 162.576 295.558 161.037 295.715 159.5 294.652 158.129 293.18 157.971 291.705 157.838 290.394 158.973 290.246 160.512 Z" fill="#003377" fill-opacity="1" stroke="none"/>
   <path id="Pfad-8" d="M293.108 159.454 C293.772 159.519 294.384 160.102 294.304 160.913 294.224 161.725 293.509 162.175 292.845 162.11 292.033 162.029 291.42 161.447 291.501 160.636 291.581 159.824 292.296 159.373 293.108 159.454 Z" fill="#000000" fill-opacity="1" stroke="none"/>
   <path id="Pfad-9" d="M292.333 159.005 C292.775 159.048 293.174 159.535 293.123 160.051 293.065 160.641 292.585 160.967 292.143 160.923 291.553 160.864 291.146 160.452 291.205 159.861 291.256 159.345 291.742 158.946 292.333 159.005 Z" fill="#ffffff" fill-opacity="1" stroke="none"/>
  </g>
 </g>
</svg>
