<?xml version="1.0" encoding="UTF-8"?>
<svg width="598px" height="657px" viewBox="0 0 598 657" xmlns="http://www.w3.org/2000/svg" xmlns:xlink="http://www.w3.org/1999/xlink" version="1.1">
 <!-- Generated by Pixelmator Pro 2.0.6 -->
 <g id="group">
  <path id="Pfad" d="M208.4 467.3 C208.4 467.3 208.2 469.6 207.4 470.7 206.1 472.8 204 475.4 201.6 476.2 198.6 477.8 195.7 476.8 192.9 476.5 190.8 475 187.7 471.7 187.7 471.7 187.7 471.7 184.2 477.2 181.1 478.5 178.1 479.9 174 480 170.6 479 166.8 478.1 163.6 474.9 162.2 471.7 161.4 469.3 162.3 465.4 162.3 465.4 162.3 465.4 158.3 466.7 156.4 466.4 153.5 466.7 150.7 465.8 149.2 463.9 146.6 460.7 146.1 457.8 147 453.8 147.4 452.1 150.4 449.5 150.4 449.5 150.4 449.5 148.5 446.9 148.1 445.8 147.3 443.4 148.7 440.6 148.7 440.6 148.7 438.3 151.9 435.9 154.9 436.1 162.3 435.8 165.8 441 173.6 442.9 188.9 445.3 203.6 439.5 215.2 429.9 218.9 426.3 221.9 422 224.2 417 226.3 413.3 227 407 227.1 402.3 226.1 394.7 221.7 388.4 219.7 380.1 219 376.5 218.4 367.2 218.4 367.2 218.4 367.2 213.4 370.1 212.5 372.3 211.7 374.6 212.2 379.2 211.5 382 210.5 384.3 208.7 385.6 206.3 386 203.9 387.5 201 386 198.7 387.6 196.8 388.3 194.6 392.2 194.6 392.2 194.6 392.2 193.9 388.1 194.7 386.5 196.3 382.5 201.2 380.8 202.1 377.4 202.4 374 200.3 372.6 199.5 369.6 198.7 367.3 198.9 365.5 199 363.8 200.1 359.8 206.5 355.4 206.5 355.4 206.5 355.4 205.3 354.7 204.3 354 203.2 353.3 199.6 354 199.6 354 207.9 342.7 211.7 340.5 225.2 343.7 225.2 343.7 225.6 339.7 226.6 336.3 227.5 333.5 228.5 330.2 231 328.2 232.8 327.3 235.9 325.2 235.9 325.2 235.9 325.2 238.1 322 238.9 320.4 240.4 316.6 243 314 246.7 312.6 250.5 310.2 253.9 310 258.6 310.5 273.2 312.9 287.4 315.6 302.4 310.5 L310.3 387.8 C300 385.4 288.5 385.7 279 382.9 275.6 382 269.2 377.3 266 374.4 266 374.4 266.4 382 264.6 387.7 262.2 392 258.3 397.4 259.8 402.7 260.8 405 263.4 407.2 266 409.8 268.1 412.4 269.4 416 269.5 419.4 269.8 421.7 269.4 425.2 267.6 426.1 260.1 430.4 252.2 433.7 249.9 439.1 247.6 448.7 248.5 456.3 239.3 461.1 240.4 456.5 239.5 453.5 237.6 449.9 236.6 458.3 234.5 461.7 228.8 466.7 228.8 461.6 228.7 457.5 227.5 453.3 225.3 462.3 222.8 467.8 214.3 470.9 216.6 466.5 217.1 462.5 215.3 457.7 212.6 461.5 213.1 466.7 208.4 467.3 Z" fill="#ffcc00" fill-opacity="1" stroke="#cc0000" stroke-width="1" stroke-opacity="1" stroke-linejoin="round" stroke-linecap="round"/>
  <path id="Pfad-1" d="M154 448.2 C155.7 447.9 157.4 448.5 159.7 448.3 161.4 449 162.9 449.9 164.9 449.4 167.1 449.7 171.3 448.5 171.3 448.5 169.9 450.6 165.7 450.8 164.7 450.6 162.9 451 161.3 450.2 159 449.9 157.3 449.2 155.6 448.4 153.9 448.7 153.3 448.7 152.1 449.2 151.5 449 151 449.6 150.4 449.5 150.4 449.5 L148.3 447 C148.3 447 149.7 448.9 151.1 448 151.7 447.9 152.9 448.1 154 448.2 Z M176.8 455.5 C176.8 455.5 176.1 456.6 175.5 457.1 174.3 457.5 173.7 458.2 172.3 459 171.2 459.5 168.8 459.2 167.7 459.6 166.5 460.1 165.3 461.1 164 461.5 164 462 163.1 463.2 163 464.3 162.3 465.4 162.3 465.9 162.3 465.9 L157.7 466.6 C157.7 466.6 160.7 465.1 161.4 464.1 161.5 463.5 162.7 462.5 163.5 461 164.6 460.5 165.9 459.4 167.1 459 169 458.1 171.4 458.3 172.5 457.9 173.1 457.4 174.4 456.9 175 456.4 Z M196.2 457.9 C192.1 457.9 189.5 460.5 188.3 462.5 186.6 465.3 186.3 468.1 188.2 471.9 L186.9 472.9 C185.1 469.7 185.5 465.1 187.1 462.5 191.3 456 195.6 457.7 196.2 457.9 Z M207.2 463 C208.3 463.8 208.1 465 208.7 465.5 208.5 466.7 208.9 467.4 208.9 467.4 L207.9 467.8 C207.9 467.8 208 466.7 207.4 466 207.5 464.9 207.1 463.6 206.6 463 206.2 461.8 202.9 459.7 202.9 459.7 204.6 459.9 207.3 462.4 207.2 463 Z" fill="#cc0000" fill-opacity="1" stroke="none"/>
  <path id="Pfad-2" d="M218.1 360.2 C218.1 360.2 216.1 361.3 214.9 362.1 213.6 363.2 212.3 364.2 211.1 364.7 210.4 366.2 208.9 368.4 208.8 370.1 208.1 371.3 208.5 372.9 208.3 374.1 208.7 375.9 208.6 377.1 208.4 378.8 208.2 380.4 207.4 382.1 205.5 383.1 204.9 383.6 203.7 384 203.1 384 202 383.8 200.7 383.7 200.7 384.3 198.8 385.2 197.8 385 197.1 386.2 196.3 386.7 196.2 387.9 195.5 389.4 195.4 390.6 195.4 391.2 195.4 391.2 L194 391.6 C194 391.6 194.2 390.4 195 389.3 195.2 387.7 195.9 386 196.5 385.4 197.8 384.4 199 384 200.3 383.1 200.9 383.1 202.1 383.2 202.6 383.3 203.7 383.4 204.3 383.5 205 382.4 206.2 381.5 207 380.3 207.9 378.2 208 376.9 207.5 375.7 207.7 374 207.3 372.8 207.5 371.2 207.6 370 208.4 368.4 209.2 366.1 210.6 364 212 363 213 362.5 214.4 361.6 Z" fill="#cc0000" fill-opacity="1" stroke="none"/>
  <path id="Pfad-3" d="M203.9 471.5 C204.1 469.7 200.7 469.2 198.4 469.5 196.5 470.6 192.6 473.5 194.2 475.3 197.8 479.3 197.7 484.6 197.2 489.1 203.5 485.1 205.5 478.4 203.9 471.5 Z M163.6 468.9 C164.5 467.4 167.9 467.8 169.4 469.6 171.6 471.2 173.3 475.3 171 476.3 166 478.6 164.3 483.6 162.6 488 158.8 481.7 159.5 474.9 163.6 468.9 Z M148 453.9 C150 452.9 151.5 455.4 151.8 457.8 152.6 460.2 150.9 464.7 148.7 463.8 143.7 462.6 138.8 465 134.9 467.5 135.8 460 141 455.4 148 453.9 Z M151.8 437.6 C153.5 437.2 154.9 440.3 154.6 442.5 154.4 444.8 151.5 449 149.9 447.8 145.4 445 140.2 446.1 135.6 447.9 138.4 440.6 144.6 437.3 151.8 437.6 Z" fill="#ff9900" fill-opacity="1" stroke="#cc0000" stroke-width="1" stroke-opacity="1" stroke-linejoin="round" stroke-linecap="round"/>
  <path id="Pfad-4" d="M165.4 102.2 C160.2 98.12 151.4 100.2 146.8 106.1 145.8 101.2 142.5 98.62 138.9 97.92 131.9 96.02 122.7 101.8 125.2 110.8 125.9 113.3 130.8 115.1 130.3 117.6 130.3 117.6 129.9 120.3 129.8 121.6 129.9 122.8 130.2 124.5 130.2 124.5 130.2 124.5 125 121.8 123 122.2 110.6 124.8 113.2 143.9 125.4 144.4 127.6 144.5 129.7 144.7 132.1 144.6 135.2 144 140 145.4 140.4 147.1 140.7 147.6 140.8 148.7 141.1 149.4 148.9 154.1 148.8 161.4 142.3 164.3 151.4 166.6 153.6 166.6 162.1 163.9 L162.3 164.2 C160.6 169.2 158.5 173.8 154.5 176.4 162 179.4 171.1 172.6 177.4 171.9 178 175.3 177.7 178.8 179 181.8 180.1 184.5 181.7 187 184.5 189.1 185.5 184.1 186.8 181.3 192 179.5 188.2 190.7 188.8 197.7 196.2 207.2 195.5 199.4 199.5 201.6 204.8 192.9 202.8 202.8 201.5 211.7 210.7 218.8 210.8 214.3 211.2 210.2 214.8 207.2 214.4 216.8 215.5 224.7 224 230.7 223.9 225.5 224.3 221.5 228.9 218.2 228.7 227.6 230.9 234.6 239.2 239.9 236.8 232.5 242 232.4 242.5 224.8 242.5 224.8 251.5 243.4 256.5 247.7 263.6 254 274 265.4 274 265.4 L293.2 217.4 C274.2 203 269.2 187.8 249.8 174 218.6 169.9 187.3 150.1 167.1 125.4 166.7 122.7 166.1 116.8 167.4 114 168.4 111.9 169.9 109.9 168.9 107.4 168.1 105.2 167.1 103.4 165.4 102.2 Z" fill="#ffcc00" fill-opacity="1" stroke="#cc0000" stroke-width="1" stroke-opacity="1" stroke-linejoin="round" stroke-linecap="round"/>
  <path id="Pfad-5" d="M130.5 124.1 C130.5 124.1 134.1 125.9 135.4 126.6 L143.7 129.6 C143.7 129.6 137.3 128.7 134.7 127.6 133.2 126.8 129.8 124.8 129.8 124.8 Z M147 106.2 C147 106.2 148.6 107.9 149.1 111.5 149.5 115.6 149.8 118.8 152.3 122.2 153.4 123.9 156.9 126.8 156.9 126.8 153.3 125 151.1 122.6 149.3 119.8 147.8 117.1 148.4 113.8 147.8 111.3 147.1 107.6 146.5 107.2 146.5 107.2 Z" fill="#cc0000" fill-opacity="1" stroke="none"/>
  <path id="Pfad-6" d="M121.9 125 C123.9 125.3 124.2 128.1 123.5 130.5 122.7 132.7 119.2 136.1 117.7 134.5 114 130.7 108.7 130.7 103.9 131.3 108 125.3 114.9 123.1 121.9 125 Z M136.7 99.02 C138.5 100.2 137.5 103 135.7 104.7 134.1 106.3 129.6 107.8 128.9 105.9 127.2 100.9 122.6 98.22 117.8 96.92 124.4 93.22 131.3 94.52 136.7 99.02 Z M165.6 105.7 C165.8 107.8 162.8 108.8 160.5 108.4 158 108.2 154.2 105.5 155.5 103.7 158.2 99.32 157.3 94.02 155.9 89.5 162.5 92.22 165.8 98.62 165.6 105.7 Z" fill="#ff9900" fill-opacity="1" stroke="#cc0000" stroke-width="1" stroke-opacity="1" stroke-linejoin="round" stroke-linecap="round"/>
  <path id="groin" d="M294.9 317.6 L305.2 335.6 C305.2 335.6 301.8 346.1 296.7 348.9 296.5 341.4 290.7 332.5 287.5 325.5 286.3 322.2 292.2 319.3 294.9 317.6 Z" fill="#ffcc00" fill-opacity="1" stroke="#cc0000" stroke-width="1" stroke-opacity="1" stroke-linejoin="round" stroke-linecap="round"/>
  <path id="Pfad-7" d="M423.1 446.4 C419.7 445.7 417.5 444.7 414.5 445.2 409.6 443.7 404.5 442.5 400.5 439.3 392.2 434.1 386.9 425.4 382.7 417.5 376.7 406.9 373.8 392.7 369 382.3 365.4 374.6 361.3 368.3 358.1 361.3 355.4 357.1 350 352 350 352 350 352 353.8 362.1 354.3 368.1 355.2 375.4 355.6 381.4 355.4 388.3 355.5 395.9 353.6 405 354.5 412.1 356.3 420.1 359.4 427.8 363.6 435.7 366.9 440.6 371.2 445 375.6 448.8 379 452.5 384.5 457.1 384.5 457.1 386.3 459.3 389.3 459.3 391.4 461 398.6 465.3 400.9 471.2 399.7 476.8 397 472.7 393.4 473.1 389 474.6 398.4 480.6 401.3 486 399.4 497.9 397.1 489.7 389 491.5 383.9 488.2 388.9 498.5 396.6 500.7 397.5 507.4 399.2 510.1 399.6 513.8 396.2 521.7 395.1 518.6 394.4 516.8 393.1 514.7 389.9 512.3 385.9 512.5 382.3 507.1 382.3 507.1 381.4 511.2 382.6 513.7 384.5 516.5 385.1 516.5 387.3 519.4 389 522.1 390.8 525.4 391.4 528.4 392.3 535.1 388.6 544.9 388.6 544.9 388.6 544.9 386.3 541 384.9 539.5 382.8 537.8 379.2 538.8 376.5 537.2 374.5 536.1 371.8 531.9 371.8 531.9 371.8 531.9 371.8 535 372 536.8 371.8 537.9 368.9 540.8 368.9 540.8 368.9 540.8 375.2 540.9 377.9 545.1 380.8 547.9 381.1 552.1 379.2 555.2 376.5 560 371.4 561.8 365.1 558.6 362.7 558.8 359.5 557.1 359.5 557.1 359.5 557.1 360.1 560 359.1 561.7 358.9 563.4 357.9 564.9 356.2 566.9 353.9 570 349.7 570.2 346.3 570.1 342.8 569.3 339.5 568.6 337.9 564.9 336.9 564.1 335.4 560.2 335.4 560.2 335.4 560.2 331.6 564.8 329.1 564.9 324.4 565 320.1 563 317.9 560.1 316 557.3 315.5 554.3 315.5 551.4 315.4 548.9 316.9 547.1 317.3 545.3 317.3 545.3 315.3 544.4 313.6 543.9 312 542.9 311.2 541 310 538.5 309.3 536 309.4 533.1 310.7 529.8 313.1 526.2 315.7 525.1 319.7 525.9 322.5 525.8 326.1 528.8 327.9 531.1 331.1 533.5 335.2 533.2 338.9 532.1 342.3 532.8 344.9 528.7 347.9 525.8 353.3 516.4 354.3 503.1 354 493.6 353.9 482.5 354.3 469.6 354.3 469.6 354.3 469.6 344.7 462.3 340.2 458.4 334 451.4 321.3 436.3 321.3 436.3 324.2 441.7 325.5 444.9 325.4 447.9 325.9 453.8 322.3 457.1 320.6 462 320.1 464.3 320.4 465.5 320.8 466.8 316.5 464.7 316.9 463 316.2 460.6 315.2 456.8 316.6 453 314.2 450.2 313.8 455.3 311.6 457.9 307.3 461 307.3 461 308.9 456.1 306.5 453.2 304.3 450.5 300.4 449 298.9 445.7 295.8 442.7 294.5 438.3 297.8 433.3 297.8 433.3 293.1 430.5 292.2 426.9 290.6 422.9 292 419.1 293.2 415.8 295.8 411.7 301.3 405.8 301.3 405.8 301.3 405.8 290.5 390.1 287.3 379.3 285.7 373.2 285.3 366.7 286 360.4 287.1 355.2 288.7 350.3 290.8 346.1 294 342 300.6 335.7 300.6 335.7 300.6 335.7 295.7 322.5 292 317.6 288.9 312.8 286 309.3 282.1 306.1 277.6 302.7 272 301.1 267.2 298.3 260.9 294.7 256.8 292 252.2 286.4 248.7 283.2 247.9 281.5 242.2 274.3 238 268.6 216.3 236 224.6 224.4 228.4 219 238.7 207.5 241.8 201.1 247.1 186.6 264 170.1 264 170.1 L291.7 170.3 C334.2 175.5 341 171.6 341.1 194 335.1 236.1 337 286.9 348.8 315.1 356.5 333.8 370 352 377 371.6 379.3 377.5 381.8 382.6 384.7 389 387.2 396.1 389.4 404.8 392.8 411.4 396.8 417.5 400.4 425.2 406.8 428.3 406.8 428.3 413.3 431.4 418 431.9 421.9 432.7 426.5 432.4 429.5 429.6 435.3 424.9 435.4 420.3 436.6 415.9 437.4 406.3 429.9 397 423.5 387 420.8 382.9 417.6 377.1 415.5 373.3 400.5 344.3 384.6 314.9 375 283.6 372 273.8 371.1 264.1 372.3 254.7 375.2 234 387.1 221.3 398.2 204.8 403.9 195.1 402.3 183.9 390.3 181.4 396.3 175.9 404.1 175 409.9 177.6 415.2 179.7 418 183.3 419.5 187.5 422.5 196.6 417 208.5 411.5 217.9 415.5 217.4 419.6 216.1 422.3 214.3 429 208.2 428.8 198.1 431.9 189 435.3 178.8 443.3 171.7 454.2 170.4 459.6 169.7 468.7 171.6 473 176 475.7 178.6 476.4 181.6 476.5 185.6 476.1 191.4 472.6 196.8 472.2 202.6 472.6 206 474.4 209.7 474.4 209.7 474.2 210 465.2 209.5 461 202.8 459.2 199.6 458.5 192.5 458.5 192.5 457 194.4 456 195.3 456.4 197.5 454.3 207.3 457.6 215.7 448.5 226.1 443.6 231.9 434.8 233.4 424.3 233.9 419.1 233.9 417.6 236.6 417.2 237.6 434.7 236.8 447.5 249.9 446.1 262.3 444.7 273.5 433.9 280.3 422.8 278.8 432.8 269.2 430.1 257.6 417.6 253.5 409.3 250.9 401.9 252.4 397.1 255.9 391.7 260.6 388.7 269.4 388.7 278.6 389 286.8 394.7 302.2 394.7 302.2 398.5 292.5 410.9 301.9 409.8 284.8 419.5 297.5 412.4 305.6 408.4 315.8 418.3 317.4 422.5 312.9 424.4 303.7 432.4 319.2 423.2 324.9 419 336.8 427.2 336.4 430.2 333.9 434.3 327 439.7 337.8 432.5 344.9 424.9 352.9 431.3 351.1 439.8 355.8 442.5 364.4 436.4 361.3 433.9 361.5 431.6 362.4 429.4 364.7 427.5 366.3 428.3 369.2 430.1 376.7 434.4 381.5 437.9 386.7 444.5 395 450.1 402.2 449 417.3 448.4 425 448.1 431.1 439.9 438.7 449.4 438.4 453.1 443.3 454.7 447.1 454.6 450 452.7 453.2 452.2 456 452 457.1 454.5 461.7 454.5 461.7 450.6 460.9 447.5 459.1 447.3 453.8 446.7 454.3 445.8 455.2 445.7 455.8 447.3 460.2 449 463.5 449.1 467.7 449 471.2 448.4 474 444.4 476.7 441 478.9 436.7 476.9 431.4 476.9 428.9 478.1 427.2 480.1 425.7 482.2 424.8 477.8 426.2 475.9 428.6 474 431 470.9 433.1 471.4 435.4 468.9 437.6 467 438 464.8 435.2 459.4 432.6 465.4 427.1 466 423.4 464.7 419.7 462.7 417.5 459.3 417.4 454 419.8 456.9 422.4 458 424.9 457.4 426.9 455.9 429.1 454.2 427 450.1 426.1 448.7 424.1 447.2 423.1 446.4 Z" fill="#ffcc00" fill-opacity="1" stroke="#cc0000" stroke-width="1" stroke-opacity="1" stroke-linejoin="round" stroke-linecap="round"/>
  <path id="Pfad-8" d="M450 182.5 C453.4 183.5 457.2 186.4 458.5 191.1 458.9 191.5 458.7 191.7 458.6 192.1 458.5 192.4 458.4 192.7 458.8 192.9 L457.6 192.8 C457.7 192.7 457.9 192.4 457.9 192.1 458 191.9 457.6 191.4 457.6 191.4 455.7 185.2 451.1 182.9 445.7 182.6 440.2 182.3 435.4 184.8 432.6 188.7 432.3 189.6 431.9 190.6 431.4 191.5 430.8 191.4 431.7 189.2 431.5 188.1 435.1 184.2 439.8 181.5 445.5 181.6 447.2 181.7 448.4 182 450 182.5 Z M467.2 172.1 C469.3 173.1 470.6 174.8 472.3 178.1 473.4 181.3 473.8 185 471.9 188.3 471.8 185.2 473.8 183.7 471.7 179.4 470.5 176.3 467.4 172.9 465.5 172 Z M458.1 171.6 C458.1 171.6 459.2 171.9 459.8 172 463.2 173 465.7 174.5 466.7 178 467.8 179.9 467.9 182.9 467.5 185.4 467.6 188.1 466.3 192.4 467.4 194.7 L468.5 202.9 C466.6 199.7 466.2 195.8 465.8 192.4 466 190.6 467 188.1 466.8 185.3 467.3 182.9 467.4 181.1 466.1 179.3 464.6 175.8 462.3 173.8 458.9 172.8 455.5 171.8 451.8 171.7 448.7 172.1 L448.4 171.3 C451 171.2 454.1 171.1 456.4 171.4 456.9 171.4 457.5 171.6 458.1 171.6 Z M451.8 175.1 C454.7 175.5 457.8 176.9 460.1 179.2 460.9 180.1 461.4 182.1 461.4 183.4 L461.9 186.9 C461.4 185.2 460.8 183.6 460.6 182.4 460.4 181.4 460 180.6 459.1 179.8 457 177.3 452.5 176.3 448.9 176.5 444.4 176.3 439.9 178.4 436.4 180.9 L437.2 178.9 C440.8 176.4 445 175 449.3 175 450.5 175 451.1 175 451.8 175.1 Z M451 183.3 L452 183.8 C452 183.8 449.4 185.4 447.8 187.9 445.7 190.1 444.4 193.1 443.5 195.3 441.7 198.2 441.5 201.7 441.9 205.6 442.3 209.3 442.4 213.2 440.7 216.3 439.8 218.6 438.7 219.7 437 220.6 435.6 221.5 435.2 222.3 433.5 223.4 429.8 224.7 423.2 225.5 418.5 226.8 413.1 227.8 408.2 228.9 405.2 230.3 402.9 231.3 401.5 233.5 399.6 234.8 397.7 236.4 397.1 238 397.1 238 397.3 236 398.7 234.1 399.1 233 399.7 231.5 401.5 230.4 403.7 229.2 406.8 227.9 412.8 226.9 418.8 226 423.5 224.8 429 223.7 431.3 222.2 433.5 221.4 434.8 220.2 436.3 219.4 437.2 218.5 437.7 217.7 439 215.8 440.8 212.9 441.2 210.4 440.8 206.7 440.5 203 439.9 198.1 442 194.9 442.8 192.5 445.1 188.4 447.3 186.2 449.3 184 451 183.3 451 183.3 Z M441.4 182.4 L443.8 182.5 C443.8 182.5 440.5 184.3 439.7 186.2 437.8 188 436.5 189.6 436.4 191.5 434.8 194.2 434.8 198.4 434.6 202.1 434.4 205.8 434.1 209.6 432.7 212.7 431.1 217.1 427.3 218.6 424 220.9 420.4 222.1 416.3 222.7 412.3 223.4 407.8 223.9 403.9 224.6 400.9 225.8 397.8 227.3 395.3 230.5 392.9 233 391.7 234.4 391.8 235.7 391.4 236.7 390 240.3 390.3 234.8 392.4 232.6 394.2 229.8 396.7 225.5 400.3 224 403.3 222.6 408.2 222.7 411.7 221.9 416.1 221.5 420.6 221.4 423.6 220.2 426.9 218 429.4 216.1 431.7 212.3 432.8 209.5 433.1 205.8 432.8 201.9 433.6 198.3 433.4 193 435.3 190 436 188.1 437 187.4 438.5 185.4 439.6 183.5 441.4 182.4 441.4 182.4 Z M456 187.4 L456.5 188 C456.5 188 455.5 188.8 454.7 191 452.7 192.6 451.1 195 451.1 196.8 449.2 199.6 449.7 203.1 449 206.3 449.4 209.8 449.9 213.3 448.7 216.4 447.4 219.4 446 223.1 442.8 224.8 437.5 228.5 429.4 228.6 423.1 230.4 418.7 232.1 412.5 233.5 408.9 236.6 404.6 239.4 399.1 245.1 399.1 245.1 400.5 241.7 406.4 236.6 408.3 235 412.1 231.7 418.2 230.7 422.9 229.2 428.9 227 436.7 227.5 441.8 224 444.4 222.3 445.7 218.9 447 215.9 448.2 213 447.8 209.4 447.9 206 448 202.6 448.4 198.7 449.6 195.4 450.3 193.6 452.5 191.5 453.9 189.6 455.4 187.8 456 187.4 456 187.4 Z M402.4 180.6 C403.6 180.7 404.7 181.2 405.7 181.6 408.4 182.9 411.6 185.6 412.2 188.6 413.3 193.3 412.3 199.2 410 203.3 403.8 210.7 397.5 215.6 393.3 221.3 390.6 225 389 229.2 386.7 233.2 387.4 228.4 391 222.6 392.5 220.4 396.7 214.7 402.6 210.8 408.2 203.3 410.8 199.5 411.6 193.4 410.8 189 409.5 186.1 407.5 183.6 404.9 182.1 402.6 181.2 399.2 181 396.1 181 393 181 390.8 181.6 390.8 181.6 L390.6 180.7 C390.6 180.7 392.7 180.2 396.3 180.3 397.7 180.1 399.5 180.2 401.4 180.4 401.4 180.4 401.9 180.6 402.4 180.6 Z M411.8 217 L410.7 218.1 C406.2 218.4 402.3 218.9 400.2 221.5 399.3 222 397.7 222.8 397.2 224 398.1 221.8 399 221.3 399.9 220.6 402.8 217.9 407.3 217.5 411.8 217 Z M417.9 237.1 L418.3 237.8 C411.8 240 406.5 242.3 402.4 244.6 407.5 241.5 412.7 237.7 417.9 237.1 Z M420.6 244.5 C424 244.8 428.4 246.6 430.7 248.2 437.7 252.7 440.9 261.5 437.4 268.3 435.7 272.6 430.5 276.3 423.3 279 L423 278.3 C430.5 275 434.7 272.1 436.4 267.9 439.6 261.5 436.2 253.1 429.3 248.7 422.2 243.8 409.1 243.3 396.8 251 406.8 243.1 416.2 244.3 418.8 244.2 419.3 244.3 419.9 244.4 420.6 244.5 Z" fill="#cc0000" fill-opacity="1" stroke="none"/>
  <path id="Pfad-9" d="M308.4 317.8 C308.4 317.8 308.7 323.2 308.1 326.1 307.5 328.3 306.8 330.1 305.3 332.1 304.6 333 303.4 334.2 302.3 334.9 301.2 335.8 300.3 336.6 300.3 336.6 L299.8 335.8 C299.8 335.8 300.6 335.2 301.7 334.4 302.7 333.5 304 332.3 304.6 331.6 305.6 330.4 306.2 329.3 306.7 327.8 307 326.9 307.3 325.9 307.4 325.1 308 323.7 308.3 320.5 308.4 317.8 Z" fill="#cc0000" fill-opacity="1" stroke="none"/>
  <path id="Pfad-10" d="M304.6 420.6 C304.6 420.6 306 422 305.3 423.6 305 424.8 304.2 425.7 303.4 426.8 302.6 427.2 300.4 429.6 299.6 430.7 L298.4 433.9 C297.8 433.9 297.8 433.9 297.8 433.3 297.3 433.1 297.3 433.1 297.3 433.1 297.3 433.1 297.4 432.5 297.5 431.9 297.7 431.4 299 430.5 299.8 429.5 300.6 428.5 302.8 426 303 425.5 303 425.5 303.7 425 304.4 424.6 304.5 424 304.7 423.4 304.7 422.8 305.6 421.9 304.6 420.6 304.6 420.6 Z M301 421.1 C301 421.1 300.3 421.5 299.7 421.4 299 421.6 298.5 421.6 298.5 421.6 297.1 423 295.6 424.6 295.4 425.6 295.1 426.8 295 427.4 294.8 428.4 294.6 429 295.3 431.6 295.3 431.6 L293.8 430.1 C293.8 430.1 294 429.5 294.2 428.3 294.4 427.3 293.9 426.6 294.7 426.1 295.2 423.9 296.1 421.6 298.6 421.2 Z M308 432.4 C308 432.4 308.1 435.3 307.7 437.1 307.9 438.8 308.8 440.2 309.5 441.5 309.9 442.8 311.7 443.2 312.4 445.1 313.4 446.4 313.6 447.7 314.5 449 314.4 449.6 314.2 450.2 314.2 450.8 314.2 450.8 314 451.3 314 451.3 314 451.3 313.9 451.8 313.4 451.7 L313.7 450.6 C313.8 450 313.8 450 313.3 449.4 313.6 448.3 312.3 446.1 311.9 445 310.8 444.2 308.8 442.6 308.1 440.7 307.6 439.9 306.4 437.4 306.7 435.7 307.2 433.4 307.8 433.6 308 432.4 Z M303.9 438 C303.9 438 303.7 439.1 303.5 439.7 303.9 441 303.6 442 304 442.8 304.4 444 306.6 445 307.5 446.3 308.9 447.9 310.5 448.7 310.9 449.5 311.6 452 310.7 453.5 310.9 455.3 310.7 456.5 309.8 457.5 308.9 459 308.7 460.1 308.5 461.2 308.5 461.2 L307.5 460.4 C307.5 460.4 307.6 459.8 308.3 458.9 309.2 457.3 309.5 456.2 310.2 455.7 310.1 453.4 310.4 451.7 310.1 450.5 309.6 449.8 308.2 448.3 306.8 446.9 305.8 445.4 303.7 444.5 303.4 443.2 302.9 440.1 303.1 439 303.9 438 Z" fill="#cc0000" fill-opacity="1" stroke="none"/>
  <path id="Pfad-11" d="M442.7 454 C443.4 455.9 444.1 457.9 444.5 459.1 445.4 461 446.4 464.2 445.9 466.5 446 468.7 445.7 470.5 444.2 471.9 442.4 474.5 440.8 474.1 439 474.4 437.7 475.3 435.4 474.9 433.4 475.6 431.7 475.7 429.8 476 428.3 478 427.5 478.4 426.7 479.4 427.1 480.7 426.4 481.1 426.2 481.7 426.2 481.7 L425.7 481.7 C425.7 481.7 425.8 481.1 426.1 479.9 426.3 478.7 427.1 477.8 427.8 477.4 429.1 476.4 431.3 474.6 432.9 474.9 435.1 473.5 436.7 473.9 439.2 473.2 441 472.9 442.2 473.2 443.1 471.7 444.7 469.7 445 468 445.4 466.3 445.3 464 443.9 461.8 443.8 459.5 443.5 457.7 442.4 455.7 442.2 453.9 440.9 451.3 437.7 447.2 437.7 447.2 439.6 448.7 441.9 452 442.7 454 Z" fill="#cc0000" fill-opacity="1" stroke="none"/>
  <path id="Pfad-12" d="M333.6 540.5 C333.6 540.5 333.5 541.1 332.9 540.9 332.8 541.5 332.6 542 332.6 542 331.3 543 330.2 543.3 328.3 544 325.7 544.7 323.3 544.8 321.7 544.4 320.4 544.8 319.2 545.1 318.5 545.5 318.3 546.1 317.8 546 317.8 546 317.8 546 317.8 546 317.9 545.4 317.7 546.6 316.2 545.1 317.6 544.2 318.2 544.3 320.1 543.5 321.4 543.2 323.2 543 325.4 543.5 327.1 543.8 327.1 543.8 329.7 542.6 330.4 542.2 331.1 541.7 333.6 540.5 333.6 540.5 Z M358.9 546.3 C358.7 547.5 357.6 550.1 357.7 551.9 359.1 553.4 359.2 555.2 360.8 556.7 L359.7 558.8 C358.4 556.8 357.7 554.3 357 552.3 356.8 550.6 357.8 548.5 358.9 546.3 Z M347.2 545.7 C347.2 545.7 345.9 548.9 344.4 550.4 342.4 551.8 338.6 553.2 337.2 554.8 336.8 555.8 336.5 557.6 336.3 558.7 336 559.8 335.8 560.9 335.8 560.9 L334.7 560.6 C334.7 560.6 335 559.4 335.2 558.4 335.4 557.4 335.6 555.6 336.6 554.6 338.3 552 343.3 550.8 344.8 549.2 Z" fill="#cc0000" fill-opacity="1" stroke="none"/>
  <path id="Pfad-13" d="M380.6 550.5 C379.2 548.8 376.4 550.1 374.8 552 373.3 553.8 372.3 558.4 374.4 558.8 379.4 560.3 382.4 564.7 384.5 568.9 387.4 562.3 385.6 555.4 380.6 550.5 Z M341.2 564.7 C340.8 562.5 343.6 561.5 346 561.6 348.4 561.5 352.6 563.9 351.5 565.6 349.2 570.4 350.4 575.5 352.4 579.9 345.5 577.8 341.6 571.8 341.2 564.7 Z M319 552.7 C320.5 551.2 323 552.9 324.2 555.1 325.6 557.1 325.7 561.8 323.6 561.9 318.5 562.5 314.8 566.2 312.2 570.5 310.2 563.4 313.1 556.9 319 552.7 Z M312.3 526.4 C314.4 526.2 315.3 529 315 531.5 314.8 533.9 312.2 537.9 310.3 536.5 305.9 534 300.7 534.8 296.1 536.4 298.8 529.7 305.1 526.2 312.3 526.4 Z" fill="#ff9900" fill-opacity="1" stroke="#cc0000" stroke-width="1" stroke-opacity="1" stroke-linejoin="round" stroke-linecap="round"/>
  <path id="Pfad-14" d="M234.3 228.4 C225.8 251.7 204.2 261 198.4 264.3 191.1 268.9 163.8 275.6 159.7 264 159 261.7 159.7 258.9 159.3 256 158.8 253.4 158.3 251.1 156.2 249.7 146.9 243.8 138 253.1 138 262.6 134 259.6 130 259.3 126.8 260.9 120.1 263.9 116.6 274.1 124.2 279.8 126.2 281.2 131.1 279.5 132.2 281.9 132.2 281.9 133.6 284.2 134.5 285.1 135.2 286 136.7 287.6 136.7 287.6 136.7 287.6 130.8 288.7 129.5 290.1 121.5 299.9 136.4 313.4 146.4 306.7 148.1 304.8 148.9 303.5 150.8 301.8 153 299.6 161.1 297.5 161.1 297.5 157.3 304.7 160.2 306.6 159.7 308.9 159.8 310.1 158.7 312.1 157.1 313.5 166.6 312.3 170.8 309.1 174.7 300.1 175.6 305.3 176.3 309.3 174 314.4 174 314.4 181.4 312.5 184.5 308.8 187.9 306.5 192.6 297.4 192.6 297.4 194.7 301.7 194.2 305.1 192.1 310.3 200.1 305.8 204.7 302.5 205.8 293.5 206.2 291.8 208.2 290.8 208.2 290.8 207.9 297.9 214 296.7 210.8 304.2 219.8 299 220.7 297.8 225.7 284.4 229 288.6 229.6 291.9 227.5 296.5 231.3 295.1 239.4 290.5 237 281.7 241.9 283.6 242.8 286 243.3 289.1 245.8 287.1 248.4 281.9 245.2 272.3" fill="#ffcc00" fill-opacity="1" stroke="#cc0000" stroke-width="1" stroke-opacity="1" stroke-linejoin="round" stroke-linecap="round"/>
  <path id="Pfad-15" d="M277.5 242.6 C277.5 242.6 277.8 245.5 278 247.3 278.3 248.4 278.9 250.5 279.5 251.4 280 251.8 280.3 252.3 280.9 253 281.3 253.5 281.9 254 281.8 254.9 282.2 257.1 281.2 258.7 279.7 259.8 277.9 261 275.3 261.6 272.8 262.2 270.3 262.7 268 262.9 266.7 263.4 262.9 264.6 257.9 267.2 255.4 270.8 255.3 270.9 254 272.9 253.3 274.6 252.7 275.7 252.6 277 252.3 278.2 L252.3 280.4 252.3 281 251.7 280.9 C250.2 280.3 249 279.2 248 277.8 247.2 277 246.6 276 246 275.3 L245.3 273.7 245.2 272.2 246.1 273.5 C246.7 274.7 247.6 276.1 248.7 277.4 249.5 278.4 250.4 279.3 251.5 279.7 251.4 279.4 251.5 279.1 251.6 278.1 251.6 276.8 251.9 275.3 252.4 274.3 253.4 272.5 254.7 270.4 254.7 270.4 257.3 266.6 262.5 263.8 266.4 262.6 267.8 262.1 270.2 261.8 272.6 261.3 275.2 260.8 277.6 260.1 279.1 259.2 280.6 258.1 281.2 256.9 281 255.1 280.9 254.4 280.7 254 280.3 253.5 279.7 253 279.2 252.5 278.9 251.8 278 250.7 277.4 247.7 277.4 246.5 Z" fill="#cc0000" fill-opacity="1" stroke="none"/>
  <path id="Pfad-16" d="M137 287.3 C137 287.3 141.8 287.6 143.6 287.3 L154.4 286.4 C154.4 286.4 146.6 288 143.2 288.5 141.2 288.3 136.5 288.1 136.5 288.1 Z M138.1 262.1 C138.1 262.1 140.6 263 143.2 266.4 146.4 270.4 148.8 273.6 153.3 275.8 155.6 276.8 160.2 277.5 160.2 277.5 156.1 278.2 152.7 277 149.3 275 146.4 273.2 144.4 269.3 142.3 267 139.2 263.6 138.2 263.4 138.2 263.4 Z" fill="#cc0000" fill-opacity="1" stroke="none"/>
  <path id="Pfad-17" d="M129.2 293.7 C131 292.5 133.3 294.5 134.3 296.7 135.4 298.9 135.1 303.6 132.8 303.5 127.7 303.5 123.6 306.7 120.5 310.6 119.3 303.4 123.1 297.3 129.2 293.7 Z M125.6 262.7 C127.7 263 127.8 266.1 127 268.4 126.3 270.6 122.8 273.9 121.3 272.2 117.7 268.5 112.4 268.2 107.5 268.6 111.8 262.6 118.7 260.8 125.6 262.7 Z M151.2 250 C152.8 251.5 151.4 254.2 149.4 255.7 147.6 257.2 143 258.2 142.6 256 141.3 251 137 247.8 132.6 245.8 139.4 242.9 146.2 245.1 151.2 250 Z" fill="#ff9900" fill-opacity="1" stroke="#cc0000" stroke-width="1" stroke-opacity="1" stroke-linejoin="round" stroke-linecap="round"/>
  <g id="head">
   <path id="Pfad-18" d="M260.7 77.72 C272.3 74.15 263.5 59.16 298.3 54.2 292.4 59.53 292.9 61.03 292.3 64.54 300.7 57.24 311.7 53.79 324 57.67 312.1 61.12 308.4 62.56 306 67.15 315.1 62.49 324.2 62.75 338.7 66.63 334.3 68.58 331.8 70.56 330.3 73.36 363.1 77.04 338.9 114.5 374.8 134.1 367.7 136.9 358.5 134.7 350.8 128.7 358.5 135.1 364.7 148 362.5 157.2 359.1 170.6 364.1 174.8 361 186.5 351.9 221 343 232 353.5 253.1 327.3 242 331.3 230.1 329.1 214.3 319.6 231.9 326.7 244.9 338.9 258.9 319.9 257.5 310.7 244.2 303 231.8 296.1 251.9 307.7 255.6 296.4 275.5 298.8 250 282.5 255.6 273.1 232.3 280.4 256.9 270.2 259.1 275.1 272.8 263.2 266.3 266.5 247.5 255.2 239.5 254 249.4 255.2 258.1 257.7 266.2 244 257 240 256.6 236.2 233.9 229.3 244.9 229.3 255.8 231.6 266.5 220.9 257.1 216.5 241.8 221.9 232.5 216.6 232 212.7 242.9 212.7 250 189.5 194.3 254.2 184.2 257.7 147.4 L269.9 143.1 275 102.5 Z" fill="#ff9900" fill-opacity="1" stroke="#cc0000" stroke-width="1" stroke-opacity="1" stroke-linejoin="round" stroke-linecap="round"/>
   <path id="mouth" d="M258.4 117.1 C263 121 261.6 137.5 258.6 151.5 258.6 151.5 270.1 140.7 272.8 138.2 275 136.3 276.6 133.2 277.2 130 277.8 126.8 277.4 123 275.7 120.2 274 117.3 271.1 115.2 268 114.6 264.8 113.8 258.4 117.1 258.4 117.1 Z" fill="#552200" fill-opacity="1" stroke="#cc0000" stroke-width="1" stroke-opacity="1" stroke-linejoin="round" stroke-linecap="round"/>
   <path id="tongue" d="M219 129.9 C219 129.9 218.4 135.2 220.3 138 222.4 141.5 225.8 144.3 230.1 144.4 236.8 144.8 245.8 137.9 252.6 137 262.6 135.3 280.1 141 280.1 141 L275.8 127.2 C275.8 127.2 260.1 124.3 251.4 125.6 244 127 236.7 135.3 229.3 137.2 227.1 137.5 225.8 136.7 223.9 135.7 221.5 134.6 219 129.9 219 129.9 Z" fill="#ff5555" fill-opacity="1" stroke="#cc0000" stroke-width="1" stroke-opacity="1" stroke-linejoin="round" stroke-linecap="round"/>
   <path id="teeth" d="M253.3 117.2 C252.9 121.2 251.3 123.5 252.4 128.5 247.5 126.9 245.7 123.6 245.5 117.6 Z M243.9 115.7 C243.1 119.7 241.3 121.7 242.1 127 237.3 125.1 235.7 121.5 235.8 115.7 Z M261.9 147.8 C260.6 144.2 258.4 142.5 258.2 137.2 253.7 140.2 252.8 144 254.2 149.5 Z" fill="#ffffff" fill-opacity="1" stroke="#cc0000" stroke-width="1" stroke-opacity="1" stroke-linejoin="round" stroke-linecap="round"/>
   <path id="face" d="M324.7 118.1 C331.7 114.4 338.9 103.2 335.1 91.43 332.5 83.33 322.2 82.25 312.1 88.64 307.4 77.96 277.7 73.19 260.7 77.72 256.6 79 253.5 80.86 253.1 84.81 246.7 87.13 233.5 88.06 229.2 92.47 226.7 95.14 229 100 230.8 101.1 227 105.5 230 118.1 235.6 116.3 242.3 123.6 258.3 120 261.5 118.7 261.5 118.7 266.9 117.3 269.3 118.6 271.8 119.7 273.5 122.5 274.2 125.4 274.8 128.7 270.7 137.1 268.6 139.8 266.5 142.3 264.8 147.1 261.6 147.2 257.8 147.2 257.9 147 252.2 145.2 249.2 144.3 243.3 143.7 241 145.7 240.2 146.7 240.2 148.8 239.9 149.7 238.7 153 236.9 153.4 236.1 156 234.1 163.2 237.5 165.3 232.5 167.5 239.4 169.5 246.4 165.1 248.1 160.7 248.4 161.8 249.1 163.2 248.4 165.8 253.4 166.3 253.4 161.3 255.7 158.7 255.6 160.3 256 161.8 257.5 163.8 259.5 161.4 261 158 264 156.6 277.5 158.4 275.6 143.2 276.3 138.6 279.8 143.5 285.6 145.9 292.1 146.1 298.9 146.3 300.2 142.3 307.7 144.9 308.9 143 309.1 141 308 138.4 310.5 139.3 312.9 139.7 315.5 138.6 316.3 136.3 315.7 134.3 315 132.1 317.2 132.3 319.1 133.2 321.3 131.8 320.9 129.8 321.7 128.7 320 125.6 322.2 126.4 324.1 125.5 326.4 124.7 325.9 122.5 327.6 121.5 324.7 118.1 Z" fill="#ffcc00" fill-opacity="1" stroke="#cc0000" stroke-width="1" stroke-opacity="1" stroke-linejoin="round" stroke-linecap="round"/>
   <path id="Pfad-19" d="M237.3 118.2 L242.2 119.3 C234 115.1 234 103.6 235.9 101.6 L234.9 102 C233 103.4 233.5 114.4 237.3 118.2 Z" fill="#552200" fill-opacity="1" stroke="none"/>
   <path id="Pfad-20" d="M331.6 92.32 C330.5 90 328.3 89.38 326.6 89.09 324.8 88.75 323 88.98 321.2 89.67 317 91.08 312.8 93.98 308.7 101.7 L307.9 103.3 309.3 102.6 C311.1 101.9 312.9 101.1 314.4 100.9 313.6 102.7 312.9 104.4 313 106.4 L313.1 107.2 313.9 106.9 C315.1 106.3 316.2 105.8 317.7 105.6 316.8 107.2 315.9 108.8 315.8 110.8 L315.8 111.5 316.4 111.3 C317.7 111.2 318.4 110.9 320 110.8 319.5 112.5 319.3 113.5 320.3 113.8 320.3 112.7 320.7 111.5 321.3 110.3 L321.6 109.3 320.8 109.4 C318.4 109.5 318.1 109.8 317.2 110.1 317.6 108.5 318.4 106.7 319.2 104.9 L319.6 104.1 318.8 104.1 C316.8 104.1 315.6 104.6 314.4 105.4 314.5 103.7 315.1 102.2 315.8 100.5 L316.1 99.66 315.5 99.55 C313.9 99.31 312.3 99.89 310.6 100.7 314.3 94.44 317.9 91.89 321.5 90.73 323.7 90.03 328.4 89.47 331.6 92.32 Z M312.3 89.11 L311.8 88.17 C309.9 89.33 308.3 90.6 306.8 91.77 305.1 93.4 304.3 95.14 303.8 97.11 305.6 94.55 308.1 91.77 312.3 89.11 Z M265.5 107.9 C265.3 103.6 262.8 99.89 259.1 98.5 262 100.7 264.2 104.1 264.3 107.9 264.3 110.8 263.1 114.4 260.6 116.5 264.2 115.1 265.5 111.2 265.5 107.9 Z" fill="#cc0000" fill-opacity="1" stroke="none"/>
   <path id="Pfad-21" d="M249.4 111.2 C248.6 111.2 248 111.7 248 112.5 248 113.2 248.6 113.8 249.4 113.8 250 113.8 250.9 113.2 250.9 112.5 250.9 111.7 250 111.2 249.4 111.2 Z M254.7 110.8 C254 110.8 253.3 111.3 253.3 112.1 253.3 112.8 254 113.5 254.7 113.5 255.4 113.5 256 112.8 256 112.1 256 111.3 255.4 110.8 254.7 110.8 Z M258.3 109.2 C257.7 109.2 256.9 109.8 256.9 110.7 256.9 111.3 257.7 112 258.3 112 259.2 112 259.7 111.3 259.7 110.7 259.7 109.8 259.2 109.2 258.3 109.2 Z M249.3 106.6 C248.5 106.6 248 107.2 248 107.9 248 108.7 248.5 109.3 249.3 109.3 250 109.3 250.6 108.7 250.6 107.9 250.6 107.2 250 106.6 249.3 106.6 Z M254.4 106.1 C253.5 106.1 253 106.6 253 107.4 253 108.1 253.5 108.7 254.4 108.7 255.2 108.7 255.8 108.1 255.8 107.4 255.8 106.6 255.2 106.1 254.4 106.1 Z M258.7 103.7 C257.9 103.7 257.3 104.3 257.3 105 257.3 105.9 257.9 106.5 258.7 106.5 259.3 106.5 260.1 105.9 260.1 105 260.1 104.3 259.3 103.7 258.7 103.7 Z M229.1 92.58 C227.6 95.25 228.5 98.27 230.3 100.6 231.2 101.3 231.6 101.6 232.5 101.4 232.5 101.4 233 103.4 233.3 104.1 233.9 105.6 234.8 106.5 234.8 106.5 234.8 106.5 235.4 104.3 235.8 103.3 236.3 102.2 236.9 101.5 238.2 101.1 239.6 100.2 241.7 101.2 242.9 100.1 243.7 99.55 244.7 96.77 244.7 96.77 244.7 96.77 242.3 96.77 239.7 96.18 237.8 95.84 233.7 98.04 233.7 98.04 231.5 96.64 229.5 95.37 229.1 92.58 Z" fill="#552200" fill-opacity="1" stroke="none"/>
   <g id="eye">
    <path id="Pfad-22" d="M258.7 90.34 C257.3 89.96 257.4 89.4 257.4 89.4 L257.1 88.48 258.1 88.75 C258.1 88.75 261.6 89.82 267.1 89.3 269.4 89.06 272.4 87.55 275.1 87.04 276.4 86.84 277.9 86.72 278.9 87.56 280.1 88.37 280.9 89.71 281.3 91.88 280.1 91.74 279.8 89.94 278.3 88.72 277.6 88.2 276.7 88.21 275.5 88.45 273.1 88.93 270.1 90.41 267.3 90.72 262.1 91.19 260 90.82 258.7 90.34 Z" fill="#cc0000" fill-opacity="1" stroke="none"/>
    <path id="Pfad-23" d="M262.5 93.62 C263 95.65 266.9 98.53 270.3 97.82 273.8 97.15 275.6 93.02 275.1 90.91 274.5 88.85 271.8 89.86 268.3 90.62 264.9 91.34 262 91.49 262.5 93.62 Z" fill="#ffffff" fill-opacity="1" stroke="#cc0000" stroke-width="1" stroke-opacity="1" stroke-linejoin="round" stroke-linecap="round"/>
    <path id="Pfad-24" d="M264.4 94.53 C264.512 95.312 264.912 96.037 265.513 96.545 266.113 97.054 266.864 97.304 267.6 97.24 268.364 97.194 269.055 96.816 269.509 96.196 269.962 95.575 270.14 94.767 270 93.96 269.867 93.173 269.443 92.452 268.823 91.96 268.202 91.467 267.438 91.244 266.7 91.34 265.187 91.498 264.162 92.919 264.4 94.53 Z" fill="#552200" fill-opacity="1" stroke="none"/>
    <path id="Pfad-25" d="M266.7 93.05 C267.4 93.05 268.3 93.47 268.3 94.32 268.5 95.18 268 95.81 267.1 95.87 266.3 95.99 265.6 95.4 265.5 94.64 265.4 93.82 266 93.13 266.7 93.05 Z" fill="#000000" fill-opacity="1" stroke="none"/>
    <path id="Pfad-26" d="M265.9 92.74 C266.4 92.64 267 93.04 267.1 93.64 267.2 94.25 266.7 94.69 266.2 94.74 265.7 94.84 265.2 94.42 265.1 93.84 265.1 93.23 265.5 92.76 265.9 92.74 Z" fill="#ffffff" fill-opacity="1" stroke="none"/>
   </g>
   <path id="Pfad-27" d="M316.8 78.84 L312.1 88.64 C303.1 105.1 304.4 112.4 324.7 118.1 337.4 119.7 335.6 141.7 334.2 144.5 319.2 172.1 278.5 156 275.7 136.8 298.8 123.9 279.3 112.7 270.9 111.3 285.5 111.5 314.7 83.24 296.3 82.82 272.5 82.28 286.5 75.5 262.5 77.98 267.2 72.89 269 73.64 271.6 72.64 L280.6 69.86" fill="#ff9900" fill-opacity="1" stroke="none"/>
  </g>
 </g>
</svg>
