<?xml version="1.0" encoding="UTF-8"?>
<svg width="598px" height="657px" viewBox="0 0 598 657" xmlns="http://www.w3.org/2000/svg" xmlns:xlink="http://www.w3.org/1999/xlink" version="1.1">
 <!-- Generated by Pixelmator Pro 2.0.6 -->
 <g id="wolf">
  <g id="hind-limb">
   <path id="Pfad" d="M321.6 307.6 C321.6 307.6 332.8 308.3 340.1 314.6 347.5 320.9 357.6 334.9 360.8 335.6 363.9 336.3 383.5 332.5 394.3 334.2 405.2 336 427.2 329.7 442.6 334.6 457.9 339.4 459.3 342.9 466.7 344.3 474 345.7 480 342.9 484.5 346.1 489.1 349.2 520.5 377.6 523.7 382.8 526.8 388 531.4 398.2 541.5 398.5 551.6 398.9 556.5 401 556.9 397.8 557.2 394.7 554.8 385.2 549.9 380.3 545 375.5 525.1 360.4 518.1 354.5 511.1 348.5 498.5 334.9 497.1 330.4 495.7 325.8 495.7 322 489.8 320.9 483.8 319.9 471.2 322.3 462.8 320.2 454.5 318.1 432.8 311.1 421.2 305.5 409.7 299.9 401 278.6 401 278.6" fill="#666666" fill-opacity="1" stroke="#ffffff" stroke-width="1" stroke-opacity="1" stroke-linejoin="round" stroke-linecap="round"/>
   <path id="Pfad-1" d="M537.9 398 C535.3 396.1 529.8 390.9 528.2 386 M531.9 382.6 C531.9 382.6 533.5 387.6 539.8 391.5 547.7 396.3 554.1 396 555.9 393.6 557.1 392 553.6 386.6 553.4 385.1" fill="none" stroke="#ffffff" stroke-width="1" stroke-opacity="1" stroke-linejoin="round" stroke-linecap="round"/>
  </g>
  <g id="right-forelimb">
   <path id="Pfad-2" d="M136.6 263.3 C145.3 279 152.4 302.8 157 311.1 134.2 314.1 112.7 322.6 102.5 324.1 91.87 325.6 75.06 325.3 72.84 328.3 70.61 331.2 58.5 346.3 51.83 349.8 45.15 353.2 35.26 357.9 34.52 361.6 33.78 365.3 30.07 373.5 33.04 374.5 36.01 375.5 37.74 378.4 41.69 376.5 45.65 374.5 53.06 368.8 57.02 367.6 60.97 366.3 71.11 358.7 72.84 355 77.21 343.3 87.3 344.5 87.3 344.5 86.89 347.7 88.09 349.8 91.07 351.6 91.25 349.8 92.85 346.5 94.62 346 94.62 348.1 94.79 351.1 96.77 351.6 96.77 348.5 98.6 345.9 101.8 345.3 100.6 347.3 101 350.4 102.5 351.6 104.4 347.9 106.7 346.3 108.8 345.6 108.5 347.4 108.3 350.1 109.1 351.7 109.9 349.3 111.7 347 115.6 345.5 115.1 347.9 114.9 349.8 116.6 352.3 117.5 349.8 119.3 346.6 124.2 345.8 122.7 348.2 122.8 350.4 124.1 351.9 124.5 349.4 128 346.2 131 344.9 129.2 348.5 130 351.2 131.7 351.5 132.2 348.8 135.1 345.9 138 344.8 135.7 347.6 138 350 139 351.4 139.5 347.9 141.7 345.4 144.7 344.1 144.2 347.1 144.9 348.5 146 349.3 146.5 346.7 148.2 343.6 150.6 342.2 L150.5 342.2 C162.4 339.2 185.5 332.4 187 330.2 188.8 327.8 193.5 324.8 192.2 318.4 191 312 185.6 289 193.2 283.8 200.9 278.6 205.6 272.2 205.6 272.2" fill="#666666" fill-opacity="1" stroke="#ffffff" stroke-width="1" stroke-opacity="1" stroke-linejoin="round" stroke-linecap="round"/>
   <path id="Pfad-3" d="M68.02 354.1 C63.52 360.2 68.38 360.6 70.73 357.8 M32.39 369 C32.39 369 34.03 365.1 35.75 363.7 39.14 361 42.52 361.1 48.64 355.8 M43.25 375.6 C43.25 375.6 41.17 376.7 39.76 374.4 37.89 371.4 39.32 369.3 42.64 366 45.6 363 48.42 363.1 51.56 359.9" fill="none" stroke="#ffffff" stroke-width="1" stroke-opacity="1" stroke-linejoin="round" stroke-linecap="round"/>
  </g>
  <path id="right-ear" d="M93.16 179.1 C93.06 169.1 90.21 161.6 91.24 158.5 92.65 154.3 93.86 152.3 96.22 152.4 98.58 152.5 101.6 154.3 105.2 156.8 110.5 160.5 115 163.7 118.8 172.4" fill="#666666" fill-opacity="1" stroke="#ffffff" stroke-width="1" stroke-opacity="1" stroke-linejoin="round" stroke-linecap="round"/>
  <path id="Pfad-4" d="M43.44 246.3 C43.44 246.3 44.85 249.1 46.8 249.8 49.26 250.7 52.37 250.9 55.9 249.5 61.44 247.2 65.92 243.3 73.88 239.4 81.81 235.5 90.16 232 100.7 232 L94.79 226.6 C88.35 226.2 80.99 228.8 71.71 234.7 65.9 238.4 58.99 242.8 53.16 246.3 51.53 247.3 50.21 247.3 48.43 247.5 46.3 247.8 43.44 246.3 43.44 246.3 Z" fill="#cc0000" fill-opacity="1" stroke="none"/>
  <g id="group">
   <path id="Pfad-5" d="M63.53 250.5 C61.77 249.2 61.15 247.3 60.96 244.8 62.72 247.1 64.43 248.8 67.14 249.2" fill="#000000" fill-opacity="1" stroke="none"/>
   <path id="Pfad-6" d="M53.36 237.2 C53.88 239.1 56.42 241.5 58.81 242.3 57.73 240.1 57.52 239.3 57.77 236.4" fill="#000000" fill-opacity="1" stroke="none"/>
  </g>
  <g id="body">
   <path id="Pfad-7" d="M139.7 163.8 C130.6 159.7 121.2 163.1 116.4 164.1 104.8 164.2 89.24 171 78.52 184.7 75.38 188.7 70.97 197 68.17 201 65.37 205 53.7 211.5 49.82 213.1 46.01 214.6 42.96 217.7 39.68 220.2 38.35 221.2 36.71 222 35.83 223.4 34.96 224.8 39.47 228.3 40.9 230.6 42.27 232.8 46.67 237.3 53.66 237.4 60.65 237.6 69.39 233.7 77.61 230.2 85.82 226.7 86.51 227.5 91.55 229.9 96.65 232.3 85.7 238.8 79.12 242.9 73 246.7 65.21 248.9 61.58 250.6 57.87 252.4 61.41 254 63.18 255.5 65.06 257.1 68.36 257.1 72.01 256.1 75.7 255 91.96 243.5 98.06 242.3 104.2 241 104.9 241.3 109.4 243.9 113.9 246.5 116.8 247 120.1 249.6 128.6 256.3 128.3 270.2 140.2 279.7 152.1 289.1 165.8 296.5 181 307.1 200.9 321.1 255.9 328.6 272 326.3 298.8 322.5 301.5 320.9 321.6 314.6 341.7 308.3 349.8 317.1 360.1 317.9 370.4 318.8 398.4 345.6 402.3 348 406.3 350.5 411 351.3 422.1 351.8 433.2 352.2 446.3 359.4 453.3 361.4 460.2 363.4 464.6 373.5 467.6 378 470.6 382.4 492.6 418.5 496.8 422.4 501 426.4 508.4 428.3 511.2 428.3 513.9 428.3 511.9 424.6 513.4 421.9 514.9 419.1 514.8 415.6 513.8 413.5 509.1 403.6 491.6 377 487.9 371.8 484.2 366.6 480.2 354.2 478.5 350 476.7 345.8 475.3 346.6 467.6 346.1 459.9 345.6 442.9 329.8 436.7 325.1 435 323.8 434 322.1 433.3 320.2 L433.4 320.2 C436.3 320.2 437.1 320.1 441 322.3 440.8 320 436.4 315.6 432.1 314 436 313.7 436.8 314.5 439.7 316.1 438.5 313.1 435.5 310.7 431.2 309.8 431.2 309.7 431.2 309.6 431.1 309.5 433.5 307.1 437.1 307.4 439.2 308 435.8 304.1 429.9 302.6 427.5 302.5 429.7 300.4 433.6 300.2 435.4 301 431.9 294.7 427.1 294.5 422.4 295 422.9 294 424.3 291.5 427.7 291.4 425.6 287.5 420.9 287.7 416.5 287.3 418.6 285.1 420.7 285 423.4 284.3 421.4 282.9 415.5 281.1 411.7 281.6 L411.6 281.6 C412.8 279.1 418.9 279.6 421.8 279.4 419.9 276.6 412.3 274.6 406.6 274.6 407.7 272.6 410.9 272 415.5 272.3 411.9 269.3 408 266.7 402.3 266.4 406.5 264 411.3 264.9 414.2 266.7 413.6 262.7 408.2 259.8 403.9 258.3 406.8 254.5 411.2 258.6 418.1 260.5 423.9 264.6 429.2 269.3 432.5 275.9 434.2 274.5 434.9 272.1 434.3 268.9 440.7 272.3 440.9 277.2 442.4 282 443.5 279.4 444.8 276.7 444.4 273.4 448.9 277.6 451.9 284.2 455.1 290.4 456.9 286.5 456.3 282.9 456 279.3 463.2 284.1 466.7 290.9 470.6 297.4 471.3 294.2 471.1 290.7 470.3 287 479.1 292.4 486.3 298.9 488.4 306.3 489.9 302.3 489.7 298.5 487.6 294.7 494.3 296.3 503.7 301 509.6 307.8 509.4 304 508.3 301.4 507 298.9 511.4 298.6 519.4 300.7 526.9 305.3 525.2 301.5 523.2 298 519.5 295.2 525.9 294.9 532.7 299.4 537.3 302 536.6 298 532.6 293.6 529 290.9 536.3 290.5 543.9 291 552.1 293.7 550.9 291.4 548.3 289.5 545.4 287.7 553.5 287.7 561.4 288.3 569.2 291.4 568.2 288.5 565.9 287.1 563.9 285.8 569.8 284 576.1 284.7 582.3 285.3 581.1 282.7 578.8 281.1 576.2 279.7 579.3 277.7 584 276.9 590 277.1 587.3 274.3 583.9 272.6 580.3 271.6 582 269.7 582.7 268.9 593.2 265.7 587.4 263.9 583.1 263.9 575.7 265.1 579 262.3 581.3 262 584 260.8 578.2 258.7 571.7 256.8 562.3 256.8 564.3 254.4 567.4 254 570.2 253.4 560.7 250.3 556.8 251.6 551.1 251.6 552.4 250.7 553.6 249.9 557.1 248.7 550.8 246.2 538.9 247.2 529.9 247.6 513.8 244.6 500.8 246.3 492.9 245.8 482.1 245.1 485.7 243.5 470.7 242.3 455.7 241 425.3 243.3 406.9 244.2 388.6 245.1 381.2 241.6 329.5 239.5 281.3 233.9 245.4 228.8 216.5 213.7 221.6 213.8 224.8 213.4 228.1 213.9 224.4 209 216.1 210.6 209.1 202.7 212.2 202.2 220.3 204 223.4 203.5 215.7 199.6 203.7 192 193.8 191.3 197.3 189.2 201.2 189.3 205 189 198.4 185.8 187.3 183 177 183.1 180.4 181.3 185.8 181 187.5 180.5 181.6 176.3 171.3 177.8 165.1 178.2 167.4 174.8 173.3 174.8 176.3 173.9 167.8 170 158.4 169.9 147.5 172.7 147.6 171.4 151 169.5 156 167.5 150.6 165.7 145.8 164.4 134.4 168.7 136.3 165.2 137.7 164.4 139.7 163.8 Z" fill="#666666" fill-opacity="1" stroke="#ffffff" stroke-width="1" stroke-opacity="1" stroke-linejoin="round" stroke-linecap="round"/>
   <path id="Pfad-8" d="M133.1 271.7 C134.3 274.4 137.5 281.7 138.2 286.5 140.3 282.2 143.7 277 140.7 270.8 145 270.7 147.2 272.8 149.9 274.6 152.3 270.9 153.4 266.8 149.2 261.1 156.9 259.4 158.6 262.8 162.4 264.4 163.4 260.9 163 257.1 160.1 253.2 166.1 252 168.1 253.5 172.2 256.6 172.4 252.4 171.6 246.8 168.6 243.9 174.9 241.6 178.4 245.2 183.9 247.7 184.2 243.8 181.1 238.5 177.8 234.6 183.3 232.5 189.3 237 192.2 238.6 191.4 233.6 187.9 229.5 187.2 225.2 190.8 227.3 198 229.3 201 228.5 196.9 225 195.9 220.9 196.3 217.6 198.3 220.1 204.4 221.1 207.8 220.1 205.6 217.6 203.6 215 204.3 211.1" fill="#666666" fill-opacity="1" stroke="#ffffff" stroke-width="1" stroke-opacity="1" stroke-linejoin="round" stroke-linecap="round"/>
   <path id="Pfad-9" d="M216.5 213.7 C213.2 213.6 210.2 213.8 204.3 211.1" fill="none" stroke="#ffffff" stroke-width="1" stroke-opacity="1" stroke-linejoin="round" stroke-linecap="round"/>
   <path id="Pfad-10" d="M107.7 228.4 C112.7 227 117.7 227.7 121.1 229.8 121.5 227.6 118.7 225 115.9 224 119.4 223.1 122.9 224 127.3 225.7 127.5 223.7 126.3 221.2 124.8 220 127.8 218.8 130.7 219.4 134.2 220 133.6 217.4 132.2 216.6 129.7 215.6 133.3 214.6 136.5 215.4 139.9 217.4 138.5 214.7 137.9 212.7 134.7 211.1 137.7 210.5 140.6 210.7 143.6 211.6 142.3 208.4 137.6 207.1 134.6 206.7 136.8 205.9 141.8 205.9 144.1 206 142.1 202.8 139.5 199.4 135.2 197.9" fill="none" stroke="#ffffff" stroke-width="1" stroke-opacity="1" stroke-linejoin="round" stroke-linecap="round"/>
   <path id="Pfad-11" d="M513.2 422.3 C511.9 425.1 505.7 424.6 503.1 422.8 500.5 420.9 496.1 414.8 494.5 409.9 M511.3 408.7 C511.3 408.7 514.8 415.9 511.6 417.8 508.5 419.7 506.7 418 503.4 414.3 500.3 410.7 498.1 406 498.1 406" fill="none" stroke="#ffffff" stroke-width="1" stroke-opacity="1" stroke-linejoin="round" stroke-linecap="round"/>
  </g>
  <g id="left-forelimb">
   <path id="Pfad-12" d="M165.4 266.7 C169.3 275.1 171.1 278.4 173 289.8 175 302 177.1 320.1 167.8 330.4 164.4 334.2 153.3 343.3 144.6 349.6 135.8 355.9 129 360.4 119.6 368.8 110.1 377.2 106.3 389.4 104.5 395 102.8 400.6 89.86 408.3 83.9 411.5 77.98 414.6 80.04 415.3 77.26 422.6 74.45 430 82.85 427.5 86.35 428.2 89.84 428.9 105.9 419.5 110.1 417.8 114.3 416 120.3 397.8 124.8 392.2 127.5 389.2 127.5 389.6 127.5 389.6 130.1 389.9 132.5 392.4 132.6 396.1 134.9 393.8 135.3 390.6 134.1 386.5 136.9 386.2 138.3 387.9 139.5 389.9 141.9 387.7 141.1 385.4 140 383 141.9 382.5 143.9 382.6 146.5 386 147.6 384.4 147.4 382.1 146.2 379.6 148.6 379.9 150.7 381.5 152 384 152.8 382.4 155 380.8 152.4 376.8 154.8 376.9 157.2 378.3 158.4 381 160.1 379.1 160.6 375.7 160.8 373.6 162.8 374.2 164.3 376.7 164.8 378.3 166.6 376.8 167.6 373.6 166.5 371.4 168.1 371.3 169.8 373.5 171.4 376.4 172.4 375.1 173.1 372.1 172.7 370.4 175.8 370.7 177 372.3 178.3 375.1 180.8 373.5 181 370.9 180.3 367.9 182.9 368.7 184.3 370.7 185.5 373.1 187.5 371.1 187 368.6 185.8 365.7 188.7 365.5 190.1 367.9 191.9 369.4 192.8 366.1 191.1 364.5 190.2 362.3 192.8 362.6 194.7 363.6 196.1 365.5 196.4 362 195.1 358.9 192.9 356.1 195.5 356.1 197.7 358 199.9 359.8 200.9 354.8 198 351.7 195.9 348.2 197.7 348.2 201.2 350.8 203 352.4 202.7 347.6 201.2 346.1 202.4 340.2 208 332.8 210 329.3 216 326.1 230 318.8 234.1 303.2 239.4 283.2" fill="#666666" fill-opacity="1" stroke="#ffffff" stroke-width="1" stroke-opacity="1" stroke-linejoin="round" stroke-linecap="round"/>
   <path id="Pfad-13" d="M80.06 428.1 C79.74 425.2 80.86 419.9 82.16 418.7 83.59 417.1 89.66 413.8 92.29 411.1 M87.95 428.2 C86.06 426.4 86.36 421.8 87.66 420.6 89.09 419 94.9 416.2 97.53 413.5" fill="none" stroke="#ffffff" stroke-width="1" stroke-opacity="1" stroke-linejoin="round" stroke-linecap="round"/>
  </g>
  <g id="left-ear">
   <path id="Pfad-14" d="M126.7 192.1 C128.1 187.4 127.5 175.8 126 171.5 122.7 161.6 120.1 158 116.4 153.6 113.3 150 109.9 145.9 105.7 154.4 103.1 159.9 103.1 166.1 103 171.8" fill="#666666" fill-opacity="1" stroke="#ffffff" stroke-width="1" stroke-opacity="1" stroke-linejoin="round" stroke-linecap="round"/>
   <path id="Pfad-15" d="M112.1 159.8 C114 162.9 114.6 166.9 113.5 172.3 115.1 172.2 116.7 169.8 120.3 171.2 116.8 173.5 115.8 176.5 115.6 179.8 118.1 178.5 119.6 178.6 120.5 179.3 118.5 181.4 117.1 183.6 118.7 186.4" fill="none" stroke="#ffffff" stroke-width="1" stroke-opacity="1" stroke-linejoin="round" stroke-linecap="round"/>
  </g>
  <g id="eye">
   <g id="group-1">
    <path id="Pfad-16" d="M73.93 202.5 C72.53 202.4 72.44 201.8 72.44 201.8 L72.08 200.9 73.03 201 C73.03 201 76.56 201.4 81.79 200.1 84.01 199.4 86.67 197.5 89.13 196.5 90.44 196.1 91.75 195.7 92.96 196.3 94.18 196.9 95.15 198.1 95.86 200.1 94.79 200.2 94.23 198.5 92.41 197.6 91.75 197.2 90.9 197.4 89.76 197.8 87.53 198.6 84.92 200.6 82.25 201.4 77.3 202.7 75.22 202.7 73.93 202.5 Z" fill="#111111" fill-opacity="1" stroke="none"/>
    <path id="Pfad-17" d="M77.86 205.1 C78.63 207 82.77 209.1 85.92 207.8 89.23 206.6 90.29 202.3 89.41 200.4 88.52 198.5 86.05 199.9 82.79 201.2 79.65 202.5 76.81 203.2 77.86 205.1 Z" fill="#ffffff" fill-opacity="1" stroke="none"/>
    <path id="Pfad-18" d="M79.97 205.3 C80.205 206.062 80.728 206.717 81.416 207.114 82.103 207.511 82.897 207.614 83.61 207.4 84.325 207.202 84.904 206.706 85.216 206.027 85.527 205.347 85.543 204.543 85.26 203.8 85.005 203.069 84.484 202.447 83.813 202.072 83.141 201.697 82.374 201.599 81.68 201.8 80.977 201.988 80.401 202.464 80.08 203.121 79.759 203.779 79.719 204.563 79.97 205.3 Z" fill="#333333" fill-opacity="1" stroke="none"/>
    <path id="Pfad-19" d="M82.01 203.4 C82.63 203.4 83.52 203.7 83.72 204.5 84.03 205.3 83.61 206 82.87 206.1 82.13 206.4 81.3 205.9 80.99 205.3 80.79 204.5 81.27 203.7 82.01 203.4 Z" fill="#000000" fill-opacity="1" stroke="none"/>
    <path id="Pfad-20" d="M81.17 203.3 C81.63 203.1 82.24 203.4 82.44 204 82.65 204.6 82.29 205 81.78 205.2 81.32 205.4 80.77 205 80.51 204.5 80.31 203.9 80.72 203.4 81.17 203.3 Z" fill="#ffffff" fill-opacity="1" stroke="none"/>
   </g>
  </g>
  <path id="Pfad-21" d="M41.16 219.8 C42.46 219.2 44.31 219.4 44.75 222.1 45.18 224.8 43.7 228.4 41.95 229.1 40.56 229.6 38.66 227.9 37.18 226 36.33 224.9 35.63 223.5 37.06 222.3 39.26 220.5 39.24 220.7 41.16 219.8 Z" fill="#000000" fill-opacity="1" stroke="none"/>
 </g>
</svg>
