<?xml version="1.0" encoding="UTF-8"?>
<svg width="598px" height="657px" viewBox="0 0 598 657" xmlns="http://www.w3.org/2000/svg" xmlns:xlink="http://www.w3.org/1999/xlink" version="1.1">
 <!-- Generated by Pixelmator Pro 2.0.6 -->
 <path id="Pfad" d="M250 50 L350 50 350 610 250 610 Z" fill="#ff9999" fill-opacity="1" stroke="none"/>
 <g id="body">
  <path id="Pfad-1" d="M300 339.3 C297.9 339.3 297.1 354.6 297.2 362.4 297.9 426.2 292 490.9 297.4 548.8 299 565.9 298.4 583 297.6 598 297.2 605.9 277.3 593.9 276.8 586 275.9 570.1 288.7 552.7 282 537.5 257.9 482.8 274.3 475.2 265.7 441.5 253.8 394.6 249.5 341 251.3 292.7 252.2 266.3 254.4 257.7 252.8 239.1 251.5 223.3 244.6 218.6 240.7 194.2 236.9 203.9 205.3 235.4 195.9 252.1 183.6 273.9 164.6 286 148.2 304.8 142.4 311.4 139.8 324.8 131.1 325.9 123.1 326.9 110.1 309.8 112.4 301.9 115.4 291.8 127.6 299.9 136.6 284 149.3 261.5 151.1 252.8 175.3 229.9 192.8 213.4 200 181 217.3 164.3 228.4 153.7 248.2 154.2 260.9 145.8 270.8 139.2 281.7 134.4 283.1 126.1 278.2 123.8 273.2 106.3 272.4 96.98 268.9 101.3 266.4 94.06 266.2 91.1 266 88.29 265.1 80.83 270.9 83.66 269.4 74.75 271.2 68.86 275.2 61.8 280.5 52.27 292.3 49.25 300 49.25" fill="#dd3333" fill-opacity="1" stroke="none"/>
  <path id="Pfad-2" d="M298.3 283.8 C298.8 294.1 299.7 321.2 297.5 329.1 294.7 339.3 279.4 312.3 276.3 302.3 271.8 287.5 269.1 276.1 277.3 276.6 282.6 276.9 298 276.7 298.3 283.8 Z" fill="#990000" fill-opacity="1" stroke="none"/>
  <path id="Pfad-3" d="M274.9 274.1 C278.7 275.3 296.1 278.6 297.8 274.5 300.1 269.3 299 255.9 298 251.3 297 246.8 275.1 249 272.4 256.5 270.7 261.2 270.1 272.6 274.9 274.1 Z" fill="#990000" fill-opacity="1" stroke="none"/>
  <path id="Pfad-4" d="M274.1 251.1 C281.3 246.5 293.6 247.5 296.6 248 300.2 248.6 299.6 234 298.2 230.5 296.5 226.2 276 228.2 273.3 235.7 271.6 240.4 269.9 253.8 274.1 251.1 Z" fill="#990000" fill-opacity="1" stroke="none"/>
  <path id="Pfad-5" d="M276 229.6 C283.2 225 293.8 226 296.8 226.7 299.4 227.3 299.1 212.7 298.4 209.2 297.4 204.7 281.5 206 275.2 215.4 272.4 219.6 271.8 232.3 276 229.6 Z" fill="#990000" fill-opacity="1" stroke="none"/>
  <path id="Pfad-6" d="M253.7 151.8 C250.2 140.9 289.2 152.2 297.3 164.7 299.7 168.4 297.7 184.4 297.7 194.4 297.8 197.5 297.3 203.1 293.7 203.7 274.6 207 243.6 201.2 248.1 186.3 252.4 171.9 260.4 172.7 253.7 151.8 Z" fill="#990000" fill-opacity="1" stroke="none"/>
  <path id="Pfad-7" d="M269.6 241.2 C269 243.7 266.5 268.1 269.3 273.7 273.4 281.7 254.5 268.9 254.7 260.7 254.9 250.9 271.2 234 269.6 241.2 Z" fill="#990000" fill-opacity="1" stroke="none"/>
  <path id="Pfad-8" d="M253.6 253.7 C252.3 252.9 252.9 236.1 258 222.7 262.5 211 277.4 203 273.9 210.9 270.6 218.4 269.8 225.6 269.5 232.8 269.3 237 264.1 239.2 261.6 242.5 258 247.4 254.8 254.5 253.6 253.7 Z" fill="#990000" fill-opacity="1" stroke="none"/>
  <path id="Pfad-9" d="M251.9 232.1 C251.4 233.5 245.4 222.5 243.4 211.7 241.9 203.6 246.5 192.3 249.9 198.5 253.8 205.9 266.5 205.8 263.2 210.5 259.2 216.2 254.8 222.4 251.9 232.1 Z" fill="#990000" fill-opacity="1" stroke="none"/>
  <path id="Pfad-10" d="M254.5 266.7 C253.2 267.5 256.9 285.6 262.4 298.9 271.6 321.1 288.1 326.7 281.8 319.2 274.2 310 270.9 291.5 270.6 284.3 270.4 280.1 267.3 278.6 262 274.8 257 271.3 255.7 265.9 254.5 266.7 Z" fill="#990000" fill-opacity="1" stroke="none"/>
  <path id="Pfad-11" d="M278.6 139 C276.7 137.7 278.1 133.9 279.1 131.8 279.8 130.4 281.9 130.8 283.5 132.2 286.3 134.4 291.5 137.2 294.4 142.6 298.9 150.8 298.8 160.7 295.8 158.7 287.5 152.3 287.1 145 278.6 139 Z" fill="#990000" fill-opacity="1" stroke="none"/>
  <path id="Pfad-12" d="M262.6 144.7 C264.1 141.1 273.3 136.6 277.7 140.9 287 149.9 291.3 157.6 285.6 154 276.8 148.4 274.5 148.1 268.1 146.6 265.8 146.1 262.2 145.7 262.6 144.7 Z" fill="#990000" fill-opacity="1" stroke="none"/>
  <path id="Pfad-13" d="M243.2 152.9 C250.4 152 249.6 153.9 250.9 158.6 253.3 167.1 243.3 177.7 232.8 183.6 226.5 187.2 223.1 184.5 210.4 186.1 207.4 186.6 205.9 182.9 207 178.2 210.7 163.6 228.3 154.9 243.2 152.9 Z" fill="#990000" fill-opacity="1" stroke="none"/>
  <path id="Pfad-14" d="M180.6 237.6 C179.7 241.4 182.8 244.4 186 242.5 190 240.3 217.4 211.8 227.1 193 230 187.4 218.2 186.9 213.1 187.6 210.1 188 205.3 187.6 198.7 193.3 190.7 200.2 185 218.1 180.6 237.6 Z" fill="#990000" fill-opacity="1" stroke="none"/>
  <path id="Pfad-15" d="M137.6 283.3 C136.7 291.8 158.1 272.5 163.2 265.3 165.8 261.5 176.8 251.1 179 233.2 179.7 228.2 175.8 227.7 172.4 230.4 169.1 233 160.5 243.1 155 250 149.1 257.7 138.2 278.1 137.6 283.3 Z" fill="#990000" fill-opacity="1" stroke="none"/>
  <path id="Pfad-16" d="M204.9 237.7 C205.5 231.9 197.7 236.6 191.3 242.7 185 248.7 183.5 244.9 170.9 261.1 167.4 265.7 160.5 272.2 155.7 279.8 150.3 288.5 147.7 298.3 149.6 299.6 152 301.3 173.7 282.5 179.7 276.1 186.2 268.8 204.5 242.9 204.9 237.7 Z" fill="#990000" fill-opacity="1" stroke="none"/>
  <path id="Pfad-17" d="M206 226.5 C200.3 231.4 197.7 234.8 209 233.1 219.6 231.5 244 198.5 242.4 184.6 241.9 179.8 231.7 193.5 230 196.1 227 201.2 214.6 219 206 226.5 Z" fill="#990000" fill-opacity="1" stroke="none"/>
  <path id="Pfad-18" d="M131.9 323.1 C136.6 326.3 139.6 322.6 143.8 314.4 146.9 308.6 144.6 302.1 148.6 290.7 151.2 283 149.9 281.3 145.5 285.1 141.3 288.7 136.8 298.4 136.5 305.8 136.2 313.1 129.3 321.4 131.9 323.1 Z" fill="#990000" fill-opacity="1" stroke="none"/>
  <path id="Pfad-19" d="M137.5 287.5 C132.8 285.9 125.4 294.2 121.2 294.6 116.3 295.2 116.4 298.8 117.2 300.6 119.6 305.4 124.3 305.6 129.5 304.7 133 304.1 133.9 300.5 135.7 297.4 136.6 295.6 139.4 288 137.5 287.5 Z" fill="#990000" fill-opacity="1" stroke="none"/>
  <path id="Pfad-20" d="M133.6 307 C132.3 304.8 127.9 308.5 123.9 307.2 116.2 304.6 115.7 308.6 118.2 312.1 121.3 316.2 125.4 321.3 128.9 319.5 130.9 318.5 135.4 310.2 133.6 307 Z" fill="#990000" fill-opacity="1" stroke="none"/>
  <path id="Pfad-21" d="M115.5 299 C114.7 296.7 108.9 300.3 104.6 300.1 101.6 299.9 99.49 297.7 99.4 300.9 99.26 306.1 106.7 307 110.6 306.1 116.4 304.8 116.7 302.5 115.5 299 Z" fill="#990000" fill-opacity="1" stroke="none"/>
  <path id="Pfad-22" d="M118.9 315.5 C116.8 312.5 110.8 319.8 107.5 322.5 105.1 324.5 97.1 329.4 98.34 332.5 100.4 337.3 111.2 326.6 114.2 324 120.2 319.2 120.9 318.7 118.9 315.5 Z" fill="#990000" fill-opacity="1" stroke="none"/>
  <path id="Pfad-23" d="M114.6 308.9 C113 305.6 108.1 312.1 104.7 314.8 102.3 316.8 94.37 321 95.6 324.1 97.62 328.9 106.8 319.9 109.9 317.4 115.9 312.5 116.4 312.6 114.6 308.9 Z" fill="#990000" fill-opacity="1" stroke="none"/>
  <path id="Pfad-24" d="M124.7 320.8 C121.4 319.2 121.4 320.9 114.8 327.2 112.5 329.4 104.8 334 106.8 336.7 109 339.7 115.2 333.1 118.2 330.6 124.2 325.7 128.4 322.5 124.7 320.8 Z" fill="#990000" fill-opacity="1" stroke="none"/>
  <path id="Pfad-25" d="M130.8 324.5 C127.1 323.8 128.9 323.5 122.3 329.8 120.1 332 114.9 335.9 116.6 337.3 118.9 339.2 122 336.1 125 333.5 132.4 327.2 135.1 325.2 130.8 324.5 Z" fill="#990000" fill-opacity="1" stroke="none"/>
  <path id="Pfad-26" d="M287.2 384.2 C288.1 390.4 292.9 390.2 294.2 384.9 296.7 374.4 296.1 353.9 297.8 342.7 298.5 337.9 296.4 335.1 292 332.8 283.7 328.3 275.9 323.9 268.1 316.8 261.5 310.6 262.7 318.3 264.9 321.6 278.7 342 284.4 364 287.2 384.2 Z" fill="#990000" fill-opacity="1" stroke="none"/>
  <path id="Pfad-27" d="M271.3 451.1 C272.9 453.1 276 456.4 277.7 451.6 280.6 443.5 289.6 406.6 284.2 386.6 278.8 366.5 273 341.2 268.1 332.4 261.2 320 260.9 324.3 261.5 332.8 263.6 361 257.7 374.5 258.7 394.8 259.6 412 259.1 435.5 271.3 451.1 Z" fill="#990000" fill-opacity="1" stroke="none"/>
  <path id="Pfad-28" d="M256.9 376 C261.5 332.5 255.6 332.7 260.6 313.2 262.9 304.3 257.7 300.3 255.2 290.8 249.3 268 247.7 332.2 249 344.2 250.1 354.9 255.2 391.9 256.9 376 Z" fill="#990000" fill-opacity="1" stroke="none"/>
  <path id="Pfad-29" d="M283.2 542.2 C290.6 557 292.9 552.2 289.8 541.2 286.6 530.4 286.8 524.8 285 515.3 283.2 505.5 279.1 503.2 276.5 484.2 274.7 470.6 280.7 444 268.2 465.7 264.9 471.4 265.4 492 268.4 507.4 271.9 525.2 277.1 530.2 283.2 542.2 Z" fill="#990000" fill-opacity="1" stroke="none"/>
  <path id="Pfad-30" d="M281.1 492 C286.4 506 286.9 504.4 289 494.9 291.3 484.9 290.1 469.1 288.7 457.9 287.9 450.8 287.7 434.2 281.4 450.9 278.6 458.1 278.1 484.1 281.1 492 Z" fill="#990000" fill-opacity="1" stroke="none"/>
  <path id="Pfad-31" d="M288 515.6 C289.6 535.2 294.1 560.4 296.5 546.6 298.2 536.5 297.6 518 297.8 505.9 298.1 481.6 293.3 443.4 290.8 497.7 290.4 505.4 287.3 507.1 288 515.6 Z" fill="#990000" fill-opacity="1" stroke="none"/>
  <path id="Pfad-32" d="M287.2 440.5 C292.8 448.1 290.3 476.5 295.9 463.7 298.6 457.4 298.4 430.9 297.9 418.8 297.5 409.1 290.1 369.6 288.4 405.6 288.1 413.3 282.1 433.6 287.2 440.5 Z" fill="#990000" fill-opacity="1" stroke="none"/>
  <path id="Pfad-33" d="M298.1 567.8 C299.9 565.2 298.8 557 298 554.1 297 550.5 294.5 555.1 289.7 553.3 288 552.7 284.6 547.2 282.6 552.1 280.5 557.1 281.7 559.4 288.3 562.7 294.9 566 296.4 570.1 298.1 567.8 Z" fill="#990000" fill-opacity="1" stroke="none"/>
  <path id="Pfad-34" d="M293.1 593.2 C300.4 596.7 298 589.5 298.1 584.7 298.2 572 297.8 571.9 289.9 566.5 287.1 564.6 280.3 559.1 279.4 564.3 276.6 579.8 274 581 283.2 587.7 289.2 592 290.5 592 293.1 593.2 Z" fill="#990000" fill-opacity="1" stroke="none"/>
  <path id="Pfad-35" d="M292.7 594.3 C294.4 594.3 296.4 594.7 297.2 595.9 298.4 597.7 299.1 606.1 297.1 607.8 295.8 608.9 294.3 608 292.8 607.4 290.1 606.2 289.8 594.3 292.7 594.3 Z" fill="#990000" fill-opacity="1" stroke="none"/>
  <path id="Pfad-36" d="M288.7 592.1 C291.1 593.4 290 595.8 289.8 600.8 289.8 601.9 290.7 605 288.5 604.1 285.7 603 285.4 598.1 285.8 594 286.1 591.1 287.8 591.6 288.7 592.1 Z" fill="#990000" fill-opacity="1" stroke="none"/>
  <path id="Pfad-37" d="M283.8 589 C287.3 590.3 284.2 591.8 284.9 596.7 285.2 599.1 285.8 601.1 283.6 600.2 280.8 599 281.2 596.3 281.9 591.3 282.3 588.5 282.8 588.6 283.8 589 Z" fill="#990000" fill-opacity="1" stroke="none"/>
  <path id="Pfad-38" d="M280.7 587.5 C283.1 588.8 281.1 589.2 280.7 594.2 280.6 595.8 280.9 597.8 279.1 596.7 277.5 595.8 278.3 592.6 278.7 588.5 279 585.6 279.8 587 280.7 587.5 Z" fill="#990000" fill-opacity="1" stroke="none"/>
  <path id="Pfad-39" d="M277.5 583.9 C278.4 585.3 278.2 585.5 277.8 589.6 277.7 590.6 277.9 592.2 276.6 591.7 275 590.9 275.2 587.6 275.6 585.6 276 584.3 276.5 582.5 277.5 583.9 Z" fill="#990000" fill-opacity="1" stroke="none"/>
  <path id="Pfad-40" d="M300 130.5 C292.9 130.5 289.2 128.9 286.3 128.7 282 128.4 284.2 131.2 286 132.1 297.7 138.1 297.9 146.6 300 146.6" fill="#990000" fill-opacity="1" stroke="none"/>
  <path id="Pfad-41" d="M295.2 124.7 C295.1 131.2 290 128.3 283.9 126.6 279.3 125.4 275.5 115.6 274.6 110.3 274.2 107.6 275.9 106.4 278.3 107.7 294.6 117 295.3 112.9 295.2 124.7 Z" fill="#990000" fill-opacity="1" stroke="none"/>
  <path id="Pfad-42" d="M300 86.7 C297.4 86.7 294.2 93.82 294.9 98.58 295.3 101.5 297.4 102.3 300 102.3" fill="#990000" fill-opacity="1" stroke="none"/>
  <path id="Pfad-43" d="M300 104.4 C297.4 104.4 293.2 104.2 290.8 107 288.6 109.6 292.5 108.3 294.6 108.3 296.2 108.4 298.9 108.6 300 108.6" fill="#990000" fill-opacity="1" stroke="none"/>
  <path id="Pfad-44" d="M300 113.8 C297.4 113.8 294.1 114.2 291.9 111.3 290.1 108.9 297.4 110.4 300 110.4" fill="#990000" fill-opacity="1" stroke="none"/>
  <path id="Pfad-45" d="M300 115.7 C294.5 115.7 295.5 117.8 296.2 122.6 296.6 125.5 297.4 129 300 129" fill="#990000" fill-opacity="1" stroke="none"/>
  <path id="Pfad-46" d="M290.9 104.2 C287.3 112.9 284.1 107.3 278 105.6 273.4 104.4 272.9 100.9 272 95.62 271.6 92.92 276.7 92.55 279.3 93.55 291 98.13 294.7 94.9 290.9 104.2 Z" fill="#990000" fill-opacity="1" stroke="none"/>
  <path id="Pfad-47" d="M275.9 66.24 C274.5 60.91 269.4 71.14 270.1 75.94 270.5 78.84 270.2 85.82 275 89.15 281.6 93.68 282.9 93.11 275.9 66.24 Z" fill="#990000" fill-opacity="1" stroke="none"/>
  <path id="Pfad-48" d="M269.9 85.29 C268.8 79.9 262.9 84.07 266.1 92.19 267.2 94.91 267.4 99.46 269.9 98.59 272.4 97.71 270.9 90.01 269.9 85.29 Z" fill="#990000" fill-opacity="1" stroke="none"/>
  <path id="Pfad-49" d="M298.9 55.81 C299.4 47.95 295.1 48.71 289.2 50.75 286.5 51.69 276.6 55.51 277.4 61.32 279.2 73.79 281.3 77.25 286.1 75.04 297.6 69.8 298 70.24 298.9 55.81 Z" fill="#990000" fill-opacity="1" stroke="none"/>
  <path id="Pfad-50" d="M300 84.72 C297.6 84.72 297.4 80.54 296.1 78.77 294.4 76.54 291.9 75.37 293.5 73.12 295.4 70.4 297.4 70.37 300 70.37" fill="#990000" fill-opacity="1" stroke="none"/>
  <path id="Pfad-51" d="M289.5 93.77 C286.9 93.63 284.7 92.32 282.5 89.42 280.7 87.02 286.3 87.67 288.9 87.53 292.3 87.35 296.4 84.62 296.2 87.14 295.8 91.05 291.9 93.91 289.5 93.77 Z" fill="#990000" fill-opacity="1" stroke="none"/>
  <path id="Pfad-52" d="M288.6 77.56 C293 77.46 293.4 77.17 295.3 81.83 296.4 84.6 291.5 85.6 288.9 85.77 285.5 85.99 282.4 86.66 281.6 84.26 280 79.4 284.9 77.61 288.6 77.56 Z" fill="#990000" fill-opacity="1" stroke="none"/>
 </g>
</svg>
