<?xml version="1.0" encoding="UTF-8"?>
<svg width="598px" height="657px" viewBox="0 0 598 657" xmlns="http://www.w3.org/2000/svg" xmlns:xlink="http://www.w3.org/1999/xlink" version="1.1">
 <!-- Generated by Pixelmator Pro 2.0.6 -->
 <g id="stag">
  <g id="antlers">
   <path id="Pfad" d="M288.086 60.341 C280.625 67.732 273.666 75.61 269.941 85.354 268.37 89.688 268.211 93.731 268.222 98.412 268.113 104.031 270.598 111.913 272.725 117.07 275.339 123.116 281.224 132.098 281.224 132.098 L263.974 134.484 C254.93 128.087 238.431 124.93 233.957 107.307 241.511 116.489 251.984 119.41 261.761 119.735 261.761 119.735 259.229 109.356 258.961 104.185 258.961 104.185 251.993 97.654 248.954 94.195 246.387 91.106 244.777 87.413 243.495 83.557 242.118 78.883 242.875 73.362 241.849 68.606 241.301 66.094 238.712 61.533 238.712 61.533 238.712 61.533 244.354 64.506 246.278 67.978 248.458 71.941 248.486 79.002 250.334 83.116 251.808 86.299 253.173 89.077 256.301 90.549 257.02 90.916 258.793 90.577 258.793 90.577 258.924 87.821 260.588 84.294 260.514 81.234 260.514 81.234 260.585 74.083 260.265 70.107 259.916 66.486 259.528 62.254 259.661 58.578 259.767 51.556 262.513 45.577 262.716 38.454 262.689 36.498 261.906 32.646 261.906 32.646 261.906 32.646 266.531 37.854 267.457 41.308 268.757 46.625 265.59 51.958 265.944 57.454 266.09 60.781 268.616 66.962 268.616 66.962 273.108 60.081 281.174 56.802 280.411 49.316 280.051 46.12 277.43 45.146 276.385 41.711 275.088 37.797 274.521 33.825 274.282 29.69 274.197 27.054 275.065 22.411 275.878 19.882 277.368 15.706 278.589 10.062 278.589 10.062 278.618 9.707 281.13 14.91 280.982 21.31 280.973 26.841 281.017 32.569 282.915 37.8 283.74 39.951 285.032 41.99 286.698 43.569 287.691 44.496 290.618 44.755 290.618 44.755 299.212 40.154 303.444 32.162 309.016 25.836 310.366 24.568 311.417 23.019 312.808 21.951 314.326 20.848 316.706 19.018 316.706 19.018 316.706 19.018 316.358 22.403 315.531 24.787 311.924 35.344 305.46 43.859 296.527 52.34 296.527 52.34 304.588 53.957 309.356 51.909 312.485 50.512 317.452 45.541 319.769 42.969 321.718 40.832 325.366 37.755 325.366 37.755 325.366 37.755 324.272 42.806 322.92 45.827 320.974 50.063 315.919 54.983 311.795 57.07 307.728 59.141 304.279 59.854 299.717 60.306 296.034 60.796 288.086 60.341 288.086 60.341 Z" fill="#000000" fill-opacity="1" stroke="#ffdd00" stroke-width="1" stroke-opacity="1" stroke-linejoin="round" stroke-linecap="round"/>
   <path id="Pfad-1" d="M280.618 135.864 C280.618 135.864 264.054 130.612 257.006 125.171 246.495 116.545 240.668 108.242 240.341 98.677 245.362 107.68 256.325 117.067 264.395 117.973 271.835 118.849 275.768 115.907 278.338 112.982 281.659 109.148 282.743 104.385 280.79 99.877 279.247 96.439 277.245 94.528 276.745 90.811 275.919 84.945 279.719 78.262 279.719 78.262 279.719 78.262 280.255 84.901 282.343 89.447 284.16 93.445 287.491 96.603 289.307 100.601 291.005 104.619 289.607 114.236 289.607 114.236 289.607 114.236 297.605 112.093 300.354 110.3 303.597 108.028 308.354 105.846 309.294 102.029 310.402 97.819 309.845 95.508 308.402 91.422 306.621 86.582 302.183 76.789 301.704 71.663 301.319 66.796 304.913 61.709 304.913 61.709 304.913 61.709 305.668 69.209 307.309 72.968 309.338 77.667 312.544 81.007 314.956 85.604 317.096 89.652 319.62 98.281 319.62 98.281 319.62 98.281 324.673 97.063 326.457 95.33 329.514 92.412 331.283 88.025 331.92 83.866 333.257 74.762 326.623 63.308 329.52 54.556 330.71 50.883 334.161 47.859 334.161 47.859 334.161 47.859 334.27 55.035 334.462 58.624 334.779 65.049 338.896 71.002 339.893 77.319 340.291 79.871 340.02 84.839 340.02 84.839 340.02 84.839 353.707 74.811 356.378 67.299 358.733 60.929 355.359 48.614 356.212 41.876 357.102 35.277 362.004 29.553 362.004 29.553 362.004 29.553 361.424 37.821 362.586 43.734 363.732 49.588 366.656 58.458 366.231 64.386 365.988 68.439 364.747 71.641 361.883 75.837 359.089 80.015 353.81 86.461 353.81 86.461 353.81 86.461 360.558 85.497 364.718 83.265 368.893 81.09 375.015 75.747 377.961 72.647 380.926 69.617 382.993 65.833 382.993 65.833 382.993 65.833 383.759 72.075 381.863 76.497 379.966 80.918 374.925 86.12 368.387 89.91 361.792 93.764 349.525 93.423 341.181 96.777 338.336 97.887 335.78 98.783 332.97 100.58 323.652 106.791 313.67 112.099 304.785 118.953 301.363 121.484 299.465 124.602 296.4 127.535 294.223 129.609 292.979 137.024 292.979 137.024 Z" fill="#000000" fill-opacity="1" stroke="#ffdd00" stroke-width="1" stroke-opacity="1" stroke-linejoin="round" stroke-linecap="round"/>
  </g>
  <g id="hooves">
   <g id="group">
    <path id="Pfad-2" d="M111.915 273.124 C109.202 279.69 108.338 287.127 99.93 296.089 103.594 295.852 107.574 295.407 110.702 292.705 110.752 295.674 107.635 300.733 105.969 303.788 113.735 301.707 117.798 299.252 121.534 294.648 125.377 289.519 128.02 282.226 129.12 271.496 Z" fill="#000000" fill-opacity="1" stroke="#ffdd00" stroke-width="1" stroke-opacity="1" stroke-linejoin="round" stroke-linecap="round"/>
    <path id="Pfad-3" d="M111.129 281.783 C111.629 285.5 110.96 289.033 109.65 292.49 109.565 292.637 109.311 293.078 108.994 293.287 108.709 293.612 108.276 293.852 108.191 293.999 L110.594 293.231 110.82 294.537 C112.122 290.586 112.742 285.947 111.129 281.783 Z" fill="#ffdd00" fill-opacity="1" stroke="none"/>
   </g>
   <g id="group-1">
    <path id="Pfad-4" d="M188.325 370.05 C194.328 373.908 201.643 376.172 208.914 386.15 209.551 382.501 209.948 378.419 207.764 374.905 210.771 375.465 215.29 379.348 217.975 381.486 217.579 373.517 215.904 369.121 211.988 364.704 207.715 359.886 200.807 355.898 190.307 352.872 Z" fill="#000000" fill-opacity="1" stroke="#ffdd00" stroke-width="1" stroke-opacity="1" stroke-linejoin="round" stroke-linecap="round"/>
    <path id="Pfad-5" d="M197.071 372.552 C200.828 372.664 204.315 374.09 207.549 375.956 207.727 376.157 208.052 376.443 208.261 376.759 208.501 377.192 208.741 377.625 208.888 377.709 L208.584 375.182 209.983 375.304 C205.93 373.16 201.453 371.751 197.071 372.552 Z" fill="#ffdd00" fill-opacity="1" stroke="none"/>
   </g>
   <g id="group-2">
    <path id="Pfad-6" d="M215.555 523.139 C210.383 528.873 206.782 536.298 194.893 542.465 198.729 543.798 202.966 544.775 207.13 543.162 205.959 546.209 200.994 550.397 198.183 552.889 206.757 553.822 211.834 552.834 217.133 549.427 223.096 545.717 228.398 539.078 233.456 528.281 Z" fill="#000000" fill-opacity="1" stroke="#ffdd00" stroke-width="1" stroke-opacity="1" stroke-linejoin="round" stroke-linecap="round"/>
    <path id="Pfad-7" d="M211.485 532.057 C210.678 536 208.641 539.527 205.955 542.483 205.901 542.746 205.468 542.986 205.036 543.226 204.688 543.319 204.224 543.444 204.024 543.622 L206.675 543.781 206.437 545.211 C209.285 541.467 211.653 536.857 211.485 532.057 Z" fill="#ffdd00" fill-opacity="1" stroke="none"/>
   </g>
   <g id="group-3">
    <path id="Pfad-8" d="M385.801 564.112 C383.042 571.436 382.511 579.654 373.572 589.875 377.731 589.631 382.144 588.945 385.494 585.687 385.553 589.15 382.475 594.82 380.786 598.254 389.418 595.693 393.735 592.796 397.663 587.52 401.73 581.834 404.325 573.436 404.999 561.577 Z" fill="#000000" fill-opacity="1" stroke="#ffdd00" stroke-width="1" stroke-opacity="1" stroke-linejoin="round" stroke-linecap="round"/>
    <path id="Pfad-9" d="M385.295 573.814 C386.119 577.817 385.575 581.814 384.242 585.65 384.157 585.797 383.934 586.354 383.617 586.563 383.247 587.035 382.814 587.275 382.729 587.422 L385.333 586.476 385.737 587.982 C386.999 583.42 387.348 578.233 385.295 573.814 Z" fill="#ffdd00" fill-opacity="1" stroke="none"/>
   </g>
  </g>
  <path id="stag-upper-limb" d="M153.627 267.911 C161.339 266.093 168.271 264.608 175.052 266.27 178.88 267.107 180.883 268.558 182.889 271.872 192.764 287.861 201.567 324.884 201.567 324.884 L238.413 329.795 252.874 308.652 C252.874 308.652 221.722 282.338 208.763 266.43 201.687 257.642 196.221 244.199 183.545 245.11 164.5 246.362 127.829 258.797 127.829 258.797 127.829 258.797 119.26 261.59 115.808 264.006 110.085 268.148 108.482 278.392 109.44 278.26 114.917 275.053 120.814 274.343 127.661 279.962 L133.854 274.327 C134.742 273.468 137.131 273.573 138.253 274.515 138.787 275.117 139.824 276.206 139.903 277.427 140.176 279.839 139.559 281.246 142.031 279.342 142.865 278.745 143.753 277.886 144.44 277.205 145.644 276.137 147.064 274.017 148.43 272.161 150.051 269.863 151.657 268.439 153.627 267.911 Z" fill="#000000" fill-opacity="1" stroke="#ffdd00" stroke-width="1" stroke-opacity="1" stroke-linejoin="round" stroke-linecap="round"/>
  <path id="stag-lower-limb" d="M304.183 469.079 C306.367 465.636 306.507 460.132 304.006 456.827 302.427 454.641 296.281 454.424 296.281 454.424 296.281 454.424 292.505 444.504 289.925 439.977 286.781 434.732 278.97 425.52 278.97 425.52 278.97 425.52 294.61 420.832 301.438 416.642 312.592 410.051 328.405 394.881 328.405 394.881 L311.691 354.76 C311.691 354.76 286.951 363.501 275.432 369.196 260.476 376.434 235.442 398.919 235.442 398.919 235.442 398.919 232.352 400.369 231.442 401.606 228.763 405.057 229.246 407.785 229.097 412.794 228.895 418.066 228.908 422.287 231.827 426.226 233.344 428.179 238.03 429.905 238.03 429.905 238.03 429.905 242.591 436.262 244.495 438.733 251.704 448.479 262.372 449.348 267.966 460.024 270.011 463.948 269.747 468.988 268.654 473.257 267.477 477.672 264.544 481.563 261.193 484.822 251.341 494.418 237.298 502.281 225.813 509.955 221.263 512.913 216.813 514.851 213.64 518.31 212.783 519.285 211.194 521.699 210.956 523.129 L209.835 529.144 C217.576 525.579 219.43 525.082 222.392 526.401 226.383 528.313 227.255 533.421 228.783 537.733 228.783 537.733 233.324 534.28 234.945 531.982 237.306 528.741 236.635 523.454 239.678 520.9 242.234 518.848 245.357 519.378 246.9 522.816 247.597 524.492 247.862 526.409 247.61 528.713 246.93 534.982 249.664 533.132 252.69 529.588 255.546 526.338 258.232 523.382 259.457 520.072 260.267 517.992 261.454 515.934 262.742 512.856 264.091 510.01 265.687 506.228 267.963 503.133 272.378 497.354 276.113 492.75 282.492 487.811 286.887 484.273 292.471 480.54 296.401 477.127 299.444 474.572 302.401 472.165 304.183 469.079 Z" fill="#000000" fill-opacity="1" stroke="#ffdd00" stroke-width="1" stroke-opacity="1" stroke-linejoin="round" stroke-linecap="round"/>
  <path id="stag-groin" d="M310.648 381.004 C310.648 381.004 307.45 382.979 306.223 384.426 305.366 385.401 304.187 387.953 304.187 387.953 L320.981 405.194 326.389 396.167 Z" fill="#000000" fill-opacity="1" stroke="#ffdd00" stroke-width="1" stroke-opacity="1" stroke-linejoin="round" stroke-linecap="round"/>
  <path id="stag-tongue" d="M218.463 201.093 C226.045 207.137 232.846 199.6 238.174 194.445 242.845 190.088 257.125 185.889 257.125 185.889 L252.001 180.677 C252.001 180.677 239.944 182.044 234.843 188.505 230.111 194.493 226.989 200.921 218.463 201.093 Z" fill="#cc0000" fill-opacity="1" stroke="#ffdd00" stroke-width="1" stroke-opacity="1" stroke-linejoin="round" stroke-linecap="round"/>
  <path id="stag-body" d="M236.071 200.972 C238.174 201.402 240.755 200.835 242.486 199.874 248.952 196.651 253.362 187.145 262.765 183.756 268.436 181.74 279.376 183.157 284.162 183.862 277.897 193.864 273.76 198.824 265.593 208.218 264.049 209.874 260.24 211.888 260.24 211.888 261.006 212.428 262.614 212.867 264.531 212.602 264.856 212.888 258.436 215.353 256.026 217.49 252.845 220.454 249.596 224.555 246.353 227.287 244.229 229.099 238.535 231.494 238.535 231.494 240.152 232.427 242.433 233.059 243.538 233.011 243.538 233.011 232.537 238.319 228.207 243.952 225.984 246.783 225.163 251.6 223.118 254.633 221.529 257.046 216.431 260.276 216.431 260.276 219.06 260.814 220.906 259.822 221.633 259.752 218.768 262.507 216.16 266.684 215.484 269.723 213.992 276.21 217.354 282.266 210.367 289.108 212.337 288.58 214.146 288.84 216.355 286.882 216.419 288.977 216.599 291.04 216.78 293.104 216.78 293.104 194.629 289.722 184.396 290.476 179.395 290.822 174.473 292.389 169.449 293.114 165.121 293.653 158.102 293.422 158.102 293.422 158.102 293.422 153.387 293.443 151.34 294.612 145.547 298.028 143.726 307.461 143.726 307.461 142.484 309.781 143.648 313.197 146.59 316.757 153.278 325.027 165.262 340.078 170.839 349.765 173.806 354.809 175.771 362.606 179.602 367.17 182.157 370.212 184.33 371.369 188.166 372.702 189.952 373.341 193.933 372.896 193.933 372.896 190.074 364.985 190.022 360.154 195.666 354.791 195.666 354.791 193.258 351.833 193.148 350.496 193.217 349.359 194.042 348.269 194.783 347.325 195.841 346.172 199.118 345.418 197.996 344.476 L196.727 343.45 C193.833 340.995 188.623 341.024 185.46 339.884 183.032 339.168 181.043 336.844 179.564 335.501 174.681 330.722 171.913 323.637 166.262 316.455 166.262 316.455 164.66 314.648 164.612 313.542 164.587 312.058 165.305 311.493 166.1 310.286 166.694 309.258 167.816 310.199 170.066 310.715 174.071 311.753 181.208 313.816 188.107 317.31 198.232 322.175 207.632 328.974 218.751 332.455 226.36 334.888 235.677 336.74 242.083 335.148 244.896 334.518 246.365 328.41 246.365 328.41 262.51 352.036 303.908 367.902 322.154 397.053 316.119 405.13 313.885 417.655 316.736 429.687 319.827 442.152 328.383 454.146 344.407 460.164 344.407 460.164 363.945 463.998 373.611 467.619 378.182 469.376 382.645 471.659 386.336 474.77 391.179 478.938 393.587 481.896 396.562 487.435 404.224 501.656 407.697 522.963 401.346 538.207 398.293 545.36 388.741 553.759 384.869 560.635 382.918 564.015 383.636 570.407 383.636 570.407 388.225 568.06 392.706 566.238 396.44 566.728 399.417 567.173 401.839 569.257 403.406 574.179 403.406 574.179 408.25 571.39 409.375 569.101 410.47 566.696 409.826 564.756 409.669 562.314 410.173 557.706 412.351 555.632 414.05 554.555 416.066 553.27 419.744 552.16 422.203 552.992 425.629 554.186 428.039 559.007 429.916 558.131 437.055 555.1 429.886 532.795 428.827 526.992 427.602 520.611 424.468 513.873 423.405 507.822 421.498 496.531 420.655 486.569 419.822 475.115 419.351 468.905 423.191 457.689 417.637 454.953 412.173 452.318 406.214 452.796 400.893 450.743 393.455 442.922 385.291 435.171 373.364 428.677 374.518 424.64 375.673 420.604 376.712 416.599 376.805 416.946 376.782 417.325 376.844 417.557 380.849 430.647 394.231 431.906 400.628 429.074 398.903 428.666 397.256 427.989 395.909 426.114 403.658 425.777 410.06 424.31 416.072 419.345 413.896 419.059 411.636 420.037 409.561 417.487 414.812 416.452 418.191 414.18 420.082 411.313 422.832 406.974 422.219 401.299 419.43 396.083 415.559 410.662 403.4 410.441 394.876 403.159 389.305 398.316 389.814 393.956 387.851 387.649 386.935 384.789 382.612 379.735 378.638 378.813 377.457 374.408 375.613 370.306 372.872 366.568 342.915 324.777 327.081 309.267 325.097 291.66 322.593 279.535 316.79 268.542 312.288 265.649 312.64 262.325 313.85 259.889 315.872 257.235 318.025 260.633 320.956 261.836 323.376 262.057 323.376 262.057 320.511 257.855 320.761 253.689 321.017 248.154 326.043 242.335 326.793 236.792 327.253 232.942 324.855 225.385 324.855 225.385 328.732 229.191 330.423 227.62 333.151 227.137 333.151 227.137 330.11 224.598 330.516 221.01 330.944 217.044 335.031 209.116 335.459 205.151 335.779 201.338 333.552 193.859 333.552 193.859 336.367 194.72 338.159 196.725 341.859 194.864 341.859 194.864 338.546 191.403 337.698 186.661 337.698 186.661 336.058 175.299 334.663 169.585 333.673 165.378 332.624 161.186 330.888 157.303 325.036 144.088 317.957 138.903 317.957 138.903 L320.274 137.537 C330.021 130.329 335.188 120.869 340.851 105.189 321.203 109.708 309.704 115.522 301.774 128.58 294.262 123.263 277.71 119.449 260.291 131.868 244.824 145.082 226.164 163.996 214.683 175.396 213.478 176.464 212.715 177.787 212.206 178.669 213.614 186.242 218.071 189.893 222.494 191.565 222.494 191.565 225.595 192.474 229.341 190.227 231.821 188.818 238.465 185.795 241.185 184.818 245.411 183.437 250.197 184.142 250.197 184.142 247.289 189.518 243.986 193.882 236.071 200.972 Z" fill="#000000" fill-opacity="1" stroke="#ffdd00" stroke-width="1" stroke-opacity="1" stroke-linejoin="round" stroke-linecap="round"/>
  <path id="Pfad-10" d="M226.467 294.484 L225.864 295.018 216.686 292.756 215.852 293.353 225.966 295.86 226.113 295.945 226.314 295.767 227.086 294.939 227.055 294.823 227.171 294.792 C227.677 292.047 229.701 284.3 233.383 279.959 229.111 282.097 227.174 291.561 226.467 294.484 Z" fill="#ffdd00" fill-opacity="1" stroke="none"/>
  <path id="Pfad-11" d="M255.366 311.463 C253.474 313.212 251.334 314.034 249.242 315.961 247.466 317.679 245.876 320.093 245.307 322.606 245.123 323.773 245.179 325.373 245.374 326.563 245.6 327.87 245.879 328.913 245.879 328.913 L246.575 328.726 C246.575 328.726 246.326 327.799 246.216 326.462 245.99 325.156 245.85 323.703 246.096 322.767 246.58 320.401 248.085 318.135 249.891 316.532 251.783 314.783 253.923 313.961 255.9 312.065 256.587 311.384 257.382 310.177 257.976 309.148 258.57 308.12 259.079 307.238 259.079 307.238 257.804 307.579 256.486 310.542 255.366 311.463 Z" fill="#ffdd00" fill-opacity="1" stroke="none"/>
  <g id="stag-ear">
   <path id="Pfad-12" d="M323.113 116.278 C313.821 119.389 306.209 127.516 301.886 138.737 L301.748 139.147 302.042 139.316 C304.153 140.241 306.626 140.2 308.713 139.641 310.714 139.229 312.646 138.09 314.546 136.836 318.295 134.092 321.657 130.458 324.097 128.065 321.305 129.931 315.765 134.894 314.096 136.086 312.343 137.426 310.381 138.448 308.527 138.945 306.788 139.411 304.894 139.298 303.223 138.627 304.726 134.497 309.339 126.677 314.598 122.286 320.594 117.077 327.29 115.407 327.317 115.276 325.848 115.545 324.48 115.911 323.113 116.278 Z" fill="#ffdd00" fill-opacity="1" stroke="none"/>
   <path id="Pfad-13" d="M319.845 137.279 C315.817 139.725 310.804 142.808 304.731 145.18 304.213 145.567 304.685 145.938 305.443 145.983 311.632 143.58 316.127 140.884 320.298 137.903 Z M302.614 126.616 C300.114 130.267 297.769 134.498 295.41 139.603 295.542 140.561 296.068 140.669 296.554 140.166 298.682 135.123 300.849 130.691 303.233 127.071 Z" fill="#ffdd00" fill-opacity="1" stroke="none"/>
  </g>
  <g id="stag-eye">
   <path id="Pfad-14" d="M261.398 145.734 C262.039 145.811 262.766 145.741 263.238 146.111 263.826 146.451 264.213 146.968 264.399 147.663 264.625 148.969 264.093 150.23 263.013 151.762 261.964 153.41 260.326 154.718 258.24 155.277 256.123 155.72 253.988 155.174 252.372 154.24 250.755 153.307 249.509 151.902 249.167 150.627 248.981 149.931 249.173 149.259 249.544 148.787 249.914 148.315 250.432 147.927 251.096 147.625 252.425 147.021 254.435 147.103 256.436 146.691 258.407 146.163 259.914 145.759 261.398 145.734 Z" fill="#ffffff" fill-opacity="1" stroke="#ffdd00" stroke-width="1" stroke-opacity="1" stroke-linejoin="round" stroke-linecap="round"/>
   <g id="group-4">
    <path id="Pfad-15" d="M251.827 151.281 C252.007 153.344 253.895 154.826 255.959 154.646 257.992 154.35 259.473 152.462 259.293 150.398 259.082 148.219 257.194 146.737 255.161 147.033 252.982 147.244 251.5 149.132 251.827 151.281 Z" fill="#333333" fill-opacity="1" stroke="none"/>
    <path id="Pfad-16" d="M255.311 148.981 C256.385 148.817 257.414 149.411 257.461 150.516 257.625 151.591 256.737 152.45 255.779 152.582 254.704 152.746 253.792 152.121 253.628 151.047 253.433 149.856 254.321 148.997 255.311 148.981 Z" fill="#000000" fill-opacity="1" stroke="none"/>
    <path id="Pfad-17" d="M255.936 148.068 C255.418 148.455 255.257 149.243 255.675 149.877 256.093 150.51 256.851 150.556 257.368 150.169 257.886 149.781 258.047 148.993 257.629 148.359 257.211 147.726 256.453 147.681 255.936 148.068 Z" fill="#ffffff" fill-opacity="1" stroke="none"/>
   </g>
  </g>
  <g id="stag-nose">
   <path id="Pfad-18" d="M214.239 185.329 C219.618 185.006 225.622 176.813 217.61 172.872 217.61 172.872 214.875 174.723 213.849 175.992 213.077 176.82 212.104 177.826 212.036 178.963 211.753 181.15 214.239 185.329 214.239 185.329 Z" fill="#333333" fill-opacity="1" stroke="none"/>
   <path id="Pfad-19" d="M215.373 183.535 C215.373 183.535 215.408 180.419 216.265 179.444 216.867 178.91 217.577 177.851 218.397 178.128 218.953 178.351 219.233 179.395 218.978 179.835 218.339 181.622 215.373 183.535 215.373 183.535 Z" fill="#000000" fill-opacity="1" stroke="none"/>
  </g>
  <g id="crown">
   <path id="Pfad-20" d="M312.839 267.241 L337.307 244.037 C334.939 241.69 331.906 239.646 328.294 237.756 327.767 242.742 327.44 247.551 325.311 250.73 323.18 246.953 323.702 243.335 324.192 239.601 L314.628 250.735 C317.025 251.335 316.019 250.363 322.274 251.917 320.722 253.078 318.18 254.256 315.707 254.298 L315.591 254.329 C314.833 254.283 313.96 254.269 313.256 253.96 311.206 253.267 309.991 251.978 309.325 250.417 308.751 249.204 308.379 247.813 309.057 246.638 309.366 245.934 309.705 245.346 309.867 244.557 310.152 244.232 310.932 243.899 311.342 244.038 311.752 244.176 311.591 244.965 311.568 245.344 311.322 246.279 310.488 246.875 310.357 247.78 310.227 248.685 310.36 249.643 310.84 250.508 311.405 251.226 312.844 251.959 312.844 251.959 L313.274 249.856 C313.512 248.425 315.367 247.929 316.161 246.722 316.817 245.925 317.326 245.043 317.457 244.138 317.525 243.002 317.214 241.843 316.502 241.04 316.324 240.839 315.883 240.585 315.589 240.415 315.033 240.191 313.896 240.123 313.896 240.123 313.896 240.123 314.807 238.885 315.084 238.066 315.415 236.983 315.436 234.741 315.388 233.636 315.301 231.92 314.657 229.981 314.595 229.749 314.363 229.811 312.424 230.455 310.956 231.469 310.006 232.096 308.886 233.018 308.261 233.931 307.721 234.696 307.051 236.367 307.051 236.367 307.051 236.367 305.867 235.193 305.426 234.939 305.101 234.653 304.691 234.515 304.312 234.492 303.292 234.393 302.164 234.819 301.361 235.531 300.673 236.212 300.195 237.21 299.949 238.146 299.448 239.522 299.852 241.029 298.763 242.066 L297.335 243.691 C297.335 243.691 298.774 244.424 299.616 244.322 300.606 244.305 301.355 243.856 302.158 243.144 302.729 242.494 302.976 241.559 303.841 241.078 304.189 240.985 304.621 240.745 304.915 240.915 305.356 241.169 305.342 242.043 305.203 242.453 L304.448 244.27 C304.224 244.827 303.622 245.361 303.189 245.601 301.891 246.321 300.554 246.431 299.07 246.456 297.555 246.365 296.21 245.98 294.802 245.364 293.657 244.801 291.631 243.729 290.741 242.725 289.588 241.667 289.076 240.686 288.41 239.126 288.076 238.345 288.06 237.356 288.19 236.451 288.289 235.431 289.107 233.845 289.107 233.845 290.175 235.05 291.011 236.316 291.732 237.614 292.63 239.113 293.181 240.704 293.585 242.211 L300.925 226.951 C298.7 227.92 297.086 228.85 294.968 229.293 293.345 229.728 292.503 229.829 291.073 229.591 292.046 228.585 292.47 227.851 293.999 227.068 295.93 225.929 298.062 224.613 300.403 223.613 297.843 221.938 295.081 220.442 292.382 219.178 289.536 217.828 286.752 216.711 283.798 215.887 284.45 218.321 284.84 220.702 285.198 222.966 285.548 224.736 285.355 225.409 285.117 226.839 284.111 225.866 283.577 225.264 282.88 223.587 282.035 221.826 281.654 219.94 280.917 217.653 L273.87 233.083 C275.315 232.447 276.907 231.896 278.56 231.578 280.067 231.174 281.52 231.033 283.182 231.209 283.182 231.209 282.597 232.732 281.825 233.56 281.254 234.21 280.419 234.806 279.639 235.14 278.016 235.575 276.973 235.854 275.396 235.531 274.144 235.494 271.947 234.716 270.803 234.153 269.364 233.421 268.304 232.711 267.236 231.506 266.23 230.533 265.541 229.351 265.284 227.929 265.244 227.319 265.205 226.708 265.544 226.12 L266.447 224.388 C266.701 223.947 267.273 223.297 267.714 223.551 268.123 223.69 268.248 224.154 268.341 224.501 268.473 225.46 267.817 226.257 267.834 227.246 267.704 228.151 267.952 229.078 268.548 229.912 269.082 230.514 270.637 231.216 270.637 231.216 L270.835 229.175 C271.042 227.629 272.34 226.908 273.135 225.702 273.791 224.905 274.269 223.907 274.136 222.949 274.236 221.928 273.925 220.769 273.097 219.997 272.803 219.827 272.478 219.542 272.099 219.519 271.542 219.295 269.911 219.236 269.911 219.236 269.911 219.236 270.814 217.503 270.975 216.714 271.306 215.632 271.281 214.148 271.118 213.073 270.884 211.273 270.155 209.48 270.093 209.248 269.861 209.31 267.952 210.07 266.485 211.085 265.682 211.797 263.929 213.136 263.451 214.134 263.027 214.869 262.704 216.446 262.704 216.446 262.704 216.446 261.876 215.674 261.288 215.335 260.994 215.165 260.584 215.026 260.205 215.003 259.1 215.051 258.003 215.594 257.316 216.275 256.513 216.987 256.267 217.922 256.051 218.974 255.698 220.435 256.511 222.081 255.569 223.203 L254.141 224.828 C254.141 224.828 255.812 225.498 256.507 225.312 257.466 225.179 258.331 224.699 258.987 223.902 259.558 223.252 259.542 222.263 260.229 221.582 260.367 221.172 260.823 220.553 261.264 220.807 261.704 221.062 262.038 221.842 261.783 222.283 261.475 222.987 261.166 223.691 260.827 224.279 260.295 225.539 258.966 226.144 257.807 226.454 256.069 226.92 254.322 226.891 252.411 225.788 249.619 224.176 248.215 220.328 248.111 217.623 253.441 221.288 251.957 221.313 254.046 222.617 L256.278 208.229 C253.761 210.891 251.361 213.522 247.041 214.555 248.173 210.898 251.577 207.377 255.098 203.824 251.347 202.345 247.721 201.329 244.396 200.977 L242.373 234.69 C268.893 240.007 290.783 252.155 312.839 267.241 Z" fill="#ffdd00" fill-opacity="1" stroke="#555500" stroke-width="1" stroke-opacity="1" stroke-linejoin="round" stroke-linecap="round"/>
   <path id="Pfad-21" d="M259.97 225.254 L259.651 223.6 261.034 222.732 266.602 224.967 266.743 226.42 265.507 227.373 Z" fill="#ffdd00" fill-opacity="1" stroke="#555500" stroke-width="1" stroke-opacity="1" stroke-linejoin="round" stroke-linecap="round"/>
   <path id="Pfad-22" d="M309.885 247.409 L309.713 245.841 304.485 243.018 303.102 243.885 303.243 245.338 308.472 248.161 Z" fill="#ffdd00" fill-opacity="1" stroke="#555500" stroke-width="1" stroke-opacity="1" stroke-linejoin="round" stroke-linecap="round"/>
  </g>
 </g>
</svg>
