<?xml version="1.0" encoding="UTF-8"?>
<svg width="598px" height="657px" viewBox="0 0 598 657" xmlns="http://www.w3.org/2000/svg" xmlns:xlink="http://www.w3.org/1999/xlink" version="1.1">
 <!-- Generated by Pixelmator Pro 2.0.6 -->
 <g id="stag">
  <g id="antlers">
   <path id="Pfad" d="M107.9 54.52 C115.5 58.86 122.8 63.7 127.9 70.74 130.1 73.89 131.1 77.11 132.1 80.88 133.4 85.38 133.1 92.26 132.5 96.87 131.7 102.3 128.9 110.8 128.9 110.8 L143.3 109 C149.2 101.9 161.8 95.8 161.6 80.65 157.5 89.67 149.7 94.28 141.9 96.65 141.9 96.65 141.7 87.75 140.8 83.53 140.8 83.53 145 76.77 146.7 73.33 148.1 70.29 148.6 66.97 148.8 63.59 148.9 59.53 147.1 55.25 146.9 51.2 146.8 49.06 147.9 44.83 147.9 44.83 147.9 44.83 144 48.44 143.2 51.65 142.3 55.31 143.8 61 143.2 64.71 142.7 67.59 142.2 70.12 140 71.98 139.5 72.43 138 72.54 138 72.54 137.3 70.35 135.2 67.87 134.6 65.39 134.6 65.39 133 59.65 132.4 56.38 131.9 53.39 131.3 49.9 130.4 46.97 128.8 41.34 125.3 37.12 123.6 31.43 123.2 29.85 123 26.58 123 26.58 123 26.58 120.4 31.77 120.4 34.75 120.5 39.31 124.2 42.92 125.1 47.42 125.7 50.13 125 55.65 125 55.65 119.9 51.08 112.7 50.18 111.7 43.99 111.3 41.34 113.2 39.99 113.3 37 113.5 33.57 113.1 30.25 112.4 26.87 111.9 24.73 110.2 21.18 109 19.32 106.9 16.28 104.7 12 104.7 12 104.6 11.72 103.7 16.45 105.2 21.57 106.4 26.02 107.6 30.64 107.2 35.26 107 37.17 106.4 39.09 105.4 40.72 104.8 41.68 102.5 42.52 102.5 42.52 94.59 40.67 89.46 35.15 83.61 31.26 82.25 30.53 81.07 29.51 79.72 28.95 78.26 28.39 75.95 27.43 75.95 27.43 75.95 27.43 76.96 30.08 78.14 31.82 83.32 39.54 90.36 45 99.38 49.9 99.38 49.9 93.24 52.94 88.96 52.32 86.14 51.87 81.07 48.94 78.65 47.37 76.62 46.07 73.02 44.38 73.02 44.38 73.02 44.38 74.99 48.21 76.73 50.35 79.21 53.34 84.34 56.21 88.11 57 91.83 57.79 94.76 57.62 98.53 57 101.6 56.6 107.9 54.52 107.9 54.52 Z" fill="#000000" fill-opacity="1" stroke="#ffdd00" stroke-width="1" stroke-opacity="1" stroke-linejoin="round" stroke-linecap="round"/>
   <path id="Pfad-1" d="M130.2 113.7 C130.2 113.7 142.4 105.9 146.9 100 153.5 90.79 156.4 82.85 154.6 75.08 152.5 83.41 145.7 93.33 139.4 95.8 133.6 98.11 129.8 96.59 127.1 94.79 123.6 92.42 121.7 88.82 122.3 84.77 122.8 81.67 124 79.7 123.6 76.6 123 71.7 118.5 67.14 118.5 67.14 118.5 67.14 119.5 72.6 118.8 76.71 118.2 80.32 116.2 83.58 115.6 87.19 115.1 90.79 118.3 98.23 118.3 98.23 118.3 98.23 111.4 98.23 108.8 97.38 105.7 96.25 101.4 95.52 99.82 92.65 98.02 89.5 97.97 87.52 98.25 83.92 98.64 79.64 100.1 70.8 99.38 66.57 98.64 62.57 94.65 59.25 94.65 59.25 94.65 59.25 95.66 65.45 95.15 68.83 94.53 73.05 92.67 76.43 91.72 80.65 90.87 84.37 90.7 91.86 90.7 91.86 90.7 91.86 86.37 91.97 84.56 90.96 81.47 89.27 79.1 86.12 77.69 82.91 74.65 75.87 77.52 65.22 73.3 58.8 71.55 56.1 68.12 54.41 68.12 54.41 68.12 54.41 69.58 60.21 70.2 63.14 71.33 68.38 69.3 74.06 69.86 79.36 70.09 81.5 71.38 85.44 71.38 85.44 71.38 85.44 58.2 80.32 54.43 74.85 51.16 70.23 51.22 59.59 49.08 54.35 46.94 49.23 41.76 45.68 41.76 45.68 41.76 45.68 44.01 52.21 44.35 57.22 44.69 62.18 44.25 69.95 45.87 74.63 46.94 77.84 48.63 80.15 51.84 82.91 54.99 85.67 60.63 89.72 60.63 89.72 60.63 89.72 54.99 90.4 51.16 89.5 47.33 88.65 41.25 85.67 38.21 83.81 35.17 82.01 32.69 79.41 32.69 79.41 32.69 79.41 33.42 84.6 35.9 87.75 38.38 90.9 43.56 94 49.64 95.64 55.78 97.32 65.58 94.4 73.02 95.3 75.55 95.58 77.8 95.75 80.45 96.59 89.29 99.58 98.47 101.7 107.1 105.3 110.4 106.6 112.6 108.7 115.7 110.4 117.9 111.6 120.5 117.3 120.5 117.3 Z" fill="#000000" fill-opacity="1" stroke="#ffdd00" stroke-width="1" stroke-opacity="1" stroke-linejoin="round" stroke-linecap="round"/>
  </g>
  <g id="hooves">
   <g id="group">
    <path id="Pfad-2" d="M295.6 187.8 C299.2 192.5 301.5 198.3 310.2 203.7 307.2 204.3 303.9 204.8 300.8 203.3 301.4 205.7 305 209.1 307 211.2 300.3 211.2 296.5 210.1 292.5 207.2 288.3 203.9 284.6 198.6 281.4 190.2 Z" fill="#000000" fill-opacity="1" stroke="#ffdd00" stroke-width="1" stroke-opacity="1" stroke-linejoin="round" stroke-linecap="round"/>
    <path id="Pfad-3" d="M298.1 194.6 C298.5 197.7 299.8 200.4 301.6 202.9 301.7 203 302 203.3 302.3 203.4 302.6 203.6 303 203.7 303.1 203.8 L301 203.7 301.1 204.8 C299.2 201.9 297.7 198.3 298.1 194.6 Z" fill="#ffdd00" fill-opacity="1" stroke="none"/>
   </g>
   <g id="group-1">
    <path id="Pfad-4" d="M255 282.3 C251 286.7 245.6 290.1 241.9 299.7 240.6 296.9 239.4 293.7 240.4 290.4 238.1 291.5 235.3 295.6 233.6 297.9 232.2 291.4 232.6 287.5 234.8 283.1 237.2 278.3 241.9 273.6 249.7 268.9 Z" fill="#000000" fill-opacity="1" stroke="#ffdd00" stroke-width="1" stroke-opacity="1" stroke-linejoin="round" stroke-linecap="round"/>
    <path id="Pfad-5" d="M248.5 286.2 C245.5 287.1 243 289 240.8 291.2 240.7 291.4 240.5 291.7 240.4 292 240.3 292.4 240.2 292.8 240.1 292.9 L239.8 290.8 238.7 291.2 C241.5 288.6 244.8 286.5 248.5 286.2 Z" fill="#ffdd00" fill-opacity="1" stroke="none"/>
   </g>
   <g id="group-2">
    <path id="Pfad-6" d="M266.1 411.4 C271.5 414.9 276 420.1 286.9 422.5 284.1 424.4 280.9 426.1 277.2 425.7 278.8 427.9 283.7 430.2 286.5 431.6 279.8 434.2 275.5 434.5 270.5 432.9 264.9 431.2 259.2 427 252.8 419.4 Z" fill="#000000" fill-opacity="1" stroke="#ffdd00" stroke-width="1" stroke-opacity="1" stroke-linejoin="round" stroke-linecap="round"/>
    <path id="Pfad-7" d="M271.3 417.7 C272.8 420.7 275.2 423.1 278 424.9 278.1 425.1 278.5 425.2 278.9 425.3 279.2 425.3 279.6 425.3 279.8 425.4 L277.7 426.1 278.2 427.2 C275.1 424.8 272.2 421.6 271.3 417.7 Z" fill="#ffdd00" fill-opacity="1" stroke="none"/>
   </g>
   <g id="group-3">
    <path id="Pfad-8" d="M137.9 481.1 C141.7 486.4 143.9 492.9 153.3 499.2 149.9 499.9 146.2 500.3 142.8 498.4 143.5 501.2 147.2 505.1 149.3 507.5 141.8 507.3 137.7 505.9 133.4 502.5 128.9 498.8 125 492.6 121.9 483.2 Z" fill="#000000" fill-opacity="1" stroke="#ffdd00" stroke-width="1" stroke-opacity="1" stroke-linejoin="round" stroke-linecap="round"/>
    <path id="Pfad-9" d="M140.4 488.8 C140.6 492.2 141.9 495.3 143.8 498.1 143.9 498.2 144.2 498.6 144.5 498.7 144.9 499 145.3 499.1 145.4 499.2 L143.1 499 143.1 500.3 C141.1 496.9 139.7 492.8 140.4 488.8 Z" fill="#ffdd00" fill-opacity="1" stroke="none"/>
   </g>
  </g>
  <path id="stag-upper-limb" d="M260.9 192.6 C254.3 192.8 248.4 193.1 243.3 195.9 240.4 197.4 239.1 199 238.2 202.1 233.7 217.1 234.6 248.8 234.6 248.8 L206 260.7 189.8 246.8 C189.8 246.8 209.2 218.9 216.2 203.3 220 194.7 221.5 182.7 231.9 180.7 247.5 177.6 279.7 179.7 279.7 179.7 279.7 179.7 287.2 180.1 290.5 181.3 296 183.4 299.5 191.3 298.7 191.4 293.6 190 288.7 190.7 284.4 196.7 L278.2 193.5 C277.3 193 275.4 193.6 274.7 194.6 274.4 195.2 273.8 196.3 274 197.3 274.3 199.3 275.1 200.3 272.7 199.3 271.9 199 271 198.5 270.3 198.1 269.1 197.5 267.5 196.1 266 194.9 264.2 193.4 262.6 192.6 260.9 192.6 Z" fill="#000000" fill-opacity="1" stroke="#ffdd00" stroke-width="1" stroke-opacity="1" stroke-linejoin="round" stroke-linecap="round"/>
  <path id="stag-lower-limb" d="M183.1 387 C180.6 384.7 179.3 380.3 180.6 377.1 181.4 375 186.3 373.5 186.3 373.5 186.3 373.5 187.2 364.7 188.3 360.5 189.7 355.6 194 346.5 194 346.5 194 346.5 180.4 346.1 174 344.2 163.6 341.3 147.6 332.5 147.6 332.5 L152.4 296.6 C152.4 296.6 174.2 298.3 184.7 300.4 198.3 303 223.3 315.7 223.3 315.7 223.3 315.7 226.1 316.2 227.1 317 230 319.2 230.2 321.5 231.4 325.5 232.7 329.7 233.6 333.1 232.1 336.9 231.3 338.8 227.9 341.2 227.9 341.2 227.9 341.2 225.6 347.3 224.6 349.7 220.9 359.1 212.5 362.1 210.3 371.9 209.5 375.5 210.8 379.5 212.6 382.7 214.5 386 217.7 388.5 221.1 390.4 231.1 396 244.1 399.3 255 403 259.3 404.4 263.3 405 266.6 407.1 267.5 407.7 269.3 409.3 269.8 410.4 L272 415 C265 413.8 263.4 413.8 261.3 415.5 258.5 417.9 258.9 422.2 258.6 426 258.6 426 254.2 424.2 252.4 422.7 249.8 420.6 249.2 416.2 246.2 414.8 243.7 413.7 241.3 414.8 240.8 417.9 240.6 419.4 240.8 421 241.5 422.8 243.4 427.7 240.8 426.8 237.6 424.6 234.6 422.6 231.8 420.8 230.1 418.4 229 416.9 227.6 415.5 225.9 413.3 224.2 411.3 222.1 408.6 219.6 406.6 214.8 402.9 210.8 400 204.6 397.4 200.3 395.5 195 393.7 191.1 391.8 188.1 390.4 185.2 389.1 183.1 387 Z" fill="#000000" fill-opacity="1" stroke="#ffdd00" stroke-width="1" stroke-opacity="1" stroke-linejoin="round" stroke-linecap="round"/>
  <path id="stag-groin" d="M158.9 317.5 C158.9 317.5 161.9 318.4 163.2 319.3 164.1 319.9 165.6 321.7 165.6 321.7 L155.8 339.2 149.5 333.1 Z" fill="#000000" fill-opacity="1" stroke="#ffdd00" stroke-width="1" stroke-opacity="1" stroke-linejoin="round" stroke-linecap="round"/>
  <path id="stag-tongue" d="M194.3 152.8 C189.5 159.3 182.4 154.7 177 151.7 172.3 149.2 159.9 148.9 159.9 148.9 L162.9 143.6 C162.9 143.6 172.9 142.1 178.4 146.2 183.5 150 187.4 154.5 194.3 152.8 Z" fill="#cc0000" fill-opacity="1" stroke="#ffdd00" stroke-width="1" stroke-opacity="1" stroke-linejoin="round" stroke-linecap="round"/>
  <path id="stag-body" d="M180.1 156.5 C178.5 157.3 176.3 157.4 174.7 157 168.8 155.8 163.2 149.1 154.9 148.4 149.9 148 141.4 151.5 137.7 153.1 144.9 159.8 149.3 162.9 157.9 168.7 159.5 169.7 163 170.5 163 170.5 162.5 171.1 161.3 171.8 159.7 172 159.5 172.3 165.2 172.9 167.6 174.1 170.8 175.8 174.3 178.4 177.5 179.9 179.6 180.9 184.7 181.6 184.7 181.6 183.6 182.7 181.9 183.7 181 183.9 181 183.9 191 185.8 195.7 189.4 198.1 191.2 199.8 194.9 202.1 196.9 203.9 198.5 208.7 200 208.7 200 206.7 201 205 200.6 204.4 200.7 207.3 202.3 210.3 205.1 211.5 207.4 214.1 212.3 212.7 217.9 219.8 221.9 218.1 221.9 216.7 222.5 214.5 221.4 214.9 223.1 215.2 224.8 215.5 226.5 215.5 226.5 232.6 219 241 217.4 245.1 216.6 249.4 216.8 253.6 216.3 257.2 215.8 262.8 214.1 262.8 214.1 262.8 214.1 266.6 213.1 268.5 213.6 273.9 215.1 277.4 222.3 277.4 222.3 278.9 223.9 278.7 226.9 277.1 230.4 273.5 238.5 267.1 253.2 264.7 262.2 263.4 266.9 263.5 273.6 261.4 278.1 260 281.1 258.5 282.5 255.7 284.4 254.4 285.3 251.1 285.8 251.1 285.8 252.5 278.6 251.5 274.7 245.8 271.6 245.8 271.6 247.1 268.7 246.9 267.6 246.6 266.7 245.7 266 244.9 265.4 243.8 264.7 241 264.8 241.7 263.8 L242.5 262.7 C244.3 260.1 248.5 259 250.8 257.4 252.6 256.3 253.7 254 254.6 252.6 257.5 247.7 258.2 241.4 261.2 234.4 261.2 234.4 262.1 232.6 261.9 231.7 261.6 230.5 260.9 230.2 260 229.4 259.3 228.7 258.6 229.7 256.9 230.6 253.9 232.3 248.6 235.5 243.8 239.8 236.7 245.9 230.6 253.4 222.4 258.6 216.8 262.2 209.7 265.7 204.2 265.8 201.8 265.9 199.3 261.3 199.3 261.3 191.4 283.8 161.5 305.5 153.1 332.9 159.7 338.1 164.2 347.7 164.5 358 164.7 368.7 160.4 380.2 148.8 388.5 148.8 388.5 133.9 395.8 126.9 400.8 123.6 403.2 120.5 406 118.2 409.3 115.2 413.7 113.9 416.6 112.7 421.7 109.6 434.8 111.4 452.7 119.8 463.6 123.8 468.7 133.3 473.4 137.9 478.1 140.2 480.4 141 485.7 141 485.7 136.8 484.8 132.8 484.3 129.9 485.5 127.6 486.5 126.1 488.7 125.9 493 125.9 493 121.4 491.8 120 490.2 118.6 488.5 118.7 486.8 118.3 484.8 116.9 481.2 114.7 480 113.1 479.5 111.2 478.9 108 478.8 106.2 480 103.7 481.7 102.8 486.1 101.1 485.8 94.7 484.9 95.66 465.4 95.26 460.5 94.87 455.1 95.94 449 95.49 443.9 94.59 434.4 93.12 426.2 91.32 416.8 90.36 411.7 84.85 403.5 88.73 400.1 92.56 396.8 97.46 395.9 101.3 393.1 105.6 385.2 110.5 377.2 118.7 369.4 116.9 366.4 115.1 363.4 113.4 360.4 113.4 360.7 113.5 361 113.5 361.2 113.1 372.6 102.6 376.5 96.84 375.6 98.14 374.9 99.32 374 100 372.2 93.69 373.6 88.22 373.8 82.31 371.1 84 370.4 86.03 370.7 87.15 368.2 82.7 368.5 79.49 367.4 77.35 365.5 74.2 362.6 73.47 357.9 74.59 353.1 80.85 364 90.59 361.2 95.88 353.5 99.32 348.4 97.97 345 98.19 339.5 98.31 337 100.7 332 103.7 330.4 103.7 326.6 104.3 322.9 105.7 319.3 120.8 279.2 130.2 263.3 128 248.7 127.4 238.4 129.7 228.3 132.7 225 131.7 222.4 130.2 220.7 128 219 127 222.2 124.9 223.8 123 224.5 123 224.5 124.4 220.5 123.3 217.2 121.9 212.8 116.6 209.2 114.8 204.9 113.6 201.9 113.9 195.3 113.9 195.3 111.6 199.2 109.9 198.3 107.6 198.5 107.6 198.5 109.5 195.8 108.4 193 107.2 189.9 102.2 184.4 101 181.3 99.92 178.3 100.1 171.8 100.1 171.8 98.02 173.1 97.01 175.1 93.63 174.4 93.63 174.4 95.55 170.9 95.21 166.9 95.21 166.9 94.08 157.4 93.97 152.5 93.86 148.9 93.8 145.3 94.36 141.8 96.22 129.9 100.8 124.2 100.8 124.2 L98.64 123.6 C89.24 119.9 83.04 113.4 75.1 102 91.89 101.4 102.4 103.6 111.6 112.4 116.5 106.5 129 99.86 145.7 106.1 161 113.4 180.1 124.6 191.8 131.3 193 131.9 193.9 132.8 194.5 133.4 195 139.8 192.2 143.7 189 146 189 146 186.7 147.4 183.2 146.4 180.9 145.8 174.9 144.8 172.5 144.6 168.8 144.4 165.1 146 165.1 146 168.6 149.7 172.2 152.5 180.1 156.5 Z" fill="#000000" fill-opacity="1" stroke="#ffdd00" stroke-width="1" stroke-opacity="1" stroke-linejoin="round" stroke-linecap="round"/>
  <path id="Pfad-10" d="M208 229.7 L208.6 230 215.5 226.2 216.3 226.5 208.7 230.7 208.6 230.8 208.4 230.7 207.6 230.2 207.6 230.1 207.5 230.1 C206.5 228 203.2 222.2 199.3 219.5 203.2 220.3 206.8 227.5 208 229.7 Z" fill="#ffdd00" fill-opacity="1" stroke="none"/>
  <path id="Pfad-11" d="M188.4 249.6 C190.3 250.6 192.2 250.8 194.3 251.9 196.1 252.9 197.9 254.5 198.9 256.4 199.3 257.3 199.6 258.6 199.7 259.6 199.8 260.7 199.8 261.6 199.8 261.6 L199.2 261.6 C199.2 261.6 199.2 260.8 199 259.7 198.9 258.6 198.7 257.4 198.3 256.7 197.4 254.9 195.7 253.4 193.9 252.5 192 251.5 190.1 251.3 188.1 250.2 187.4 249.8 186.5 249 185.8 248.3 185.1 247.6 184.5 247 184.5 247 185.6 247 187.3 249.1 188.4 249.6 Z" fill="#ffdd00" fill-opacity="1" stroke="none"/>
  <g id="stag-ear">
   <path id="Pfad-12" d="M91.77 107.1 C99.92 107.6 107.8 112.5 113.7 120.6 L113.9 120.9 113.7 121.1 C112.2 122.3 110.2 122.8 108.4 122.8 106.7 122.9 104.9 122.4 103.1 121.8 99.49 120.4 96 118.2 93.52 116.8 96.17 117.7 101.7 120.5 103.3 121.1 105 121.8 106.8 122.2 108.4 122.2 109.9 122.2 111.4 121.7 112.6 120.8 110.5 117.8 105.1 112.5 99.92 110.1 93.97 107.2 88.22 107.3 88.17 107.2 89.41 107.1 90.59 107.1 91.77 107.1 Z" fill="#ffdd00" fill-opacity="1" stroke="none"/>
   <path id="Pfad-13" d="M98.93 123.3 C102.7 124.4 107.4 125.8 112.8 126.4 113.3 126.6 113 127 112.4 127.2 106.9 126.6 102.7 125.4 98.7 123.9 Z M110.5 111 C113.3 113.4 116.1 116.3 119.1 119.9 119.2 120.7 118.8 120.9 118.3 120.6 115.5 117 112.8 113.9 110.1 111.5 Z" fill="#ffdd00" fill-opacity="1" stroke="none"/>
  </g>
  <g id="stag-eye">
   <path id="Pfad-14" d="M147.8 117.5 C147.3 117.7 146.7 117.8 146.4 118.2 146 118.6 145.8 119.1 145.8 119.7 145.9 120.8 146.6 121.7 147.8 122.7 149 123.8 150.6 124.5 152.4 124.5 154.2 124.4 155.8 123.5 156.9 122.4 158 121.3 158.7 119.9 158.7 118.8 158.7 118.2 158.4 117.7 158 117.4 157.6 117.1 157.1 116.9 156.5 116.8 155.3 116.6 153.7 117.1 152 117.2 150.3 117.2 149 117.2 147.8 117.5 Z" fill="#ffffff" fill-opacity="1" stroke="#ffdd00" stroke-width="1" stroke-opacity="1" stroke-linejoin="round" stroke-linecap="round"/>
   <g id="group-4">
    <path id="Pfad-15" d="M156.7 119.9 C157 121.6 155.8 123.2 154.1 123.5 152.4 123.7 150.8 122.5 150.5 120.8 150.2 119 151.4 117.4 153.1 117.2 154.9 116.9 156.5 118.1 156.7 119.9 Z" fill="#333333" fill-opacity="1" stroke="none"/>
    <path id="Pfad-16" d="M153.4 118.8 C152.5 118.9 151.8 119.6 152 120.5 152.1 121.4 153 121.9 153.8 121.8 154.7 121.7 155.3 121 155.2 120.1 155.1 119.1 154.2 118.6 153.4 118.8 Z" fill="#000000" fill-opacity="1" stroke="none"/>
    <path id="Pfad-17" d="M152.7 118.2 C153.2 118.4 153.5 119 153.3 119.6 153.1 120.2 152.5 120.4 152 120.2 151.5 120 151.2 119.4 151.4 118.8 151.6 118.2 152.2 118 152.7 118.2 Z" fill="#ffffff" fill-opacity="1" stroke="none"/>
   </g>
  </g>
  <g id="stag-nose">
   <path id="Pfad-18" d="M194.3 139.2 C189.9 140.1 183.3 134.8 188.9 129.9 188.9 129.9 191.5 130.8 192.6 131.6 193.4 132.1 194.4 132.7 194.7 133.6 195.4 135.3 194.3 139.2 194.3 139.2 Z" fill="#333333" fill-opacity="1" stroke="none"/>
   <path id="Pfad-19" d="M193 138 C193 138 192.3 135.5 191.4 134.9 190.8 134.6 190 133.9 189.4 134.3 189 134.6 189 135.5 189.3 135.8 190.2 137.1 193 138 193 138 Z" fill="#000000" fill-opacity="1" stroke="none"/>
  </g>
  <g id="crown">
   <path id="Pfad-20" d="M132.6 226.4 L107.9 213 C109.3 210.6 111.3 208.3 113.8 206 115.3 209.9 116.6 213.7 119 215.8 119.9 212.3 118.7 209.5 117.5 206.6 L127.6 213.5 C125.8 214.5 126.4 213.5 121.7 216.1 123.2 216.7 125.5 217.1 127.5 216.6 L127.6 216.6 C128.2 216.4 128.9 216.2 129.4 215.8 130.9 214.8 131.6 213.5 131.8 212.1 132 211 132 209.8 131.2 209 130.8 208.5 130.4 208.1 130.1 207.5 129.8 207.3 129.1 207.2 128.8 207.4 128.5 207.6 128.8 208.2 128.9 208.5 129.3 209.2 130.1 209.5 130.4 210.2 130.7 210.9 130.8 211.7 130.6 212.5 130.3 213.2 129.3 214.1 129.3 214.1 L128.5 212.5 C128 211.4 126.4 211.4 125.5 210.6 124.8 210.1 124.2 209.5 123.9 208.8 123.6 207.9 123.6 206.9 124 206.1 124.1 205.9 124.4 205.6 124.6 205.4 125 205.1 125.9 204.8 125.9 204.8 125.9 204.8 124.9 204 124.5 203.4 124 202.6 123.5 200.8 123.3 199.9 123 198.5 123.1 196.8 123.1 196.6 123.3 196.6 125 196.7 126.4 197.2 127.3 197.5 128.4 198 129.1 198.6 129.7 199.1 130.6 200.3 130.6 200.3 130.6 200.3 131.3 199.1 131.6 198.8 131.8 198.5 132.1 198.3 132.4 198.2 133.2 197.9 134.2 198 135 198.4 135.7 198.8 136.3 199.5 136.7 200.2 137.4 201.2 137.4 202.5 138.5 203.1 L140 204.1 C140 204.1 139 205 138.3 205.1 137.5 205.3 136.8 205.1 136 204.7 135.4 204.3 135 203.6 134.2 203.4 133.9 203.4 133.5 203.3 133.3 203.5 133 203.8 133.2 204.5 133.4 204.8 L134.4 206.1 C134.7 206.5 135.3 206.8 135.7 206.9 136.9 207.2 138 207 139.2 206.7 140.4 206.3 141.4 205.7 142.4 204.9 143.2 204.2 144.6 202.9 145.1 201.9 145.8 200.8 146 199.9 146.2 198.5 146.3 197.8 146.1 197 145.8 196.3 145.5 195.5 144.5 194.4 144.5 194.4 143.9 195.6 143.5 196.8 143.2 198 142.8 199.4 142.7 200.8 142.7 202.1 L133.5 191.4 C135.5 191.7 137 192.1 138.8 192 140.2 192 140.9 191.9 142 191.4 141 190.8 140.5 190.3 139.1 190 137.3 189.5 135.3 188.9 133.2 188.6 134.9 186.7 136.8 184.9 138.7 183.3 140.7 181.6 142.7 180.1 144.9 178.8 144.9 180.9 145.1 182.9 145.3 184.8 145.4 186.3 145.7 186.8 146.2 187.9 146.8 186.9 147.1 186.3 147.3 184.8 147.6 183.2 147.5 181.6 147.6 179.6 L156.6 190.5 C155.3 190.3 153.9 190.2 152.5 190.3 151.2 190.3 150 190.5 148.7 191 148.7 191 149.5 192.1 150.3 192.6 150.9 193 151.7 193.3 152.4 193.4 153.8 193.4 154.7 193.4 155.9 192.8 156.9 192.5 158.5 191.4 159.3 190.7 160.3 189.8 161 189 161.6 187.8 162.2 186.8 162.5 185.7 162.4 184.5 162.3 184 162.2 183.5 161.8 183.1 L160.7 181.9 C160.4 181.6 159.8 181.2 159.5 181.5 159.2 181.7 159.2 182.1 159.2 182.4 159.3 183.2 160 183.7 160.2 184.5 160.5 185.2 160.5 186 160.2 186.8 159.9 187.4 158.8 188.3 158.8 188.3 L158.2 186.7 C157.7 185.5 156.5 185.2 155.6 184.4 154.9 183.9 154.3 183.2 154.2 182.4 153.9 181.6 153.9 180.6 154.4 179.8 154.6 179.6 154.8 179.3 155.1 179.2 155.5 178.9 156.8 178.5 156.8 178.5 156.8 178.5 155.7 177.3 155.4 176.7 154.9 175.9 154.6 174.7 154.5 173.8 154.3 172.3 154.5 170.7 154.5 170.5 154.7 170.5 156.4 170.7 157.8 171.2 158.6 171.6 160.3 172.3 160.9 173 161.4 173.5 162 174.7 162 174.7 162 174.7 162.5 173.9 162.9 173.5 163.1 173.3 163.4 173.1 163.7 173 164.6 172.8 165.6 173 166.3 173.4 167.1 173.8 167.5 174.5 167.9 175.3 168.5 176.4 168.2 177.9 169.2 178.6 L170.7 179.6 C170.7 179.6 169.5 180.5 168.9 180.5 168.1 180.6 167.3 180.4 166.6 179.9 166 179.5 165.8 178.7 165.1 178.3 164.9 178 164.4 177.6 164.1 177.9 163.8 178.2 163.7 178.9 164 179.2 164.4 179.7 164.8 180.2 165.2 180.6 165.9 181.5 167.1 181.7 168.1 181.7 169.6 181.7 171 181.3 172.3 180 174.2 178.1 174.5 174.7 174 172.5 170.5 176.6 171.7 176.3 170.3 177.8 L165.4 166.7 C168 168.3 170.5 169.9 174.2 169.8 172.5 167.1 169 165 165.4 162.9 168.1 160.9 170.8 159.3 173.4 158.3 L182.3 185 C162.1 195 147.1 209.5 132.6 226.4 Z" fill="#ffdd00" fill-opacity="1" stroke="#000000" stroke-width="1" stroke-opacity="1" stroke-linejoin="round" stroke-linecap="round"/>
   <path id="Pfad-21" d="M166.1 181.2 L166 179.8 164.7 179.4 160.7 182.4 160.9 183.6 162.1 184.1 Z" fill="#ffdd00" fill-opacity="1" stroke="#000000" stroke-width="1" stroke-opacity="1" stroke-linejoin="round" stroke-linecap="round"/>
   <path id="Pfad-22" d="M130.7 209.8 L130.5 208.5 134.1 205.1 135.4 205.5 135.6 206.7 132 210.1 Z" fill="#ffdd00" fill-opacity="1" stroke="#000000" stroke-width="1" stroke-opacity="1" stroke-linejoin="round" stroke-linecap="round"/>
  </g>
 </g>
 <g id="group-5">
  <path id="Pfad-23" d="M361.562 418.402 C361.562 418.402 361.274 420.227 360.575 421.06 359.42 422.663 357.599 424.621 355.639 425.125 353.155 426.235 350.897 425.275 348.679 424.879 347.087 423.565 344.797 420.758 344.797 420.758 344.797 420.758 341.697 424.952 339.15 425.817 336.678 426.767 333.401 426.618 330.743 425.63 327.761 424.7 325.385 421.967 324.447 419.335 323.942 417.375 324.878 414.313 324.878 414.313 324.878 414.313 321.613 415.128 320.114 414.782 317.783 414.86 315.598 413.985 314.507 412.385 312.611 409.686 312.374 407.344 313.315 404.202 313.729 402.868 316.269 400.96 316.269 400.96 316.269 400.96 314.897 398.779 314.64 397.879 314.135 395.919 315.409 393.763 315.409 393.763 315.537 391.927 318.225 390.19 320.608 390.517 326.53 390.691 329.033 395.036 335.152 396.988 347.228 399.757 359.283 395.949 369.076 388.935 372.23 386.268 374.864 383.004 376.979 379.142 378.861 376.306 379.771 371.318 380.113 367.572 379.739 361.451 376.579 356.178 375.447 349.443 375.089 346.531 375.129 339.075 375.129 339.075 375.129 339.075 370.977 341.111 370.136 342.816 369.369 344.607 369.511 348.306 368.796 350.501 367.87 352.281 366.361 353.218 364.423 353.403 362.424 354.467 360.194 353.108 358.269 354.256 356.714 354.709 354.74 357.698 354.74 357.698 354.74 357.698 354.41 354.387 355.138 353.155 356.638 350.052 360.643 348.969 361.551 346.306 361.981 343.609 360.383 342.375 359.912 339.936 359.402 338.056 359.662 336.63 359.836 335.279 360.938 332.149 366.291 328.994 366.291 328.994 366.291 328.994 365.372 328.369 364.613 327.754 363.774 327.134 360.862 327.492 360.862 327.492 368.117 318.937 371.272 317.393 381.867 320.701 381.867 320.701 382.41 317.531 383.397 314.873 384.272 312.689 385.254 310.111 387.361 308.654 388.847 308.037 391.439 306.534 391.439 306.534 391.439 306.534 393.373 304.103 394.101 302.871 395.51 299.922 397.73 297.992 400.761 297.081 403.927 295.378 406.652 295.408 410.375 296.069 421.892 298.799 433.074 301.746 445.329 298.513 L447.32 360.644 C439.234 358.154 430.04 357.751 422.615 354.987 419.952 354.079 415.106 349.971 412.714 347.478 412.714 347.478 412.609 353.565 410.855 358.014 408.7 361.311 405.286 365.403 406.187 369.716 406.857 371.608 408.809 373.509 410.739 375.729 412.27 377.921 413.106 380.866 412.996 383.585 413.107 385.438 412.593 388.208 411.106 388.826 404.881 391.839 398.392 394.032 396.255 398.213 393.884 405.746 394.178 411.861 386.568 415.179 387.703 411.569 387.152 409.125 385.836 406.146 384.57 412.793 382.704 415.39 377.876 419.062 378.161 414.992 378.31 411.714 377.586 408.295 375.328 415.355 373.026 419.605 366.07 421.604 368.151 418.221 368.773 415.057 367.605 411.126 365.238 414.008 365.347 418.186 361.562 418.402 Z" fill="#ffcc00" fill-opacity="1" stroke="#cc0000" stroke-width="1" stroke-opacity="1" stroke-linejoin="round" stroke-linecap="round"/>
  <path id="Pfad-24" d="M319.214 400.124 C320.588 399.979 321.911 400.553 323.758 400.522 325.075 401.175 326.222 401.977 327.846 401.69 329.585 402.052 333.004 401.328 333.004 401.328 331.769 402.926 328.406 402.852 327.619 402.636 326.161 402.855 324.928 402.127 323.11 401.759 321.792 401.106 320.48 400.373 319.106 400.517 318.628 400.484 317.642 400.816 317.174 400.623 316.742 401.073 316.269 400.96 316.269 400.96 L314.732 398.848 C314.732 398.848 315.743 400.442 316.911 399.802 317.395 399.756 318.342 399.982 319.214 400.124 Z M337.002 407.222 C337.002 407.222 336.382 408.061 335.876 408.426 334.896 408.678 334.378 409.204 333.216 409.764 332.31 410.101 330.411 409.728 329.511 409.986 328.526 410.318 327.512 411.049 326.453 411.296 326.425 411.695 325.639 412.602 325.498 413.475 324.878 414.313 324.85 414.712 324.85 414.712 L321.14 415.014 C321.14 415.014 323.618 413.985 324.232 413.226 324.346 412.752 325.359 412.021 326.081 410.869 326.987 410.531 328.086 409.726 329.066 409.474 330.633 408.861 332.537 409.155 333.437 408.897 333.944 408.532 335.009 408.205 335.516 407.84 Z M352.351 410.22 C349.079 409.991 346.859 411.921 345.789 413.45 344.276 415.59 343.881 417.807 345.185 420.946 L344.092 421.672 C342.834 419.017 343.41 415.369 344.832 413.383 348.546 408.43 351.883 410.027 352.351 410.22 Z M360.845 414.904 C361.678 415.603 361.451 416.55 361.902 416.982 361.676 417.929 361.956 418.51 361.956 418.51 L361.135 418.773 C361.135 418.773 361.277 417.901 360.837 417.309 360.978 416.437 360.731 415.377 360.366 414.87 360.114 413.89 357.597 412.03 357.597 412.03 358.943 412.285 360.958 414.43 360.845 414.904 Z" fill="#cc0000" fill-opacity="1" stroke="none"/>
  <path id="Pfad-25" d="M375.28 333.472 C375.28 333.472 373.623 334.238 372.62 334.81 371.521 335.615 370.428 336.341 369.443 336.673 368.8 337.831 367.48 339.503 367.306 340.854 366.68 341.773 366.91 343.072 366.684 344.018 366.902 345.477 366.756 346.429 366.501 347.775 366.252 349.04 365.519 350.352 363.947 351.044 363.44 351.41 362.46 351.662 361.981 351.629 361.115 351.408 360.083 351.255 360.049 351.734 358.483 352.346 357.696 352.131 357.07 353.05 356.404 353.404 356.257 354.356 355.615 355.514 355.468 356.466 355.434 356.945 355.434 356.945 L354.295 357.186 C354.295 357.186 354.521 356.24 355.221 355.406 355.47 354.141 356.124 352.823 356.636 352.378 357.729 351.652 358.709 351.4 359.797 350.754 360.276 350.788 361.228 350.935 361.621 351.042 362.494 351.183 362.967 351.297 363.587 350.458 364.595 349.807 365.3 348.894 366.136 347.268 366.288 346.236 365.956 345.251 366.21 343.905 365.958 342.925 366.207 341.659 366.354 340.707 367.081 339.475 367.848 337.684 369.083 336.086 370.256 335.366 371.082 335.023 372.249 334.383 Z" fill="#cc0000" fill-opacity="1" stroke="none"/>
  <path id="Pfad-26" d="M357.737 421.503 C357.997 420.078 355.311 419.489 353.459 419.6 351.881 420.372 348.607 422.468 349.784 423.994 352.433 427.387 352.058 431.611 351.408 435.175 356.659 432.334 358.629 427.099 357.737 421.503 Z M325.72 417.179 C326.522 416.032 329.213 416.541 330.31 418.061 331.976 419.461 333.104 422.828 331.213 423.498 327.094 425.054 325.459 428.949 323.856 432.366 321.175 427.126 322.113 421.739 325.72 417.179 Z M314.108 404.338 C315.76 403.651 316.817 405.73 316.923 407.662 317.427 409.622 315.819 413.118 314.114 412.277 310.191 411.041 306.146 412.683 302.894 414.46 304.031 408.525 308.438 405.144 314.108 404.338 Z M318.05 391.542 C319.429 391.317 320.373 393.869 320.011 395.608 319.723 397.433 317.174 400.623 315.965 399.576 312.53 397.09 308.318 397.678 304.547 398.857 307.189 393.188 312.321 390.9 318.05 391.542 Z" fill="#ff9900" fill-opacity="1" stroke="#cc0000" stroke-width="1" stroke-opacity="1" stroke-linejoin="round" stroke-linecap="round"/>
  <path id="Pfad-27" d="M347.621 124.634 C343.698 121.088 336.559 122.257 332.559 126.708 332.035 122.742 329.545 120.499 326.711 119.74 321.231 117.833 313.566 121.932 315.059 129.254 315.478 131.288 319.288 132.998 318.75 134.965 318.75 134.965 318.28 137.098 318.127 138.13 318.14 139.093 318.285 140.466 318.285 140.466 318.285 140.466 314.286 138.021 312.667 138.229 302.626 139.612 303.635 155 313.344 156.08 315.094 156.282 316.758 156.559 318.679 156.613 321.187 156.307 324.939 157.692 325.164 159.071 325.375 159.487 325.394 160.371 325.594 160.946 331.556 165.132 331.069 170.952 325.72 172.904 332.854 175.247 334.61 175.37 341.544 173.69 L341.687 173.94 C340.051 177.836 338.118 181.389 334.781 183.241 340.599 186.054 348.241 181.135 353.308 180.928 353.597 183.675 353.162 186.451 354.032 188.918 354.759 191.134 355.897 193.218 358.014 195.051 359.091 191.116 360.285 188.954 364.535 187.808 360.877 196.534 360.966 202.154 366.341 210.148 366.218 203.884 369.287 205.863 374.002 199.216 371.854 207.005 370.32 214.035 377.265 220.215 377.596 216.629 378.144 213.38 381.185 211.186 380.33 218.825 380.767 225.191 387.215 230.454 387.426 226.298 387.968 223.129 391.823 220.752 391.139 228.242 392.504 233.951 398.832 238.644 397.33 232.605 401.485 232.815 402.309 226.778 402.309 226.778 408.453 242.124 412.203 245.834 417.518 251.258 425.182 260.936 425.182 260.936 L443.183 223.701 C428.823 211.149 425.681 198.74 410.969 186.644 386.299 181.631 362.425 164.083 347.683 143.244 347.514 141.067 347.364 136.325 348.558 134.163 349.473 132.543 350.782 131.03 350.124 128.979 349.608 127.179 348.91 125.687 347.621 124.634 Z" fill="#ffcc00" fill-opacity="1" stroke="#cc0000" stroke-width="1" stroke-opacity="1" stroke-linejoin="round" stroke-linecap="round"/>
  <path id="Pfad-28" d="M318.546 140.164 C318.546 140.164 321.319 141.801 322.317 142.432 L328.774 145.29 C328.774 145.29 323.716 144.214 321.703 143.191 320.551 142.469 317.949 140.683 317.949 140.683 Z M332.713 126.799 C332.713 126.799 333.895 128.245 334.093 131.146 334.184 134.441 334.245 137.011 336.05 139.864 336.833 141.282 339.464 143.792 339.464 143.792 336.692 142.154 335.07 140.116 333.79 137.781 332.743 135.543 333.406 132.943 333.067 130.914 332.715 127.922 332.258 127.57 332.258 127.57 Z" fill="#cc0000" fill-opacity="1" stroke="none"/>
  <path id="Pfad-29" d="M311.633 140.402 C313.212 140.753 313.296 143.004 312.603 144.881 311.842 146.592 308.859 149.11 307.751 147.749 305.01 144.51 300.781 144.214 296.917 144.425 300.523 139.866 306.153 138.495 311.633 140.402 Z M324.894 120.495 C326.265 121.537 325.31 123.716 323.779 124.972 322.413 126.159 318.738 127.105 318.285 125.55 317.208 121.465 313.686 119.069 309.928 117.764 315.402 115.18 320.836 116.602 324.894 120.495 Z M347.585 127.438 C347.627 129.125 345.177 129.756 343.364 129.309 341.38 129.009 338.498 126.643 339.636 125.279 342.035 121.934 341.613 117.654 340.748 113.969 345.863 116.508 348.14 121.799 347.585 127.438 Z" fill="#ff9900" fill-opacity="1" stroke="#cc0000" stroke-width="1" stroke-opacity="1" stroke-linejoin="round" stroke-linecap="round"/>
  <path id="groin" d="M438.948 303.761 L446.163 318.701 C446.163 318.701 442.864 326.891 438.638 328.841 438.896 322.844 434.764 315.418 432.601 309.653 431.828 306.952 436.698 304.967 438.948 303.761 Z" fill="#ffcc00" fill-opacity="1" stroke="#cc0000" stroke-width="1" stroke-opacity="1" stroke-linejoin="round" stroke-linecap="round"/>
  <path id="Pfad-30" d="M534.07 413.704 C531.396 412.956 529.696 412.035 527.274 412.267 523.447 410.796 519.444 409.554 516.43 406.777 510.097 402.164 506.353 394.925 503.442 388.386 499.245 379.592 497.723 368.098 494.473 359.53 492.029 353.184 489.109 347.928 486.946 342.163 485.026 338.66 481.001 334.289 481.001 334.289 481.001 334.289 483.47 342.561 483.534 347.378 483.845 353.254 483.829 358.064 483.284 363.56 482.94 369.63 480.916 376.787 481.238 382.503 482.228 388.988 484.272 395.306 487.183 401.845 489.543 405.939 492.73 409.691 496.029 412.969 498.536 416.111 502.668 420.089 502.668 420.089 503.982 421.946 506.376 422.113 507.957 423.587 513.463 427.42 514.97 432.257 513.699 436.659 511.773 433.237 508.878 433.355 505.283 434.306 512.45 439.619 514.463 444.091 512.282 453.481 510.905 446.809 504.34 447.793 500.454 444.875 503.869 453.374 509.892 455.56 510.236 460.957 511.442 463.206 511.555 466.182 508.401 472.296 507.696 469.761 507.237 468.286 506.317 466.537 503.897 464.443 500.694 464.38 498.122 459.869 498.122 459.869 497.175 463.091 497.993 465.153 499.354 467.494 499.832 467.527 501.426 469.964 502.632 472.214 503.885 474.948 504.196 477.376 504.54 482.773 501.041 490.387 501.041 490.387 501.041 490.387 499.423 487.146 498.389 485.871 496.808 484.397 493.879 484.994 491.814 483.567 490.279 482.577 488.359 479.075 488.359 479.075 488.359 479.075 488.186 481.549 488.245 482.996 488.024 483.863 485.548 486.016 485.548 486.016 485.548 486.016 490.57 486.447 492.49 489.95 494.648 492.346 494.653 495.715 492.964 498.082 490.542 501.762 486.371 502.914 481.522 500.009 479.595 500.035 477.137 498.499 477.137 498.499 477.137 498.499 477.454 500.847 476.561 502.148 476.306 503.494 475.424 504.635 473.956 506.136 471.948 508.482 468.585 508.407 465.877 508.137 463.128 507.304 460.534 506.561 459.463 503.519 458.71 502.825 457.73 499.628 457.73 499.628 457.73 499.628 454.441 503.087 452.441 503.028 448.684 502.845 445.364 501.009 443.77 498.572 442.41 496.231 442.179 493.809 442.34 491.495 442.4 489.494 443.698 488.142 444.117 486.727 444.117 486.727 442.571 485.898 441.243 485.404 440.022 484.516 439.489 482.955 438.671 480.893 438.252 478.859 438.493 476.55 439.715 473.989 441.831 471.25 443.968 470.517 447.115 471.379 449.355 471.456 452.061 474.051 453.369 475.987 455.789 478.081 459.078 478.07 462.092 477.398 464.766 478.147 467.07 475.02 469.626 472.873 474.46 465.673 476 455.114 476.291 447.516 476.831 438.652 477.87 428.38 477.87 428.38 477.87 428.38 470.616 422.018 467.242 418.655 462.685 412.722 453.392 399.963 453.392 399.963 455.405 404.434 456.264 407.061 456.017 409.449 456.087 414.186 453.03 416.618 451.399 420.434 450.872 422.241 451.044 423.216 451.291 424.276 447.977 422.36 448.391 421.025 447.966 419.071 447.38 415.983 448.709 413.028 446.95 410.66 446.347 414.707 444.446 416.66 440.841 418.894 440.841 418.894 442.391 415.072 440.638 412.624 439.033 410.347 436.004 408.932 434.991 406.215 432.685 403.648 431.893 400.064 434.805 396.257 434.805 396.257 431.211 393.761 430.694 390.837 429.64 387.556 430.969 384.601 432.111 382.035 434.415 378.908 439.133 374.506 439.133 374.506 439.133 374.506 431.39 361.374 429.439 352.577 428.503 347.619 428.546 342.41 429.457 337.421 430.625 333.333 432.175 329.511 434.085 326.277 436.868 323.183 442.487 318.524 442.487 318.524 442.487 318.524 439.313 307.716 436.633 303.599 434.427 299.596 432.308 296.641 429.374 293.869 425.973 290.905 421.593 289.315 417.919 286.813 413.092 283.588 409.971 281.205 406.612 276.479 403.998 273.73 403.454 272.329 399.307 266.265 396.273 261.481 380.775 234.254 388.046 225.46 391.38 221.362 400.241 212.759 403.073 207.825 408.111 196.549 422.519 184.324 422.519 184.324 L444.614 186.03 C478.241 192.551 483.885 189.818 482.715 207.7 475.578 240.963 474.259 281.61 482.102 304.774 487.204 320.127 496.962 335.405 501.454 351.437 502.961 356.274 504.671 360.484 506.628 365.753 508.227 371.559 509.497 378.625 511.842 384.082 514.694 389.173 517.138 395.519 522.072 398.35 522.072 398.35 527.086 401.187 530.809 401.848 533.877 402.704 537.565 402.721 540.115 400.654 545.006 397.227 545.343 393.562 546.546 390.117 547.72 382.5 542.254 374.66 537.704 366.322 535.778 362.9 533.548 358.092 532.084 354.943 521.732 330.962 510.684 306.612 504.769 281.097 502.922 273.109 502.745 265.318 504.227 257.883 507.697 241.525 517.902 232.054 527.681 219.506 532.771 212.083 532.12 203.055 522.683 200.39 527.778 196.336 534.053 196.053 538.536 198.452 542.649 200.423 544.682 203.452 545.645 206.888 547.532 214.318 542.478 223.508 537.564 230.702 540.784 230.526 544.129 229.718 546.384 228.432 552.072 223.938 552.476 215.866 555.457 208.777 558.74 200.827 565.521 195.607 574.292 195.178 578.64 194.92 585.797 196.945 588.983 200.696 590.992 202.922 591.384 205.355 591.24 208.553 590.597 213.159 587.503 217.273 586.86 221.879 586.989 224.615 588.219 227.668 588.219 227.668 588.043 227.897 580.888 226.995 577.911 221.414 576.653 218.76 576.49 213.055 576.49 213.055 575.187 214.487 574.339 215.15 574.535 216.928 572.312 224.631 574.477 231.519 566.635 239.311 562.401 243.666 555.294 244.372 546.887 244.185 542.737 243.895 541.389 245.966 541.014 246.742 555.024 247.08 564.508 258.249 562.699 268.067 560.957 276.927 551.958 281.751 543.184 279.934 551.7 272.831 550.193 263.423 540.446 259.453 533.967 256.915 527.978 257.699 523.952 260.225 519.38 263.674 516.495 270.53 515.981 277.872 515.763 284.432 519.453 297.04 519.453 297.04 523.027 289.511 532.398 297.705 532.474 283.997 539.507 294.674 533.388 300.742 529.627 308.658 537.438 310.488 541.041 307.131 543.071 299.895 548.591 312.711 540.93 316.747 536.914 326.009 543.481 326.147 546.014 324.32 549.672 319.042 553.378 327.962 547.236 333.227 540.725 339.187 545.932 338.108 552.454 342.333 554.128 349.347 549.433 346.532 547.427 346.552 545.541 347.142 543.657 348.855 542.052 350.026 542.528 352.385 543.546 358.471 546.71 362.541 549.213 366.887 554.017 373.879 558.084 379.937 556.364 391.926 555.455 398.038 554.875 402.889 547.907 408.497 555.505 408.788 558.185 412.905 559.25 416.026 559.008 418.335 557.313 420.783 556.758 422.99 556.537 423.856 558.275 427.667 558.275 427.667 555.207 426.811 552.834 425.201 552.97 420.96 552.463 421.326 551.695 421.994 551.582 422.467 552.613 426.068 553.786 428.796 553.631 432.154 553.356 434.941 552.721 437.142 549.378 439.074 546.542 440.64 543.222 438.804 538.992 438.508 536.93 439.326 535.462 440.827 534.147 442.42 533.675 438.858 534.898 437.42 536.919 436.037 539.008 433.697 540.656 434.214 542.631 432.347 544.492 430.953 544.934 429.22 543.001 424.754 540.591 429.397 536.169 429.569 533.288 428.325 530.447 426.523 528.881 423.687 529.097 419.451 530.851 421.9 532.864 422.923 534.893 422.583 536.573 421.498 538.423 420.264 536.976 416.875 536.336 415.707 534.824 414.399 534.07 413.704 Z" fill="#ffcc00" fill-opacity="1" stroke="#cc0000" stroke-width="1" stroke-opacity="1" stroke-linejoin="round" stroke-linecap="round"/>
  <path id="Pfad-31" d="M570.265 204.6 C572.922 205.588 575.793 208.114 576.568 211.937 576.865 212.279 576.694 212.427 576.592 212.741 576.496 212.975 576.399 213.209 576.707 213.391 L575.755 213.244 C575.841 213.17 576.017 212.941 576.034 212.702 576.125 212.548 575.833 212.127 575.833 212.127 574.663 207.073 571.12 204.98 566.828 204.44 562.455 203.893 558.485 205.621 556.033 208.577 555.743 209.278 555.368 210.054 554.919 210.744 554.446 210.631 555.287 208.925 555.188 208.036 558.279 205.125 562.18 203.232 566.724 203.63 568.075 203.805 569.016 204.111 570.265 204.6 Z M584.572 197.26 C586.192 198.175 587.134 199.604 588.307 202.333 589.006 204.948 589.119 207.923 587.418 210.451 587.512 207.971 589.191 206.886 587.755 203.337 586.971 200.796 584.687 197.909 583.221 197.085 Z M577.337 196.353 C577.337 196.353 578.198 196.654 578.672 196.767 581.329 197.755 583.241 199.091 583.843 201.94 584.615 203.518 584.528 205.918 584.069 207.891 583.998 210.051 582.721 213.41 583.47 215.307 L583.89 221.912 C582.553 219.253 582.451 216.118 582.322 213.382 582.582 211.957 583.519 210.018 583.516 207.772 584.049 205.884 584.229 204.453 583.292 202.944 582.29 200.068 580.566 198.343 577.909 197.355 575.251 196.368 572.304 196.081 569.808 196.227 L569.613 195.572 C571.693 195.638 574.173 195.731 575.992 196.099 576.391 196.126 576.858 196.32 577.337 196.353 Z M572.114 198.795 C574.406 199.276 576.802 200.566 578.509 202.53 579.097 203.293 579.385 204.917 579.312 205.954 L579.516 208.775 C579.212 207.391 578.822 206.08 578.73 205.111 578.626 204.302 578.351 203.642 577.678 202.953 576.141 200.841 572.606 199.791 569.722 199.75 566.142 199.339 562.433 200.764 559.501 202.564 L560.251 201.012 C563.263 199.218 566.693 198.335 570.125 198.575 571.082 198.642 571.561 198.676 572.114 198.795 Z M571.018 205.294 L571.788 205.749 C571.788 205.749 569.624 206.881 568.208 208.786 566.409 210.425 565.204 212.747 564.363 214.452 562.765 216.666 562.41 219.448 562.511 222.583 562.624 225.558 562.486 228.676 560.957 231.055 560.11 232.84 559.171 233.657 557.764 234.28 556.596 234.92 556.233 235.536 554.815 236.319 551.789 237.15 546.477 237.42 542.654 238.196 538.289 238.692 534.317 239.297 531.845 240.247 529.953 240.916 528.713 242.594 527.124 243.525 525.519 244.696 524.951 245.94 524.951 245.94 525.222 244.355 526.445 242.916 526.826 242.061 527.388 240.897 528.886 240.12 530.709 239.285 533.255 238.42 538.1 237.957 542.938 237.574 546.756 236.878 551.207 236.308 553.126 235.239 554.926 234.723 556.031 233.838 557.272 233.283 558.041 232.615 558.484 232.005 559.628 230.561 561.226 228.347 561.685 226.374 561.572 223.399 561.539 220.43 561.334 216.486 563.188 214.049 563.961 212.178 566.025 209.035 567.904 207.402 569.622 205.758 571.018 205.294 571.018 205.294 Z M563.407 204.04 L565.317 204.254 C565.317 204.254 562.583 205.506 561.838 206.978 560.222 208.308 559.095 209.513 558.909 211.023 557.482 213.089 557.247 216.441 556.881 219.382 556.515 222.324 556.063 225.34 554.773 227.735 553.251 231.158 550.134 232.143 547.373 233.794 544.433 234.551 541.127 234.801 537.896 235.136 534.277 235.284 531.125 235.625 528.664 236.415 526.106 237.439 523.933 239.854 521.878 241.715 520.842 242.765 520.849 243.808 520.474 244.584 519.156 247.379 519.703 243.006 521.501 241.368 523.094 239.234 525.329 235.942 528.286 234.945 530.758 233.996 534.663 234.349 537.501 233.906 541.034 233.832 544.631 234.003 547.092 233.213 549.849 231.641 551.95 230.265 553.997 227.36 555.032 225.187 555.477 222.251 555.456 219.122 556.295 216.294 556.431 212.053 558.115 209.765 558.78 208.288 559.617 207.785 560.925 206.272 561.909 204.817 563.407 204.04 563.407 204.04 Z M574.78 208.845 L575.145 209.352 C575.145 209.352 574.302 209.934 573.541 211.645 571.856 212.811 570.445 214.637 570.345 216.073 568.672 218.202 568.876 221.023 568.139 223.538 568.262 226.353 568.466 229.174 567.336 231.581 566.131 233.903 564.807 236.777 562.158 237.956 557.722 240.613 551.252 240.24 546.124 241.325 542.518 242.436 537.492 243.208 534.446 245.481 530.858 247.475 526.151 251.717 526.151 251.717 527.458 249.082 532.451 245.341 534.056 244.17 537.273 241.749 542.197 241.291 546.031 240.356 550.943 238.936 557.139 239.77 561.405 237.261 563.575 236.05 564.802 233.409 566.007 231.087 567.126 228.84 567.008 225.945 567.277 223.237 567.547 220.529 568.084 217.439 569.226 214.872 569.885 213.475 571.758 211.922 572.981 210.484 574.279 209.131 574.78 208.845 574.78 208.845 Z M532.384 200.427 C533.336 200.574 534.186 201.034 534.961 201.409 537.044 202.597 539.447 204.931 539.758 207.358 540.374 211.171 539.246 215.823 537.182 218.967 531.821 224.527 526.52 228.085 522.85 232.4 520.489 235.202 518.978 238.465 516.919 241.529 517.745 237.737 520.942 233.309 522.262 231.637 525.932 227.323 530.858 224.539 535.746 218.867 538.032 215.979 539.011 211.156 538.618 207.6 537.743 205.213 536.286 203.106 534.295 201.764 532.51 200.917 529.807 200.568 527.334 200.395 524.86 200.222 523.07 200.578 523.07 200.578 L522.961 199.848 C522.961 199.848 524.665 199.567 527.532 199.847 528.661 199.766 530.092 199.946 531.597 200.212 531.597 200.212 531.985 200.399 532.384 200.427 Z M537.854 230.001 L536.915 230.817 C533.307 230.806 530.166 230.987 528.345 232.945 527.599 233.293 526.278 233.843 525.812 234.772 526.653 233.067 527.399 232.718 528.156 232.21 530.621 230.217 534.235 230.149 537.854 230.001 Z M541.6 246.382 L541.881 246.963 C536.57 248.356 532.212 249.896 528.812 251.502 533.055 249.313 537.417 246.571 541.6 246.382 Z M543.342 252.438 C546.039 252.867 549.45 254.549 551.196 255.955 556.531 259.937 558.594 267.138 555.421 272.369 553.825 275.706 549.468 278.369 543.572 280.122 L543.371 279.546 C549.541 277.331 553.055 275.251 554.646 271.994 557.556 267.065 555.312 260.172 550.051 256.276 544.658 251.969 534.232 250.839 523.986 256.297 532.407 250.551 539.842 252.033 541.922 252.098 542.316 252.206 542.789 252.319 543.342 252.438 Z" fill="#cc0000" fill-opacity="1" stroke="none"/>
  <path id="Pfad-32" d="M449.71 304.674 C449.71 304.674 449.648 309 449.008 311.281 448.406 313.003 447.747 314.401 446.438 315.913 445.829 316.592 444.805 317.483 443.888 317.98 442.96 318.637 442.197 319.225 442.197 319.225 L441.843 318.559 C441.843 318.559 442.514 318.125 443.437 317.548 444.285 316.885 445.39 316 445.908 315.475 446.773 314.573 447.313 313.729 447.796 312.56 448.085 311.858 448.38 311.077 448.505 310.444 449.062 309.36 449.48 306.823 449.71 304.674 Z" fill="#cc0000" fill-opacity="1" stroke="none"/>
  <path id="Pfad-33" d="M440.941 386.502 C440.941 386.502 441.98 387.697 441.332 388.935 441.026 389.876 440.337 390.549 439.637 391.383 438.977 391.657 437.087 393.45 436.387 394.283 L435.251 396.77 C434.772 396.736 434.772 396.736 434.805 396.257 434.418 396.07 434.418 396.07 434.418 396.07 434.418 396.07 434.531 395.597 434.644 395.123 434.832 394.736 435.919 394.09 436.614 393.336 437.308 392.583 439.203 390.711 439.391 390.323 439.391 390.323 439.977 389.963 440.558 389.683 440.671 389.209 440.865 388.742 440.898 388.263 441.666 387.595 440.941 386.502 440.941 386.502 Z M438.04 386.7 C438.04 386.7 437.459 386.98 436.986 386.867 436.416 386.987 436.017 386.959 436.017 386.959 434.822 387.998 433.535 389.192 433.32 389.979 433.013 390.919 432.9 391.393 432.685 392.18 432.492 392.647 432.905 394.761 432.905 394.761 L431.792 393.48 C431.792 393.48 431.985 393.013 432.212 392.066 432.427 391.279 432.067 390.693 432.733 390.339 433.255 388.611 434.102 386.825 436.119 386.646 Z M442.996 396.108 C442.996 396.108 442.914 398.428 442.494 399.843 442.559 401.21 443.199 402.378 443.685 403.454 443.932 404.514 445.346 404.934 445.798 406.489 446.524 407.582 446.611 408.631 447.257 409.719 447.143 410.192 446.95 410.66 446.917 411.139 446.917 411.139 446.729 411.526 446.729 411.526 446.729 411.526 446.622 411.92 446.228 411.812 L446.529 410.951 C446.642 410.478 446.642 410.478 446.277 409.971 446.578 409.11 445.663 407.282 445.405 406.382 444.572 405.682 443.065 404.293 442.612 402.738 442.258 402.071 441.44 400.009 441.774 398.669 442.302 396.862 442.769 397.055 442.996 396.108 Z M439.411 400.349 C439.411 400.349 439.19 401.215 438.997 401.683 439.244 402.743 438.949 403.524 439.223 404.185 439.475 405.165 441.175 406.086 441.821 407.173 442.849 408.528 444.081 409.256 444.356 409.917 444.775 411.951 443.973 413.098 444.032 414.546 443.806 415.492 443.032 416.24 442.23 417.387 442.009 418.254 441.788 419.12 441.788 419.12 L441.034 418.426 C441.034 418.426 441.148 417.953 441.756 417.274 442.564 416.047 442.865 415.186 443.451 414.826 443.5 412.985 443.834 411.645 443.662 410.67 443.302 410.084 442.268 408.809 441.229 407.613 440.515 406.36 438.889 405.525 438.722 404.471 438.496 401.969 438.717 401.102 439.411 400.349 Z" fill="#cc0000" fill-opacity="1" stroke="none"/>
  <path id="Pfad-34" d="M549.288 420.863 C549.741 422.419 550.188 424.054 550.44 425.034 551.052 426.6 551.672 429.21 551.144 431.018 551.101 432.779 550.761 434.199 549.486 435.232 547.905 437.207 546.65 436.798 545.197 436.937 544.109 437.583 542.296 437.135 540.661 437.582 539.298 437.567 537.765 437.701 536.457 439.213 535.796 439.487 535.102 440.241 535.348 441.301 534.767 441.581 534.574 442.049 534.574 442.049 L534.175 442.021 C534.175 442.021 534.289 441.547 534.595 440.606 534.822 439.66 535.51 438.986 536.091 438.706 537.184 437.981 539.041 436.667 540.301 436.996 542.135 436.001 543.389 436.41 545.423 435.991 546.877 435.852 547.817 436.158 548.619 435.011 550.008 433.504 550.342 432.164 550.756 430.83 550.805 428.989 549.81 427.155 549.859 425.314 549.72 423.861 548.954 422.203 548.894 420.756 548.002 418.608 545.677 415.158 545.677 415.158 547.11 416.461 548.761 419.223 549.288 420.863 Z" fill="#cc0000" fill-opacity="1" stroke="none"/>
  <path id="Pfad-35" d="M457.393 483.806 C457.393 483.806 457.28 484.28 456.812 484.087 456.699 484.56 456.512 484.948 456.512 484.948 455.418 485.673 454.524 485.851 452.968 486.304 450.854 486.717 448.934 486.663 447.679 486.255 446.619 486.501 445.645 486.674 445.064 486.954 444.871 487.422 444.477 487.314 444.477 487.314 444.477 487.314 444.477 487.314 444.591 486.841 444.364 487.787 443.251 486.506 444.418 485.866 444.891 485.98 446.452 485.447 447.506 485.28 448.954 485.221 450.682 485.743 452.022 486.077 452.022 486.077 454.164 485.265 454.745 484.984 455.331 484.625 457.393 483.806 457.393 483.806 Z M477.26 489.847 C477.034 490.793 476.011 492.807 475.99 494.249 477.024 495.524 477.003 496.966 478.196 498.253 L477.201 499.867 C476.275 498.199 475.856 496.164 475.409 494.529 475.345 493.161 476.26 491.541 477.26 489.847 Z M467.957 488.715 C467.957 488.715 466.741 491.196 465.46 492.31 463.786 493.315 460.675 494.221 459.468 495.419 459.093 496.195 458.753 497.615 458.532 498.482 458.232 499.343 458.011 500.209 458.011 500.209 L457.15 499.909 C457.15 499.909 457.456 498.968 457.671 498.181 457.887 497.394 458.147 495.969 459.001 495.226 460.502 493.246 464.56 492.568 465.846 491.374 Z" fill="#cc0000" fill-opacity="1" stroke="none"/>
  <path id="Pfad-36" d="M494.344 494.41 C493.321 492.975 491.014 493.856 489.631 495.283 488.334 496.636 487.279 500.251 488.933 500.688 492.839 502.164 494.988 505.843 496.429 509.312 499.112 504.206 498.061 498.599 494.344 494.41 Z M462.108 503.543 C461.912 501.765 464.202 501.124 466.112 501.337 468.033 501.391 471.251 503.541 470.278 504.836 468.174 508.539 468.847 512.676 470.198 516.299 464.809 514.238 462.031 509.232 462.108 503.543 Z M445.061 492.728 C446.342 491.615 448.242 493.111 449.077 494.933 450.083 496.608 449.9 500.364 448.219 500.327 444.115 500.521 440.956 503.267 438.641 506.554 437.441 500.776 440.118 495.75 445.061 492.728 Z M441.182 471.365 C442.869 471.323 443.431 473.608 443.052 475.586 442.758 477.49 440.46 480.537 439.022 479.314 435.65 477.073 431.456 477.421 427.695 478.442 430.224 473.245 435.447 470.804 441.182 471.365 Z" fill="#ff9900" fill-opacity="1" stroke="#cc0000" stroke-width="1" stroke-opacity="1" stroke-linejoin="round" stroke-linecap="round"/>
  <path id="Pfad-37" d="M395.564 229.193 C387.48 247.313 369.723 253.53 364.91 255.84 358.828 259.103 336.667 262.927 334.042 253.441 333.612 251.566 334.327 249.371 334.17 247.034 333.916 244.931 333.645 243.068 332.047 241.833 324.955 236.606 317.333 243.531 316.803 251.112 313.778 248.495 310.603 248.032 307.96 249.131 302.445 251.151 299.083 259.096 304.83 264.069 306.348 265.298 310.353 264.214 311.097 266.191 311.097 266.191 312.086 268.105 312.754 268.873 313.262 269.631 314.37 270.991 314.37 270.991 314.37 270.991 309.6 271.54 308.485 272.585 301.553 279.959 312.691 291.564 321.045 286.775 322.508 285.354 323.219 284.361 324.83 283.11 326.709 281.477 333.29 280.254 333.29 280.254 329.856 285.787 332.064 287.466 331.537 289.273 331.55 290.236 330.56 291.771 329.205 292.799 336.854 292.372 340.384 290.052 343.999 283.087 344.427 287.288 344.762 290.519 342.642 294.46 342.642 294.46 348.654 293.357 351.334 290.577 354.176 288.932 358.434 281.932 358.434 281.932 359.87 285.48 359.282 288.166 357.315 292.199 363.951 289.054 367.806 286.677 369.186 279.556 369.6 278.221 371.252 277.535 371.252 277.535 370.617 283.184 375.552 282.567 372.579 288.374 380.052 284.726 380.837 283.819 385.575 273.404 387.975 276.94 388.269 279.607 386.337 283.161 389.447 282.256 396.168 279.037 394.744 271.88 398.548 273.67 399.133 275.635 399.359 278.137 401.466 276.681 403.831 272.676 401.813 264.836" fill="#ffcc00" fill-opacity="1" stroke="#cc0000" stroke-width="1" stroke-opacity="1" stroke-linejoin="round" stroke-linecap="round"/>
  <path id="Pfad-38" d="M429.247 242.936 C429.247 242.936 429.325 245.267 429.384 246.715 429.562 247.61 429.923 249.319 430.352 250.071 430.729 250.418 430.94 250.834 431.38 251.426 431.671 251.847 432.122 252.28 431.992 252.992 432.189 254.77 431.301 255.991 430.043 256.786 428.539 257.643 426.431 257.976 424.402 258.316 422.379 258.575 420.533 258.607 419.467 258.933 416.368 259.679 412.232 261.475 410.036 264.208 409.951 264.282 408.802 265.806 408.148 267.123 407.608 267.968 407.456 269 407.15 269.941 L407.027 271.696 406.993 272.175 406.52 272.062 C405.356 271.499 404.46 270.554 403.74 269.381 403.146 268.698 402.723 267.867 402.284 267.275 L401.814 265.959 401.818 264.756 402.464 265.844 C402.876 266.835 403.516 268.002 404.321 269.101 404.904 269.944 405.572 270.712 406.427 271.093 406.364 270.848 406.461 270.614 406.596 269.822 406.669 268.784 406.992 267.604 407.447 266.834 408.345 265.453 409.5 263.85 409.5 263.85 411.787 260.962 416.093 259.018 419.273 258.278 420.418 257.957 422.35 257.851 424.293 257.586 426.396 257.332 428.35 256.908 429.598 256.273 430.856 255.479 431.402 254.555 431.343 253.107 431.302 252.543 431.165 252.213 430.873 251.791 430.422 251.359 430.051 250.932 429.851 250.356 429.194 249.428 428.883 247.001 428.95 246.043 Z" fill="#cc0000" fill-opacity="1" stroke="none"/>
  <path id="Pfad-39" d="M314.626 270.768 C314.626 270.768 318.44 271.276 319.894 271.137 L328.563 271.021 C328.563 271.021 322.249 271.863 319.507 272.072 317.922 271.801 314.183 271.379 314.183 271.379 Z M316.911 250.719 C316.911 250.719 318.855 251.577 320.741 254.435 323.071 257.806 324.808 260.494 328.276 262.501 330.056 263.427 333.688 264.242 333.688 264.242 330.377 264.572 327.731 263.425 325.129 261.639 322.915 260.041 321.536 256.817 319.989 254.864 317.705 251.977 316.918 251.762 316.918 251.762 Z" fill="#cc0000" fill-opacity="1" stroke="none"/>
  <path id="Pfad-40" d="M308.044 275.441 C309.548 274.584 311.272 276.308 311.947 278.12 312.702 279.937 312.2 283.671 310.371 283.463 306.3 283.178 302.85 285.503 300.158 288.442 299.602 282.629 302.975 277.973 308.044 275.441 Z M306.901 250.5 C308.561 250.857 308.467 253.336 307.701 255.127 307.019 256.844 304.042 259.282 302.94 257.842 300.273 254.688 296.06 254.153 292.127 254.199 295.894 249.65 301.501 248.599 306.901 250.5 Z M328.04 241.794 C329.233 243.08 327.965 245.157 326.286 246.242 324.765 247.339 321.039 247.88 320.842 246.102 320.084 242.039 316.831 239.245 313.431 237.404 319.019 235.469 324.323 237.604 328.04 241.794 Z" fill="#ff9900" fill-opacity="1" stroke="#cc0000" stroke-width="1" stroke-opacity="1" stroke-linejoin="round" stroke-linecap="round"/>
  <g id="head">
   <path id="Pfad-41" d="M425.041 110.416 C434.498 108.214 428.311 95.76 456.36 93.744 451.354 97.669 451.67 98.893 450.995 101.661 458.106 96.304 467.077 94.165 476.677 97.948 466.987 100.037 463.954 100.979 461.783 104.509 469.305 101.297 476.553 102.013 487.908 105.918 484.288 107.229 482.182 108.67 480.829 110.821 506.799 115.588 485.396 144.132 512.952 161.778 507.13 163.616 499.911 161.347 494.1 156.129 499.888 161.666 504.116 172.307 501.847 179.526 498.386 190.03 502.142 193.661 499.015 202.825 489.827 229.85 482.111 238.132 489.313 255.557 469.024 245.237 472.88 235.963 472.006 223.231 463.442 236.746 468.383 247.517 477.338 259.371 462.253 257.193 455.653 246.066 450.2 235.74 443.572 251.396 452.623 254.996 442.494 270.247 445.833 250.03 432.512 253.59 426.31 234.471 430.763 254.51 422.501 255.697 425.646 266.903 416.512 261.052 420.195 246.233 411.624 239.218 410.113 247.052 410.586 254.062 412.129 260.665 401.709 252.559 398.539 252.016 396.773 233.688 390.653 242.082 390.044 250.781 391.283 259.448 383.268 251.349 380.611 238.894 385.439 231.773 381.237 231.078 377.517 239.559 377.12 245.226 361.714 199.48 413.911 195.03 418.758 165.857 L428.735 163.106 435.07 130.99 Z" fill="#ff9900" fill-opacity="1" stroke="#cc0000" stroke-width="1" stroke-opacity="1" stroke-linejoin="round" stroke-linecap="round"/>
   <path id="mouth" d="M421.008 141.715 C424.461 145.084 422.423 158.174 419.248 169.179 419.248 169.179 429.028 161.202 431.322 159.357 433.184 157.964 434.634 155.579 435.291 153.059 435.949 150.539 435.842 147.484 434.641 145.154 433.446 142.745 431.249 140.907 428.809 140.256 426.3 139.439 421.008 141.715 421.008 141.715 Z" fill="#552200" fill-opacity="1" stroke="#cc0000" stroke-width="1" stroke-opacity="1" stroke-linejoin="round" stroke-linecap="round"/>
   <path id="tongue" d="M388.85 149.731 C388.85 149.731 388.076 153.927 389.436 156.268 390.916 159.178 393.473 161.603 396.9 161.922 402.224 162.616 409.792 157.611 415.269 157.272 423.344 156.474 436.992 161.999 436.992 161.999 L434.33 150.746 C434.33 150.746 421.963 147.556 414.947 148.108 408.963 148.812 402.674 155.029 396.663 156.132 394.89 156.248 393.898 155.537 392.437 154.633 390.583 153.622 388.85 149.731 388.85 149.731 Z" fill="#ff5555" fill-opacity="1" stroke="#cc0000" stroke-width="1" stroke-opacity="1" stroke-linejoin="round" stroke-linecap="round"/>
   <path id="teeth" d="M416.932 141.51 C416.39 144.68 414.985 146.426 415.583 150.478 411.762 148.928 410.51 146.194 410.685 141.394 Z M409.514 139.788 C408.653 142.936 407.104 144.432 407.447 148.706 403.723 146.922 402.647 143.96 403.05 139.336 Z M422.088 166.41 C421.251 163.465 419.59 161.985 419.727 157.745 415.968 159.888 415.038 162.87 415.848 167.337 Z" fill="#ffffff" fill-opacity="1" stroke="#cc0000" stroke-width="1" stroke-opacity="1" stroke-linejoin="round" stroke-linecap="round"/>
   <path id="face" d="M473.863 146.213 C479.656 143.651 486.027 135.114 483.651 125.509 482.028 118.9 473.868 117.463 465.451 121.999 462.297 113.214 438.861 107.75 425.041 110.416 421.698 111.209 419.12 112.52 418.58 115.65 413.343 117.144 402.757 117.15 399.079 120.429 396.935 122.421 398.499 126.428 399.875 127.406 396.596 130.705 398.287 140.928 402.857 139.804 407.797 146.004 420.766 144.024 423.393 143.165 423.393 143.165 427.78 142.349 429.623 143.52 431.557 144.538 432.757 146.867 433.154 149.22 433.449 151.888 429.708 158.362 427.881 160.4 426.066 162.278 424.441 166.014 421.882 165.915 418.849 165.703 418.94 165.549 414.492 163.794 412.148 162.909 407.473 162.1 405.526 163.568 404.831 164.322 404.714 165.997 404.425 166.699 403.283 169.266 401.824 169.484 401.04 171.515 399.043 177.149 401.639 179.015 397.526 180.491 402.921 182.473 408.753 179.352 410.355 175.935 410.533 176.83 411.013 177.986 410.31 180.022 414.272 180.7 414.551 176.71 416.532 174.763 416.363 176.034 416.598 177.254 417.684 178.934 419.414 177.13 420.8 174.5 423.273 173.55 433.946 175.74 433.278 163.504 434.093 159.872 436.613 163.978 441.108 166.217 446.284 166.739 451.699 167.278 452.96 164.158 458.8 166.652 459.864 165.203 460.135 163.618 459.403 161.481 461.347 162.339 463.24 162.792 465.377 162.06 466.144 160.269 465.776 158.639 465.34 156.844 467.085 157.127 468.551 157.951 470.385 156.956 470.177 155.338 470.877 154.505 469.693 151.936 471.405 152.697 472.971 152.085 474.851 151.575 474.575 149.791 475.987 149.088 473.863 146.213 Z" fill="#ffcc00" fill-opacity="1" stroke="#cc0000" stroke-width="1" stroke-opacity="1" stroke-linejoin="round" stroke-linecap="round"/>
   <path id="Pfad-42" d="M404.108 141.415 L407.957 142.567 C401.647 138.757 402.289 129.58 403.917 128.09 L403.096 128.353 C401.502 129.364 401.287 138.171 404.108 141.415 Z" fill="#552200" fill-opacity="1" stroke="none"/>
   <path id="Pfad-43" d="M480.808 126.024 C480.06 124.111 478.339 123.494 476.998 123.167 475.581 122.796 474.131 122.879 472.656 123.329 469.226 124.22 465.712 126.3 462.009 132.232 L461.281 133.464 462.438 132.984 C463.913 132.526 465.395 131.987 466.603 131.912 465.864 133.303 465.21 134.621 465.179 136.223 L465.214 136.867 465.869 136.672 C466.86 136.26 467.766 135.922 468.974 135.847 468.167 137.073 467.359 138.3 467.168 139.89 L467.129 140.449 467.618 140.323 C468.662 140.316 469.237 140.115 470.519 140.125 470.025 141.454 469.81 142.24 470.591 142.536 470.653 141.658 471.039 140.723 471.585 139.798 L471.88 139.017 471.236 139.052 C469.315 138.998 469.059 139.221 468.324 139.41 468.732 138.155 469.471 136.763 470.21 135.372 L470.574 134.756 469.936 134.711 C468.34 134.599 467.354 134.931 466.352 135.503 466.526 134.152 467.089 132.988 467.742 131.671 L468.029 131.017 467.556 130.896 C466.292 130.615 464.983 130.988 463.581 131.54 466.883 126.751 469.899 124.916 472.836 124.192 474.631 123.756 478.413 123.571 480.808 126.024 Z M465.585 122.385 L465.238 121.607 C463.657 122.427 462.309 123.351 461.047 124.201 459.599 125.407 458.864 126.751 458.355 128.295 459.934 126.353 462.085 124.274 465.585 122.385 Z M427.187 134.769 C427.268 131.326 425.48 128.226 422.604 126.91 424.796 128.828 426.362 131.664 426.23 134.702 426.068 137.016 424.909 139.823 422.797 141.359 425.748 140.443 427.003 137.403 427.187 134.769 Z" fill="#cc0000" fill-opacity="1" stroke="none"/>
   <path id="Pfad-44" d="M414.155 136.504 C413.516 136.46 413.009 136.825 412.965 137.464 412.926 138.022 413.371 138.534 414.01 138.579 414.488 138.613 415.24 138.184 415.279 137.625 415.324 136.987 414.633 136.538 414.155 136.504 Z M418.407 136.481 C417.848 136.442 417.261 136.802 417.217 137.44 417.178 137.999 417.697 138.596 418.256 138.635 418.815 138.675 419.332 138.149 419.372 137.591 419.416 136.952 418.965 136.52 418.407 136.481 Z M421.369 135.405 C420.89 135.371 420.218 135.805 420.168 136.524 420.134 137.003 420.734 137.606 421.213 137.639 421.931 137.69 422.369 137.159 422.402 136.68 422.453 135.962 422.087 135.455 421.369 135.405 Z M414.332 132.828 C413.693 132.783 413.261 133.234 413.222 133.792 413.177 134.431 413.542 134.938 414.181 134.982 414.74 135.021 415.252 134.576 415.296 133.938 415.336 133.379 414.89 132.867 414.332 132.828 Z M418.429 132.713 C417.711 132.663 417.284 133.034 417.24 133.672 417.201 134.231 417.566 134.738 418.284 134.788 418.923 134.833 419.435 134.387 419.474 133.829 419.519 133.19 419.068 132.758 418.429 132.713 Z M421.995 131.038 C421.357 130.993 420.844 131.438 420.805 131.997 420.755 132.715 421.2 133.228 421.839 133.272 422.318 133.306 422.99 132.872 423.04 132.153 423.079 131.595 422.474 131.071 421.995 131.038 Z M398.993 120.512 C397.647 122.559 398.197 125.019 399.503 126.979 400.183 127.588 400.485 127.85 401.214 127.74 401.214 127.74 401.502 129.364 401.702 129.94 402.097 131.17 402.765 131.939 402.765 131.939 402.765 131.939 403.367 130.216 403.742 129.441 404.202 128.591 404.72 128.066 405.78 127.819 406.948 127.179 408.568 128.094 409.587 127.283 410.256 126.889 411.209 124.726 411.209 124.726 411.209 124.726 409.294 124.592 407.252 123.976 405.754 123.599 402.36 125.126 402.36 125.126 400.682 123.886 399.157 122.76 398.993 120.512 Z" fill="#552200" fill-opacity="1" stroke="none"/>
   <g id="eye">
    <path id="Pfad-45" d="M422.741 120.376 C421.645 119.994 421.756 119.553 421.756 119.553 L421.568 118.802 422.35 119.073 C422.35 119.073 425.084 120.123 429.502 120.015 431.351 119.951 433.83 118.914 436.013 118.657 437.061 118.57 438.265 118.558 439.016 119.284 439.929 119.998 440.493 121.112 440.691 122.866 439.741 122.687 439.602 121.234 438.473 120.177 437.943 119.723 437.224 119.68 436.253 119.805 434.311 120.054 431.834 121.068 429.583 121.159 425.407 121.244 423.751 120.831 422.741 120.376 Z" fill="#cc0000" fill-opacity="1" stroke="none"/>
    <path id="Pfad-46" d="M425.59 123.206 C425.876 124.853 428.828 127.369 431.581 126.993 434.411 126.653 436.078 123.458 435.797 121.746 435.433 120.068 433.222 120.724 430.386 121.135 427.633 121.52 425.31 121.478 425.59 123.206 Z" fill="#ffffff" fill-opacity="1" stroke="#cc0000" stroke-width="1" stroke-opacity="1" stroke-linejoin="round" stroke-linecap="round"/>
    <path id="Pfad-47" d="M427.056 124.038 C427.102 124.668 427.381 125.269 427.831 125.708 428.282 126.147 428.867 126.389 429.458 126.379 430.071 126.385 430.643 126.122 431.04 125.652 431.436 125.182 431.623 124.547 431.557 123.895 431.494 123.26 431.196 122.661 430.729 122.233 430.261 121.806 429.663 121.585 429.069 121.62 427.853 121.662 426.956 122.739 427.056 124.038 Z" fill="#552200" fill-opacity="1" stroke="none"/>
    <path id="Pfad-48" d="M428.974 122.985 C429.532 123.024 430.227 123.409 430.18 124.088 430.291 124.785 429.857 125.26 429.136 125.258 428.491 125.309 427.965 124.799 427.927 124.187 427.893 123.527 428.411 123.01 428.974 122.985 Z" fill="#000000" fill-opacity="1" stroke="none"/>
    <path id="Pfad-49" d="M428.353 122.693 C428.757 122.641 429.214 122.994 429.26 123.478 429.306 123.971 428.882 124.294 428.48 124.306 428.076 124.358 427.7 123.995 427.653 123.526 427.687 123.039 428.032 122.687 428.353 122.693 Z" fill="#ffffff" fill-opacity="1" stroke="none"/>
   </g>
   <path id="Pfad-50" d="M469.749 114.44 L465.451 121.999 C457.35 134.633 457.98 140.531 473.863 146.213 483.909 148.198 481.245 165.655 479.971 167.812 466.46 189.001 434.878 173.881 433.715 158.402 452.87 149.396 437.933 139.37 431.307 137.784 442.948 138.758 467.828 117.835 453.167 116.473 434.203 114.714 445.755 110.084 426.463 110.724 430.498 106.924 431.892 107.623 434.023 106.97 L441.361 105.254" fill="#ff9900" fill-opacity="1" stroke="none"/>
  </g>
 </g>
</svg>
