<?xml version="1.0" encoding="UTF-8"?>
<svg width="598px" height="657px" viewBox="0 0 598 657" xmlns="http://www.w3.org/2000/svg" xmlns:xlink="http://www.w3.org/1999/xlink" version="1.1">
 <!-- Generated by Pixelmator Pro 2.0.6 -->
 <g id="kraken">
  <g id="long-tentacle">
   <path id="Pfad" d="M292.12 289.161 C287.612 283.007 284.632 275.365 278.598 270.698 271.203 264.98 262.461 259.048 253.113 258.996 244.971 258.951 235.803 263.506 231.53 270.438 226.88 277.982 227.685 288.335 229.71 296.962 233.799 314.388 245.469 329.445 249.473 346.89 252.85 361.606 253.856 374.993 249.898 389.563 247.375 398.852 240.335 409.055 231.53 412.941 220.688 417.726 205.734 417.81 194.509 414.007 182.53 409.949 174.164 401.863 168.739 390.438 161.955 376.152 161.758 358.989 162.39 343.187 162.904 330.348 167.754 305.083 174.111 288.819 181.701 269.4 187.878 257.399 194.084 239.493 198.49 226.779 202.632 213.68 202.894 200.227 203.249 182.026 204.087 163.752 195.506 136.581 188.419 114.141 179.555 101.633 163.22 94.803 151.217 89.785 138.834 92.866 132.865 101.312 122.81 115.54 123.982 115.09 118.299 131.56 113.967 144.114 104.322 160.574 96.922 168.21 86.84 178.615 68.817 187.092 54.474 185.044 41.998 183.263 31.284 172.521 24.648 161.806 18.21 151.411 15.76 137.837 17.766 125.776 19.728 113.982 26.668 102.489 35.8 94.772 63.065 71.732 44.233 71.917 62.953 67.494 89.121 61.31 106.074 55.727 130.048 45.773 131.888 50.356 128.523 57.963 123.801 62.346 109.357 75.755 92.382 88.146 73.958 95.146 64.79 98.629 63.796 90.561 58.629 91.771 50.835 93.595 45.233 98.469 40.539 104.953 34.347 113.507 29.38 124.953 29.658 135.509 29.931 145.875 33.734 153.02 37.883 158.536 43.947 166.598 48.472 171.937 58.401 173.718 67.982 175.436 84.481 165.221 90.48 157.555 109.122 133.73 106.237 110.593 127.699 89.273 137.399 79.637 155.135 77.37 171.07 85.628 193.972 97.498 206.66 121.748 211.203 142.727 215.505 162.591 217.593 188.655 214.806 208.787 210.392 240.664 194.132 270.305 186.372 294.514 181.244 310.51 177.06 327.019 175.805 343.77 174.766 357.633 175.919 372.209 181.082 385.117 183.844 392.022 191.007 397.106 197.985 399.679 205.715 402.529 215.057 403.564 222.689 400.459 229.083 397.857 234.008 391.032 235.691 384.337 238.5 373.155 238.312 360.914 235.431 349.751 230.634 331.17 217.581 315.354 213.067 296.702 210.815 287.397 211.059 271.973 215.851 263.685 222.395 252.367 231.034 245.033 243.873 242.569 260.061 239.462 276.864 249.461 292.9 253.275" fill="#ffcc00" fill-opacity="1" stroke="#4c3d00" stroke-width="1" stroke-opacity="1" stroke-linejoin="round" stroke-linecap="round"/>
   <path id="Pfad-1" d="M77.956 92.623 C78.961 93.297 79.754 94.571 79.406 95.802 79.105 96.865 77.953 97.395 76.927 97.664 75.799 97.961 74.749 98.566 73.597 98.75 72.79 98.88 72.094 98.267 71.664 97.623 71.32 97.106 70.882 96.47 71.183 95.853 71.595 95.01 72.589 94.815 73.338 94.398 74.327 93.847 75.249 93.111 76.036 92.854 76.823 92.597 77.444 92.28 77.956 92.623 77.956 92.623 77.956 92.623 77.956 92.623 Z M87.715 87.908 C88.776 88.489 89.678 89.688 89.442 90.942 89.238 92.026 88.144 92.653 87.151 93.012 86.059 93.407 85.076 94.102 83.954 94.392 83.167 94.594 82.419 94.053 81.932 93.455 81.541 92.976 81.046 92.389 81.285 91.748 81.612 90.872 82.579 90.584 83.285 90.099 84.215 89.459 85.065 88.641 85.824 88.313 86.585 87.984 87.175 87.612 87.715 87.908 87.715 87.908 87.715 87.908 87.715 87.908 Z M97.061 82.378 C98.167 82.875 99.16 84.004 99.024 85.274 98.907 86.371 97.867 87.082 96.909 87.518 95.854 87.999 94.933 88.772 93.841 89.153 93.076 89.419 92.284 88.943 91.747 88.389 91.317 87.945 90.772 87.402 90.956 86.743 91.207 85.842 92.148 85.472 92.811 84.928 93.687 84.211 94.469 83.324 95.203 82.934 95.936 82.544 96.498 82.126 97.061 82.378 97.061 82.378 97.061 82.378 97.061 82.378 Z M106.008 76.159 C107.15 76.58 108.216 77.643 108.168 78.922 108.127 80.026 107.14 80.806 106.215 81.309 105.197 81.862 104.335 82.699 103.274 83.158 102.531 83.48 101.705 83.063 101.127 82.55 100.663 82.138 100.077 81.636 100.211 80.964 100.394 80.043 101.309 79.603 101.934 79.01 102.758 78.229 103.479 77.285 104.186 76.844 104.894 76.402 105.428 75.944 106.008 76.159 106.008 76.159 106.008 76.159 106.008 76.159 Z M114.573 69.375 C115.738 69.73 116.862 70.732 116.89 72.012 116.914 73.116 115.977 73.952 115.086 74.508 114.104 75.12 113.298 76.009 112.269 76.534 111.549 76.902 110.697 76.538 110.085 76.061 109.596 75.68 108.976 75.215 109.067 74.534 109.191 73.602 110.079 73.102 110.667 72.471 111.443 71.638 112.108 70.65 112.79 70.167 113.472 69.683 113.98 69.194 114.573 69.375 114.573 69.375 114.573 69.375 114.573 69.375 Z M122.77 62.151 C123.949 62.45 125.114 63.395 125.205 64.668 125.283 65.765 124.394 66.643 123.536 67.241 122.592 67.9 121.837 68.827 120.841 69.405 120.144 69.809 119.275 69.492 118.639 69.049 118.129 68.695 117.485 68.265 117.539 67.58 117.612 66.642 118.472 66.096 119.027 65.435 119.759 64.563 120.374 63.544 121.03 63.028 121.687 62.512 122.171 62 122.77 62.151 122.77 62.151 122.77 62.151 122.77 62.151 Z M128.708 53.54 C129.866 53.304 131.428 53.531 132.028 54.713 132.116 54.886 132.171 55.067 132.199 55.253 132.371 56.187 131.907 57.229 131.351 58.044 130.622 59.111 130.069 60.345 129.126 61.242 128.463 61.873 127.518 61.733 126.816 61.407 126.244 61.141 125.563 60.819 125.501 60.133 125.416 59.212 126.112 58.541 126.461 57.776 126.916 56.778 127.124 55.665 127.518 54.98 127.816 54.462 128.003 53.974 128.333 53.716 128.438 53.631 128.56 53.57 128.707 53.54 L128.707 53.54 Z" fill="#ffcc00" fill-opacity="1" stroke="#4c3d00" stroke-width="1" stroke-opacity="1" stroke-linejoin="round" stroke-linecap="round"/>
  </g>
  <g id="head">
   <path id="Pfad-2" d="M300 397.153 C315.486 414.386 343.272 424.844 348.335 449.686 318.49 456.6 327.106 484.57 354.798 488.044 347.849 504.999 349.807 514.371 362.871 529.346 344.57 531.186 340.212 540.908 347.293 556.004 322.773 552.669 307.426 565.593 300 589.776 292.574 565.593 277.227 552.669 252.707 556.004 259.788 540.908 255.43 531.186 237.129 529.346 250.193 514.371 252.151 504.999 245.202 488.044 272.894 484.57 281.51 456.6 251.665 449.686 256.728 424.844 284.514 414.386 300 397.153" fill="#ffcc00" fill-opacity="1" stroke="#4c3d00" stroke-width="1" stroke-opacity="1" stroke-linejoin="round" stroke-linecap="round"/>
   <path id="Pfad-3" d="M313.341 254.836 C315.104 268.15 314.041 288.3 318.542 294.362 320.536 292.282 325.175 286.446 329.724 284.22 336.982 280.669 341.06 280.738 346.887 281.62 352.342 282.445 360.322 287.948 360.149 295.662 355.295 289.473 347.672 289.562 341.686 290.721 335.939 291.834 329.869 300.177 329.204 307.104 325.317 347.571 340.555 382.862 327.643 436.345 318.439 474.473 307.888 491.647 300 542.442 292.112 491.647 281.561 474.473 272.357 436.345 259.445 382.862 274.683 347.571 270.796 307.104 270.131 300.177 264.061 291.834 258.314 290.721 252.328 289.562 244.705 289.473 239.851 295.662 239.678 287.948 247.658 282.445 253.113 281.62 258.94 280.738 263.018 280.669 270.276 284.22 274.825 286.446 279.464 292.282 281.458 294.362 285.959 288.3 284.896 268.15 286.659 254.836 288.751 239.031 298.093 233.512 300 222.33 301.907 233.512 311.249 239.031 313.341 254.836 Z" fill="#ffcc00" fill-opacity="1" stroke="#4c3d00" stroke-width="1" stroke-opacity="1" stroke-linejoin="round" stroke-linecap="round"/>
  </g>
  <g id="tentacle-1">
   <path id="Pfad-4" d="M288.387 303.392 C288.501 295.39 287.431 279.355 283.018 272.518 275.572 260.983 266.405 249.332 254.154 243.134 243.191 237.587 228.463 238.968 216.201 239.731 200.302 240.72 186.398 246.728 170.55 248.335 161.44 249.258 151.496 250.595 143.116 246.904 137.079 244.246 133.6 236.666 133.306 229.938 135.669 234.564 141.971 238.741 147.012 239.74 156.328 241.586 166.331 240.158 175.671 238.444 190.297 235.76 201.125 228.558 215.667 225.451 225.471 223.356 236.355 222.334 246.07 224.81 257.239 227.656 282.121 233.791 291.133 240.977" fill="#ffcc00" fill-opacity="1" stroke="#4c3d00" stroke-width="1" stroke-opacity="1" stroke-linejoin="round" stroke-linecap="round"/>
   <path id="Pfad-5" d="M254.873 227.95 C254.491 226.795 254.669 225.306 255.691 224.547 256.572 223.893 257.781 224.169 258.743 224.568 259.801 225.007 260.983 225.139 262.005 225.662 262.72 226.028 262.924 226.928 262.897 227.701 262.876 228.32 262.864 229.092 262.261 229.418 261.435 229.865 260.511 229.439 259.656 229.33 258.528 229.188 257.338 229.22 256.549 228.945 255.76 228.67 255.067 228.537 254.873 227.95 254.873 227.95 254.873 227.95 254.873 227.95 Z M244.306 225.259 C243.887 224.136 243.938 222.628 244.96 221.83 245.506 221.404 246.217 221.337 246.926 221.452 247.329 221.517 247.73 221.644 248.095 221.789 249.149 222.207 250.322 222.31 251.347 222.803 252.064 223.147 252.292 224.039 252.289 224.812 252.287 225.43 252.299 226.204 251.707 226.548 250.894 227.02 249.955 226.619 249.097 226.529 247.963 226.412 246.77 226.464 245.973 226.2 245.893 226.173 245.813 226.148 245.735 226.123 245.062 225.909 244.499 225.775 244.306 225.258 244.306 225.258 244.306 225.258 244.306 225.258 Z M233.657 224.17 C233.007 223.157 232.759 221.667 233.581 220.676 234.294 219.817 235.597 219.804 236.671 219.992 237.851 220.199 239.093 220.113 240.236 220.467 241.04 220.716 241.388 221.578 241.475 222.343 241.545 222.959 241.638 223.714 241.09 224.123 240.346 224.678 239.391 224.411 238.544 224.462 237.43 224.529 236.302 224.814 235.49 224.728 234.677 224.642 233.989 224.687 233.657 224.17 233.657 224.17 233.657 224.17 233.657 224.17 Z M222.848 225.008 C222.046 224.093 221.596 222.647 222.257 221.538 222.829 220.58 224.098 220.365 225.178 220.378 226.364 220.393 227.559 220.094 228.736 220.239 229.562 220.341 230.063 221.128 230.294 221.867 230.479 222.462 230.717 223.192 230.254 223.7 229.623 224.392 228.62 224.304 227.784 224.505 226.684 224.768 225.6 225.239 224.771 225.282 223.941 225.326 223.257 225.474 222.848 225.008 222.848 225.008 222.848 225.008 222.848 225.007 Z M212.204 227.161 C211.306 226.356 210.683 224.986 211.206 223.813 211.659 222.798 212.897 222.433 213.976 222.318 214.307 222.283 214.635 222.224 214.964 222.157 215.787 221.989 216.611 221.762 217.452 221.761 218.27 221.76 218.863 222.475 219.186 223.181 219.446 223.747 219.78 224.445 219.384 225.009 218.844 225.779 217.829 225.815 217.021 226.108 216.642 226.246 216.268 226.407 215.905 226.564 215.255 226.847 214.648 227.122 214.127 227.209 213.316 227.346 212.662 227.572 212.204 227.161 212.204 227.161 212.204 227.161 212.204 227.161 Z M201.903 230.599 C200.921 229.879 200.192 228.562 200.588 227.347 200.928 226.3 202.087 225.821 203.118 225.592 204.25 225.34 205.316 224.771 206.472 224.625 207.284 224.522 207.96 225.155 208.369 225.811 208.696 226.337 209.112 226.983 208.793 227.589 208.357 228.417 207.362 228.582 206.6 228.977 205.595 229.499 204.645 230.208 203.844 230.439 203.043 230.67 202.403 230.965 201.903 230.599 201.903 230.599 201.903 230.599 201.903 230.599 Z M191.668 234.559 C190.678 233.838 189.977 232.518 190.355 231.308 190.68 230.269 191.795 229.789 192.791 229.543 193.886 229.272 194.898 228.67 196.019 228.471 196.804 228.332 197.513 228.924 197.964 229.554 198.324 230.059 198.788 230.681 198.508 231.308 198.123 232.169 197.124 232.393 196.372 232.823 195.377 233.393 194.436 234.131 193.626 234.379 192.819 234.626 192.17 234.924 191.668 234.559 191.668 234.559 191.668 234.559 191.668 234.559 Z M181.222 238.032 C180.302 237.223 179.759 235.844 180.233 234.687 180.638 233.698 181.745 233.328 182.719 233.163 183.793 232.98 184.797 232.448 185.891 232.303 186.654 232.203 187.332 232.815 187.761 233.457 188.103 233.969 188.551 234.605 188.253 235.22 187.841 236.068 186.827 236.255 186.053 236.645 185.021 237.164 184.035 237.832 183.195 238.019 182.367 238.202 181.687 238.441 181.222 238.033 181.222 238.033 181.222 238.033 181.222 238.033 Z M170.403 240.214 C169.575 239.304 169.16 237.861 169.775 236.751 170.302 235.798 171.485 235.557 172.503 235.517 173.363 235.484 174.211 235.248 175.067 235.151 175.313 235.124 175.561 235.108 175.81 235.112 176.556 235.125 177.142 235.82 177.484 236.51 177.756 237.058 178.124 237.745 177.752 238.316 177.328 238.964 176.551 239.117 175.828 239.301 175.672 239.341 175.519 239.383 175.372 239.433 174.286 239.803 173.215 240.345 172.367 240.428 171.523 240.511 170.823 240.674 170.403 240.214 170.403 240.214 170.403 240.214 170.403 240.214 Z M159.395 241.399 C158.673 240.405 158.45 238.939 159.165 237.911 159.777 237.031 160.935 236.908 161.921 236.956 163.008 237.009 164.103 236.701 165.202 236.792 165.969 236.856 166.505 237.6 166.792 238.322 167.019 238.897 167.328 239.616 166.905 240.159 166.321 240.906 165.283 240.875 164.438 241.092 163.31 241.382 162.198 241.822 161.332 241.82 160.479 241.819 159.76 241.902 159.395 241.4 159.395 241.399 159.395 241.399 159.395 241.399 Z M148.359 240.836 C147.847 239.714 147.952 238.238 148.842 237.38 149.601 236.649 150.717 236.757 151.64 236.98 152.66 237.227 153.747 237.106 154.78 237.359 155.497 237.535 155.91 238.339 156.088 239.087 156.23 239.68 156.435 240.432 155.945 240.904 155.265 241.557 154.243 241.371 153.377 241.447 152.218 241.55 151.047 241.785 150.187 241.622 149.345 241.463 148.616 241.401 148.359 240.836 148.359 240.836 148.359 240.836 148.359 240.836 Z M137.873 236.563 C137.937 235.295 138.787 234.094 139.946 233.71 140.929 233.385 141.793 233.892 142.482 234.424 143.243 235.012 144.221 235.249 145.037 235.79 145.596 236.161 145.74 237.055 145.701 237.828 145.671 238.437 145.671 239.238 145.065 239.558 144.208 240.01 143.247 239.502 142.374 239.266 141.192 238.946 139.984 238.687 139.222 238.139 138.49 237.613 137.841 237.197 137.873 236.563 137.873 236.563 137.873 236.563 137.873 236.563 Z" fill="#ffcc00" fill-opacity="1" stroke="#4c3d00" stroke-width="1" stroke-opacity="1" stroke-linejoin="round" stroke-linecap="round"/>
  </g>
  <g id="tentacle-2">
   <path id="Pfad-6" d="M278.328 252.717 C273.363 244.167 267.83 239.437 261.595 234.605 251.691 226.93 238.877 219.944 227.394 214.93 216.812 210.309 203.51 203.41 192.273 194.888 183.219 188.021 174.449 177.733 168.829 171.075 163.489 164.75 157.83 155.424 156.877 149.286 156.051 143.963 154.176 137.606 157.704 125.934 159.036 136.381 159.398 139.659 164.562 149.344 169.534 158.668 175.891 165.435 183.447 172.822 196.286 185.372 204.561 190.69 216.913 197.462 227.146 203.072 239.279 208.435 251.482 213.275 259.272 216.366 283.722 230.253 293.958 246.741" fill="#ffcc00" fill-opacity="1" stroke="#4c3d00" stroke-width="1" stroke-opacity="1" stroke-linejoin="round" stroke-linecap="round"/>
   <path id="Pfad-7" d="M266.085 222.092 C266.091 220.875 266.723 219.507 267.944 219.116 268.999 218.778 270.073 219.444 270.859 220.142 271.724 220.911 272.799 221.432 273.587 222.265 274.138 222.848 274.031 223.765 273.752 224.484 273.528 225.06 273.263 225.785 272.588 225.894 271.66 226.043 270.929 225.335 270.158 224.951 269.139 224.444 268.005 224.086 267.349 223.571 266.693 223.056 266.081 222.71 266.085 222.092 266.085 222.092 266.085 222.092 266.085 222.092 Z M256.729 216.581 C256.605 215.38 257.063 213.945 258.241 213.428 259.26 212.98 260.42 213.54 261.287 214.169 262.24 214.862 263.377 215.301 264.246 216.083 264.855 216.631 264.815 217.558 264.583 218.297 264.398 218.89 264.179 219.63 263.509 219.783 262.594 219.993 261.818 219.342 261.022 219.022 259.972 218.601 258.821 218.354 258.126 217.91 257.43 217.466 256.793 217.193 256.729 216.581 256.729 216.581 256.729 216.581 256.729 216.581 Z M246.75 212.285 C246.515 211.086 246.892 209.638 247.995 209.012 248.943 208.473 250.091 208.888 250.984 209.387 251.535 209.695 252.136 209.909 252.724 210.145 253.215 210.343 253.694 210.561 254.129 210.853 254.822 211.318 254.911 212.244 254.78 213.005 254.675 213.617 254.555 214.374 253.913 214.615 253.039 214.943 252.189 214.411 251.358 214.215 251.282 214.196 251.206 214.18 251.129 214.164 250.086 213.94 249.005 213.825 248.301 213.482 247.544 213.114 246.869 212.892 246.75 212.285 246.75 212.285 246.75 212.285 246.75 212.285 Z M236.639 208.022 C236.436 206.817 236.855 205.382 237.973 204.785 238.933 204.271 240.066 204.713 240.944 205.233 241.911 205.805 243.044 206.079 243.976 206.711 244.626 207.151 244.723 208.065 244.611 208.83 244.522 209.44 244.427 210.211 243.792 210.467 242.919 210.821 242.044 210.286 241.206 210.07 240.097 209.783 238.909 209.65 238.159 209.26 237.412 208.872 236.742 208.633 236.639 208.022 236.639 208.022 236.639 208.022 236.639 208.022 Z M226.668 203.431 C226.51 202.219 226.985 200.803 228.122 200.248 229.099 199.771 230.21 200.252 231.066 200.8 232.009 201.404 233.128 201.714 234.036 202.372 234.67 202.832 234.738 203.747 234.602 204.508 234.494 205.115 234.376 205.882 233.734 206.12 232.85 206.446 231.992 205.884 231.161 205.64 230.061 205.316 228.879 205.142 228.143 204.725 227.409 204.31 226.748 204.045 226.668 203.431 226.668 203.431 226.668 203.431 226.668 203.431 Z M216.898 198.415 C216.87 198.07 216.894 197.711 216.968 197.362 217.103 196.73 217.406 196.132 217.873 195.712 218.058 195.545 218.268 195.407 218.504 195.305 219.501 194.875 220.585 195.406 221.411 195.991 222.322 196.636 223.423 196.993 224.299 197.687 224.91 198.172 224.939 199.088 224.772 199.843 224.639 200.444 224.49 201.206 223.839 201.417 222.943 201.706 222.108 201.108 221.289 200.828 220.203 200.457 219.03 200.229 218.312 199.778 217.597 199.329 216.948 199.032 216.898 198.415 216.898 198.415 216.898 198.415 216.898 198.415 Z M207.424 192.831 C207.405 191.607 208.046 190.261 209.235 189.838 210.255 189.475 211.296 190.072 212.079 190.704 212.942 191.401 214.014 191.82 214.843 192.559 215.421 193.075 215.398 193.991 215.19 194.734 215.024 195.327 214.834 196.081 214.173 196.256 213.261 196.496 212.459 195.85 211.658 195.521 210.593 195.085 209.437 194.783 208.747 194.285 208.062 193.79 207.433 193.45 207.424 192.831 207.424 192.831 207.424 192.831 207.424 192.831 Z M198.363 186.609 C198.431 185.389 199.164 184.091 200.378 183.753 201.421 183.463 202.415 184.13 203.151 184.814 203.962 185.568 205.001 186.059 205.776 186.854 206.316 187.407 206.231 188.318 205.972 189.045 205.766 189.625 205.525 190.363 204.854 190.492 203.928 190.669 203.174 189.97 202.397 189.587 201.366 189.078 200.234 188.697 199.58 188.152 198.932 187.611 198.328 187.228 198.363 186.61 198.363 186.61 198.363 186.61 198.363 186.609 Z M189.77 179.758 C189.926 178.544 190.752 177.304 191.988 177.055 193.048 176.841 193.991 177.578 194.674 178.313 195.428 179.124 196.428 179.687 197.143 180.534 197.642 181.124 197.492 182.026 197.182 182.733 196.936 183.296 196.643 184.016 195.965 184.096 195.029 184.207 194.326 183.456 193.579 183.018 192.587 182.437 191.485 181.976 190.872 181.385 190.264 180.798 189.69 180.372 189.769 179.758 189.77 179.758 189.77 179.758 189.77 179.758 Z M181.699 172.287 C181.941 171.087 182.851 169.898 184.107 169.741 184.771 169.658 185.364 169.934 185.869 170.345 186.182 170.599 186.463 170.905 186.705 171.207 187.395 172.073 188.35 172.71 189 173.607 189.453 174.233 189.237 175.122 188.876 175.804 188.589 176.348 188.244 177.044 187.561 177.074 186.619 177.116 185.973 176.315 185.259 175.822 184.312 175.168 183.246 174.625 182.679 173.989 182.619 173.921 182.559 173.856 182.5 173.792 182.009 173.258 181.589 172.83 181.699 172.287 181.699 172.287 181.699 172.287 181.699 172.287 Z M174.111 164.285 C174.438 163.102 175.438 161.995 176.696 161.92 177.776 161.855 178.605 162.71 179.182 163.532 179.817 164.438 180.735 165.134 181.331 166.075 181.747 166.732 181.474 167.609 181.069 168.27 180.747 168.796 180.356 169.47 179.67 169.457 178.725 169.438 178.129 168.596 177.446 168.058 176.538 167.343 175.507 166.734 174.979 166.059 174.456 165.39 173.945 164.884 174.111 164.285 Z M167.346 155.576 C167.815 154.443 168.947 153.487 170.194 153.561 171.26 153.625 171.965 154.549 172.435 155.411 172.953 156.361 173.78 157.128 174.273 158.102 174.617 158.781 174.267 159.622 173.807 160.242 173.44 160.735 172.993 161.373 172.314 161.299 171.375 161.197 170.859 160.3 170.235 159.697 169.402 158.893 168.448 158.176 167.998 157.441 167.555 156.715 167.109 156.148 167.346 155.576 167.346 155.576 167.346 155.576 167.346 155.576 Z M161.892 145.969 C162.524 144.911 163.788 144.127 165.016 144.381 166.068 144.599 166.636 145.624 166.977 146.567 167.125 146.978 167.325 147.37 167.532 147.76 167.837 148.334 168.165 148.895 168.365 149.513 168.595 150.223 168.127 151.001 167.584 151.547 167.153 151.981 166.621 152.551 165.96 152.382 165.046 152.147 164.664 151.181 164.137 150.486 163.972 150.269 163.799 150.054 163.627 149.842 163.073 149.161 162.521 148.518 162.266 147.915 161.933 147.132 161.573 146.504 161.892 145.969 161.892 145.969 161.892 145.969 161.892 145.969 Z M158.252 135.468 C159.122 134.592 160.537 134.158 161.661 134.693 162.575 135.128 162.887 136.137 163.021 137.025 163.027 137.07 163.034 137.114 163.038 137.158 163.161 138.169 163.671 139.109 163.826 140.146 163.933 140.866 163.35 141.556 162.727 142.012 162.234 142.373 161.618 142.858 160.991 142.588 160.121 142.213 159.898 141.189 159.498 140.408 159.117 139.662 158.695 138.967 158.409 138.273 158.293 137.988 158.205 137.716 158.16 137.463 158.011 136.611 157.814 135.908 158.252 135.468 158.252 135.468 158.252 135.468 158.252 135.468 Z" fill="#ffcc00" fill-opacity="1" stroke="#4c3d00" stroke-width="1" stroke-opacity="1" stroke-linejoin="round" stroke-linecap="round"/>
  </g>
  <g id="tentacle-3">
   <path id="Pfad-8" d="M286.603 233.87 C278.185 223.961 268.997 210.985 263.04 199.072 257.242 187.477 253.326 176.245 251.482 163.628 249.221 148.154 244.367 129.466 239.714 118.211 235.261 107.441 226.264 97.297 219.303 92.468 214.697 89.271 207.597 86.645 200.916 86.951 207.457 90.128 211.128 92.975 214.982 96.973 218.175 100.284 226.511 111.416 229.968 120.049 235.899 134.857 239.702 149.211 241.92 166.387 243.794 180.892 248.988 194.748 255.698 207.544 260.72 217.12 266.103 226.912 272.996 236.076" fill="#ffcc00" fill-opacity="1" stroke="#4c3d00" stroke-width="1" stroke-opacity="1" stroke-linejoin="round" stroke-linecap="round"/>
   <path id="Pfad-9" d="M268.436 210.407 C268.952 209.297 270.115 208.36 271.37 208.497 272.448 208.614 273.127 209.605 273.558 210.518 274.033 211.524 274.817 212.373 275.24 213.406 275.535 214.126 275.112 214.94 274.598 215.517 274.189 215.977 273.686 216.57 273.015 216.436 272.091 216.251 271.654 215.32 271.076 214.674 270.31 213.816 269.4 213.041 268.995 212.293 268.594 211.549 268.175 210.969 268.436 210.407 268.436 210.407 268.436 210.407 268.436 210.407 Z M262.992 200.839 C263.593 199.771 264.827 198.934 266.065 199.165 267.128 199.362 267.725 200.394 268.085 201.329 268.482 202.359 269.201 203.253 269.552 204.304 269.797 205.037 269.323 205.82 268.774 206.363 268.336 206.796 267.797 207.357 267.136 207.18 266.225 206.937 265.849 205.978 265.317 205.293 264.609 204.383 263.757 203.545 263.408 202.765 263.062 201.992 262.688 201.38 262.992 200.839 Z M258.34 190.853 C259.026 189.836 260.324 189.1 261.541 189.431 262.586 189.715 263.099 190.794 263.382 191.757 263.694 192.818 264.337 193.769 264.6 194.846 264.784 195.597 264.247 196.339 263.655 196.836 263.183 197.231 262.6 197.746 261.955 197.517 261.066 197.199 260.77 196.212 260.295 195.485 259.664 194.52 258.882 193.613 258.598 192.807 258.316 192.008 257.993 191.367 258.34 190.853 258.34 190.853 258.34 190.853 258.34 190.853 Z M254.541 180.509 C255.313 179.557 256.67 178.943 257.852 179.378 258.865 179.751 259.28 180.866 259.478 181.845 259.697 182.925 260.257 183.922 260.43 185.013 260.55 185.774 259.955 186.469 259.324 186.915 258.821 187.271 258.198 187.737 257.574 187.455 256.714 187.066 256.5 186.056 256.088 185.292 255.54 184.276 254.84 183.306 254.626 182.478 254.415 181.657 254.15 180.99 254.541 180.509 254.541 180.509 254.541 180.509 254.541 180.509 Z M251.735 169.857 C252.598 168.987 254.01 168.515 255.14 169.064 256.109 169.534 256.41 170.679 256.511 171.667 256.622 172.758 257.084 173.799 257.152 174.897 257.2 175.662 256.544 176.297 255.875 176.682 255.343 176.989 254.68 177.396 254.085 177.058 253.265 176.592 253.147 175.567 252.809 174.767 252.36 173.704 251.758 172.672 251.626 171.825 251.496 170.987 251.299 170.297 251.735 169.857 251.735 169.857 251.735 169.857 251.735 169.857 Z M249.916 159.028 C250.815 158.208 252.248 157.756 253.36 158.383 254.319 158.922 254.559 160.147 254.584 161.189 254.601 161.843 254.723 162.492 254.814 163.141 254.879 163.61 254.931 164.077 254.91 164.548 254.876 165.312 254.157 165.874 253.452 166.188 252.891 166.438 252.188 166.774 251.632 166.377 250.864 165.828 250.854 164.794 250.602 163.962 250.583 163.896 250.562 163.831 250.542 163.766 250.215 162.745 249.756 161.744 249.69 160.964 249.62 160.131 249.459 159.445 249.916 159.028 249.916 159.028 249.916 159.028 249.916 159.028 Z M247.914 148.29 C248.775 147.43 250.186 146.911 251.327 147.487 252.311 147.984 252.607 149.201 252.679 150.246 252.759 151.395 253.165 152.519 253.149 153.668 253.138 154.473 252.419 155.055 251.714 155.374 251.15 155.629 250.451 155.962 249.891 155.565 249.123 155.022 249.096 154.003 248.814 153.188 248.441 152.113 247.882 151.062 247.775 150.234 247.669 149.405 247.477 148.727 247.914 148.29 247.914 148.29 247.914 148.29 247.915 148.29 Z M245.378 137.679 C246.19 136.774 247.567 136.176 248.738 136.69 249.747 137.133 250.11 138.335 250.239 139.376 250.38 140.522 250.844 141.626 250.886 142.777 250.915 143.583 250.227 144.2 249.538 144.554 248.987 144.836 248.305 145.202 247.727 144.833 246.934 144.328 246.857 143.313 246.534 142.515 246.107 141.461 245.495 140.443 245.344 139.624 245.194 138.803 244.966 138.139 245.378 137.679 245.378 137.679 245.378 137.679 245.378 137.679 Z M242.215 127.26 C242.965 126.307 244.299 125.618 245.5 126.056 246.536 126.434 246.975 127.612 247.169 128.646 247.382 129.783 247.913 130.858 248.024 132.007 248.102 132.811 247.452 133.467 246.786 133.86 246.252 134.174 245.594 134.578 244.996 134.244 244.177 133.786 244.039 132.78 243.669 132.005 243.181 130.981 242.507 130.006 242.306 129.199 242.105 128.392 241.834 127.746 242.215 127.26 242.215 127.26 242.215 127.26 242.215 127.26 Z M238.326 117.116 C238.988 116.107 240.25 115.271 241.494 115.619 242.134 115.798 242.591 116.293 242.91 116.889 243.12 117.279 243.27 117.71 243.378 118.121 243.673 119.244 244.28 120.282 244.471 121.423 244.605 122.222 244.001 122.922 243.364 123.359 242.854 123.709 242.225 124.155 241.606 123.863 240.758 123.463 240.552 122.471 240.128 121.724 239.568 120.738 238.826 119.816 238.567 119.027 238.533 118.924 238.498 118.825 238.464 118.727 238.238 118.085 238.032 117.565 238.326 117.116 238.326 117.116 238.326 117.116 238.326 117.116 Z M233.07 107.67 C233.541 106.555 234.635 105.504 235.926 105.623 237.045 105.727 237.798 106.799 238.253 107.794 238.753 108.886 239.531 109.858 239.891 110.998 240.145 111.798 239.633 112.581 239.054 113.096 238.587 113.51 238.018 114.027 237.364 113.813 236.474 113.522 236.141 112.574 235.612 111.899 234.916 111.012 234.036 110.234 233.646 109.51 233.255 108.784 232.829 108.239 233.07 107.67 233.07 107.67 233.07 107.67 233.07 107.67 Z M226.193 99.339 C226.449 98.16 227.323 96.924 228.613 96.803 229.731 96.698 230.672 97.613 231.304 98.507 231.997 99.49 232.942 100.305 233.505 101.361 233.901 102.103 233.54 102.965 233.062 103.577 232.678 104.069 232.211 104.68 231.529 104.587 230.6 104.461 230.102 103.589 229.46 103.022 228.616 102.277 227.611 101.675 227.096 101.036 226.58 100.396 226.062 99.941 226.193 99.339 226.193 99.339 226.193 99.339 226.193 99.339 Z M217.875 92.53 C217.879 91.336 218.436 89.912 219.692 89.533 220.203 89.379 220.734 89.461 221.238 89.68 221.785 89.91 222.29 90.297 222.71 90.695 223.585 91.525 224.671 92.144 225.427 93.073 225.959 93.727 225.77 94.641 225.419 95.33 225.136 95.885 224.795 96.571 224.109 96.609 223.176 96.662 222.523 95.904 221.787 95.474 220.818 94.908 219.719 94.517 219.091 93.995 218.902 93.838 218.715 93.697 218.547 93.56 218.163 93.247 217.875 92.96 217.877 92.53 217.877 92.53 217.877 92.53 217.877 92.53 Z M208.075 88.43 C207.669 87.308 207.695 85.781 208.748 84.991 209.668 84.301 211.018 84.609 212.067 85.085 213.215 85.607 214.492 85.896 215.523 86.603 216.25 87.102 216.318 88.047 216.159 88.807 216.03 89.422 215.875 90.168 215.221 90.385 214.336 90.68 213.513 90.135 212.687 89.942 211.604 89.688 210.455 89.672 209.702 89.392 208.946 89.111 208.283 89.007 208.075 88.43 208.075 88.43 208.075 88.43 208.075 88.43 Z" fill="#ffcc00" fill-opacity="1" stroke="#4c3d00" stroke-width="1" stroke-opacity="1" stroke-linejoin="round" stroke-linecap="round"/>
  </g>
  <g id="tentacle-4">
   <path id="Pfad-10" d="M300 256.67 C294.484 240.367 287.789 224.371 284.028 207.575 277.39 177.933 280.073 148.474 281.822 136.782 284.391 119.604 286.335 99.655 284.672 88.79 283.248 79.489 281.931 71.375 268.753 66.196 273.171 69.996 276.553 75.242 277.009 81.052 278.794 103.78 273.2 133.774 271.112 150.345 269.74 161.235 269.403 179.528 270.973 193.417 272.616 207.952 275.815 221.121 279.983 235.708" fill="#ffcc00" fill-opacity="1" stroke="#4c3d00" stroke-width="1" stroke-opacity="1" stroke-linejoin="round" stroke-linecap="round"/>
   <path id="Pfad-11" d="M286.822 221.25 C287.602 220.309 288.963 219.693 290.144 220.148 291.158 220.538 291.562 221.679 291.743 222.678 291.942 223.779 292.477 224.81 292.612 225.924 292.706 226.701 292.083 227.373 291.434 227.792 290.916 228.125 290.275 228.56 289.665 228.252 288.825 227.827 288.652 226.817 288.266 226.044 287.753 225.019 287.075 224.035 286.879 223.211 286.683 222.392 286.426 221.726 286.822 221.25 286.822 221.25 286.822 221.25 286.822 221.25 Z M283.884 210.656 C284.718 209.76 286.113 209.23 287.264 209.748 288.253 210.193 288.591 211.345 288.718 212.346 288.858 213.448 289.342 214.497 289.425 215.609 289.483 216.385 288.831 217.028 288.164 217.419 287.632 217.73 286.971 218.138 286.374 217.804 285.552 217.343 285.424 216.322 285.075 215.529 284.611 214.477 283.985 213.459 283.832 212.622 283.68 211.791 283.462 211.109 283.884 210.656 283.884 210.656 283.884 210.656 283.884 210.656 Z M281.627 199.892 C282.517 199.052 283.943 198.61 285.059 199.203 286.017 199.711 286.28 200.886 286.342 201.893 286.41 203.003 286.823 204.08 286.834 205.194 286.842 205.97 286.149 206.57 285.458 206.916 284.908 207.192 284.222 207.558 283.648 207.186 282.857 206.673 282.795 205.645 282.498 204.831 282.104 203.751 281.546 202.694 281.448 201.85 281.351 201.011 281.177 200.318 281.628 199.892 281.628 199.892 281.628 199.892 281.628 199.892 Z M280.029 189.014 C280.967 188.229 282.417 187.872 283.496 188.53 284.423 189.095 284.616 190.284 284.617 191.294 284.618 192.407 284.966 193.508 284.909 194.62 284.869 195.396 284.142 195.953 283.431 196.257 282.865 196.499 282.158 196.823 281.608 196.416 280.85 195.856 280.851 194.827 280.603 193.997 280.275 192.895 279.781 191.806 279.734 190.958 279.687 190.114 279.554 189.412 280.029 189.014 280.029 189.014 280.029 189.014 280.029 189.014 Z M279.071 178.059 C280.053 177.328 281.522 177.055 282.562 177.775 283.455 178.393 283.578 179.593 283.521 180.602 283.457 181.715 283.74 182.835 283.618 183.943 283.533 184.716 282.773 185.229 282.046 185.491 281.466 185.699 280.741 185.981 280.216 185.542 279.491 184.939 279.553 183.911 279.354 183.068 279.091 181.949 278.661 180.832 278.663 179.982 278.665 179.137 278.574 178.428 279.071 178.059 279.071 178.059 279.071 178.059 279.071 178.059 Z M278.739 167.062 C279.762 166.388 281.244 166.198 282.242 166.976 283.099 167.644 283.155 168.85 283.04 169.855 282.914 170.963 283.132 172.098 282.947 173.199 282.818 173.967 282.029 174.436 281.288 174.655 280.697 174.83 279.957 175.07 279.457 174.602 278.768 173.957 278.889 172.935 278.738 172.081 278.539 170.948 278.173 169.809 278.224 168.96 278.273 168.117 278.222 167.404 278.739 167.062 278.739 167.062 278.739 167.062 278.739 167.062 Z M279.021 156.063 C280.079 155.446 281.57 155.337 282.524 156.169 283.343 156.884 283.332 158.091 283.162 159.089 282.974 160.189 283.129 161.336 282.883 162.425 282.711 163.185 281.898 163.61 281.145 163.787 280.545 163.929 279.792 164.127 279.319 163.631 278.667 162.949 278.844 161.935 278.742 161.074 278.606 159.932 278.304 158.773 278.401 157.929 278.497 157.09 278.485 156.375 279.021 156.063 L279.021 156.063 Z M279.902 145.097 C280.992 144.539 282.486 144.51 283.393 145.393 284.172 146.15 284.096 147.355 283.872 148.343 283.625 149.431 283.717 150.585 283.412 151.659 283.199 152.409 282.364 152.788 281.603 152.925 280.996 153.033 280.234 153.189 279.788 152.669 279.175 151.952 279.407 150.949 279.352 150.084 279.278 148.936 279.04 147.764 279.182 146.926 279.324 146.094 279.351 145.38 279.902 145.097 279.902 145.097 279.902 145.097 279.902 145.097 Z M281.347 134.213 C282.451 133.7 283.95 133.705 284.822 134.633 285.483 135.337 285.458 136.376 285.249 137.295 285.221 137.416 285.19 137.536 285.158 137.652 284.853 138.725 284.884 139.882 284.522 140.938 284.269 141.675 283.415 142.009 282.648 142.104 282.037 142.18 281.268 142.295 280.851 141.751 280.278 141.003 280.563 140.014 280.555 139.148 280.547 138.254 280.437 137.334 280.478 136.581 280.489 136.371 280.512 136.174 280.552 135.994 280.734 135.177 280.786 134.473 281.347 134.213 L281.347 134.213 Z M282.765 123.382 C283.853 122.839 285.353 122.801 286.25 123.705 287.023 124.484 286.921 125.723 286.664 126.73 286.38 127.839 286.419 129.024 286.05 130.106 285.793 130.862 284.933 131.194 284.165 131.281 283.551 131.352 282.784 131.455 282.373 130.906 281.81 130.155 282.097 129.176 282.081 128.315 282.06 127.177 281.859 126.003 282.018 125.183 282.178 124.362 282.211 123.658 282.764 123.382 282.764 123.382 282.764 123.382 282.764 123.382 Z M283.831 112.52 C284.899 111.939 286.396 111.842 287.326 112.715 288.127 113.467 288.069 114.712 287.846 115.73 287.601 116.851 287.678 118.038 287.344 119.133 287.11 119.899 286.261 120.258 285.496 120.369 284.884 120.458 284.121 120.584 283.693 120.049 283.107 119.315 283.363 118.329 283.32 117.469 283.261 116.334 283.02 115.169 283.15 114.345 283.281 113.52 283.288 112.816 283.831 112.52 283.831 112.52 283.831 112.52 283.831 112.52 Z M284.47 101.62 C285.507 100.988 287.001 100.802 287.976 101.637 288.819 102.359 288.816 103.627 288.634 104.665 288.433 105.807 288.552 106.997 288.255 108.106 288.047 108.88 287.209 109.269 286.449 109.408 285.84 109.519 285.081 109.674 284.634 109.154 284.02 108.441 284.241 107.445 284.166 106.585 284.065 105.451 283.778 104.297 283.873 103.47 283.969 102.642 283.942 101.942 284.47 101.62 284.47 101.62 284.47 101.62 284.47 101.62 Z M284.095 90.818 C285.024 90.054 286.473 89.628 287.556 90.332 288.494 90.941 288.661 92.238 288.604 93.318 288.541 94.507 288.782 95.712 288.587 96.872 288.449 97.686 287.644 98.146 286.896 98.343 286.296 98.5 285.554 98.707 285.069 98.222 284.407 97.56 284.544 96.561 284.386 95.722 284.178 94.616 283.762 93.523 283.753 92.704 283.745 91.884 283.62 91.208 284.095 90.818 284.095 90.818 284.095 90.818 284.095 90.818 Z M282.045 80.226 C282.804 79.315 284.122 78.564 285.333 79.075 286.392 79.522 286.81 80.836 286.938 81.945 287.078 83.165 287.495 84.343 287.465 85.521 287.443 86.344 286.705 86.916 285.993 87.221 285.422 87.467 284.716 87.785 284.162 87.377 283.403 86.817 283.393 85.799 283.114 84.988 282.746 83.918 282.172 82.907 282.033 82.112 281.894 81.315 281.654 80.693 282.044 80.226 282.044 80.226 282.044 80.226 282.044 80.226 Z M276.441 71.625 C276.614 70.464 277.335 69.105 278.642 68.926 279.788 68.77 280.848 69.736 281.544 70.729 282.292 71.796 283.271 72.801 283.773 74.053 283.819 74.17 283.851 74.288 283.87 74.404 283.962 75.157 283.514 75.819 283.011 76.26 282.538 76.675 281.972 77.161 281.322 76.942 280.953 76.818 280.684 76.591 280.45 76.323 280.131 75.951 279.877 75.499 279.553 75.156 278.818 74.375 277.872 73.807 277.375 73.214 276.875 72.617 276.352 72.226 276.441 71.625 276.441 71.625 276.441 71.625 276.441 71.625 Z" fill="#ffcc00" fill-opacity="1" stroke="#4c3d00" stroke-width="1" stroke-opacity="1" stroke-linejoin="round" stroke-linecap="round"/>
  </g>
  <path id="eye" d="M288.387 303.392 C288.485 308.382 289.914 314.3 287.247 316.017 285.405 317.202 284.533 319.253 282.415 318.697 280.198 318.117 279.713 315.672 279.616 313.653 279.482 310.856 281.427 309.48 282.528 306.926 283.456 304.769 285.998 303.076 288.387 303.392" fill="#ffffff" fill-opacity="1" stroke="#4c3d00" stroke-width="1" stroke-opacity="1" stroke-linejoin="round" stroke-linecap="round"/>
 </g>
</svg>
