<?xml version="1.0" encoding="UTF-8"?>
<svg width="598px" height="598px" viewBox="0 0 598 598" xmlns="http://www.w3.org/2000/svg" xmlns:xlink="http://www.w3.org/1999/xlink" version="1.1">
 <!-- Generated by Pixelmator Pro 2.0.6 -->
 <path id="Pfad" d="M293.14 108.12 C290.99 108.12 289.18 109.92 289.18 112.08 289.18 114.23 290.98 116.04 293.14 116.03 L307.25 116.03 C309.41 116.03 311.21 114.23 311.21 112.08 311.21 109.92 309.41 108.12 307.25 108.12 Z M292.73 379.37 L292.73 133.89 307.47 133.89 307.47 378.66 M294.31 116.2 L291.96 132.85 308.66 132.85 306.51 116.38 Z M300.22 47.028 L300.09 108.32 M299.99 27.813 L299.99 28.526 279.55 95.631 C279.55 95.631 284.4 95.631 288.91 100.33 296.24 108.53 289.47 107.7 300.29 107.7 311.66 108.41 305.22 106.86 311.26 100.33 315.76 95.625 320.65 95.633 320.65 95.633 L300.2 28.526 300.2 27.813 300.09 28.151 Z" fill="#ffff00" fill-opacity="1" stroke="#ff8800" stroke-width="2" stroke-opacity="1" stroke-linejoin="round" stroke-linecap="round"/>
 <path id="Pfad-1" d="M300 113.92 C288.72 128.97 287.8 144.82 290.62 161.28 293.41 177.6 292.16 193.45 282.12 207.39 277.15 188.91 267.81 176.51 255.58 168.24 240.95 158.36 233.19 145.42 228.81 128.1 224.15 146.3 229.32 161.3 238.22 175.42 247.04 189.42 251.97 204.55 248.05 221.26 236.38 206.09 223 198.22 208.53 195.26 191.25 191.72 179.1 182.76 168.41 168.42 171.09 187.04 181.62 198.9 195.25 208.54 208.77 218.1 219.1 230.2 221.87 247.16 205.27 237.61 189.93 235.42 175.41 238.23 158.09 241.58 143.45 237.95 128.09 228.82 137.67 244.98 151.95 251.88 168.23 255.59 184.37 259.25 198.52 266.48 207.56 281.08 188.59 278.6 173.6 282.48 161.27 290.63 146.55 300.34 131.6 302.6 113.91 300.01 128.96 311.29 144.81 312.23 161.27 309.41 177.59 306.61 193.44 307.87 207.38 317.89 188.9 322.87 176.5 332.2 168.23 344.45 158.35 359.06 145.41 366.83 128.09 371.22 146.29 375.88 161.29 370.7 175.41 361.79 189.41 352.97 204.54 348.05 221.25 351.98 206.08 363.63 198.21 377.02 195.25 391.48 191.71 408.78 182.75 420.91 168.41 431.6 187.03 428.93 198.89 418.39 208.53 404.76 218.09 391.25 230.19 380.91 247.15 378.15 237.6 394.74 235.41 410.1 238.22 424.6 241.57 441.92 237.94 456.58 228.81 471.92 244.97 462.34 251.87 448.06 255.58 431.78 259.24 415.63 266.49 401.46 281.1 392.42 278.62 411.41 282.47 426.45 290.62 438.78 300.33 453.5 302.59 468.42 300 486.1 311.28 471.07 312.22 455.24 309.4 438.78 306.6 422.46 307.87 406.58 317.91 392.64 322.89 411.11 332.21 423.54 344.44 431.82 359.05 441.69 366.82 454.6 371.21 471.92 375.87 453.72 370.69 438.76 361.78 424.64 352.96 410.63 348.06 395.47 351.99 378.74 363.66 393.91 377.01 401.8 391.47 404.76 408.77 408.29 420.9 417.26 431.59 431.6 428.92 412.98 418.38 401.14 404.75 391.48 391.24 381.92 380.95 369.8 378.17 352.83 394.75 362.38 410.09 364.6 424.59 361.79 441.91 358.44 456.57 362.07 471.91 371.22 462.33 355.04 448.05 348.14 431.77 344.45 415.63 340.78 401.52 333.52 392.47 318.93 411.42 321.38 426.46 317.54 438.77 309.41 453.49 299.68 468.41 297.44 486.09 300.01 471.06 288.73 455.23 287.81 438.77 290.63 422.45 293.42 406.57 292.14 392.63 282.1 411.1 277.12 423.53 267.82 431.81 255.59 441.68 240.96 454.59 233.2 471.91 228.82 453.71 224.16 438.75 229.33 424.63 238.23 410.62 247.05 395.46 251.97 378.73 248.02 393.9 236.36 401.79 223.01 404.75 208.54 408.29 191.26 417.25 179.11 431.59 168.42 412.97 171.1 401.13 181.63 391.47 195.26 381.91 208.78 369.79 219.08 352.82 221.84 362.37 205.27 364.59 189.94 361.78 175.42 358.43 158.1 362.06 143.46 371.21 128.1 355.03 137.68 348.13 151.96 344.44 168.24 340.77 184.37 333.53 198.5 318.93 207.54 321.39 188.59 317.53 173.59 309.4 161.28 299.67 146.56 297.43 131.61 300 113.92 Z" fill="#cc0000" fill-opacity="1" stroke="none"/>
 <path id="Pfad-2" d="M305.64 313.54 L305.64 542.62 C305.64 545.24 305.01 548.78 300.18 548.78 296 548.78 294.61 545.16 294.61 542.62 L294.61 313.54 C294.61 313.54 296.5 314.87 300.13 314.87 303.76 314.87 305.66 313.54 305.66 313.54 Z" fill="#ffff00" fill-opacity="1" stroke="none"/>
</svg>
